<svg width="1600" height="702" viewBox="0 0 1600 702" fill="none" xmlns="http://www.w3.org/2000/svg">
<circle cx="799" cy="170" r="50" fill="white"/>
<circle cx="799" cy="170" r="50" fill="url(#paint0_linear_1_489)" fill-opacity="0.4"/>
<circle cx="799" cy="170" r="50" fill="#1570E8" fill-opacity="0.7"/>
<mask id="mask0_1_489" style="mask-type:alpha" maskUnits="userSpaceOnUse" x="749" y="120" width="100" height="100">
<circle cx="799" cy="170" r="50" fill="white"/>
<circle cx="799" cy="170" r="50" stroke="white"/>
</mask>
<g mask="url(#mask0_1_489)">
<g filter="url(#filter0_d_1_489)">
<path fill-rule="evenodd" clip-rule="evenodd" d="M772.944 142.535C772.944 139.424 775.466 136.901 778.577 136.901H809.563L823.406 150.744C824.463 151.801 825.056 153.234 825.056 154.728V196.056C825.056 199.168 822.534 201.69 819.423 201.69H778.577C775.466 201.69 772.944 199.168 772.944 196.056V142.535Z" fill="url(#paint1_linear_1_489)"/>
</g>
<mask id="mask1_1_489" style="mask-type:alpha" maskUnits="userSpaceOnUse" x="772" y="136" width="54" height="66">
<path fill-rule="evenodd" clip-rule="evenodd" d="M772.944 142.535C772.944 139.424 775.466 136.901 778.577 136.901H809.563L823.406 150.744C824.463 151.801 825.056 153.234 825.056 154.728V196.056C825.056 199.168 822.534 201.69 819.423 201.69H778.577C775.466 201.69 772.944 199.168 772.944 196.056V142.535Z" fill="white"/>
</mask>
<g mask="url(#mask1_1_489)">
<path fill-rule="evenodd" clip-rule="evenodd" d="M779.986 179.155C779.208 179.155 778.577 179.786 778.577 180.563C778.577 181.341 779.208 181.972 779.986 181.972H793.366C794.144 181.972 794.775 181.341 794.775 180.563C794.775 179.786 794.144 179.155 793.366 179.155H779.986ZM798.296 179.155C797.518 179.155 796.887 179.786 796.887 180.563C796.887 181.341 797.518 181.972 798.296 181.972H818.014C818.792 181.972 819.423 181.341 819.423 180.563C819.423 179.786 818.792 179.155 818.014 179.155H798.296ZM778.577 189.014C778.577 188.236 779.208 187.606 779.986 187.606H806.042C806.82 187.606 807.451 188.236 807.451 189.014C807.451 189.792 806.82 190.423 806.042 190.423H779.986C779.208 190.423 778.577 189.792 778.577 189.014ZM810.972 187.606C810.194 187.606 809.563 188.236 809.563 189.014C809.563 189.792 810.194 190.423 810.972 190.423H818.014C818.792 190.423 819.423 189.792 819.423 189.014C819.423 188.236 818.792 187.606 818.014 187.606H810.972Z" fill="url(#paint2_linear_1_489)" fill-opacity="0.5"/>
<path fill-rule="evenodd" clip-rule="evenodd" d="M779.986 162.254C779.208 162.254 778.577 162.884 778.577 163.662C778.577 164.44 779.208 165.07 779.986 165.07H793.366C794.144 165.07 794.775 164.44 794.775 163.662C794.775 162.884 794.144 162.254 793.366 162.254H779.986ZM798.296 162.254C797.518 162.254 796.887 162.884 796.887 163.662C796.887 164.44 797.518 165.07 798.296 165.07H818.014C818.792 165.07 819.423 164.44 819.423 163.662C819.423 162.884 818.792 162.254 818.014 162.254H798.296ZM778.577 172.113C778.577 171.335 779.208 170.704 779.986 170.704H806.042C806.82 170.704 807.451 171.335 807.451 172.113C807.451 172.891 806.82 173.521 806.042 173.521H779.986C779.208 173.521 778.577 172.891 778.577 172.113ZM810.972 170.704C810.194 170.704 809.563 171.335 809.563 172.113C809.563 172.891 810.194 173.521 810.972 173.521H818.014C818.792 173.521 819.423 172.891 819.423 172.113C819.423 171.335 818.792 170.704 818.014 170.704H810.972Z" fill="url(#paint3_linear_1_489)" fill-opacity="0.5"/>
<g filter="url(#filter1_d_1_489)">
<path fill-rule="evenodd" clip-rule="evenodd" d="M809.563 136.901L825.056 152.394H815.197C812.086 152.394 809.563 149.872 809.563 146.761V136.901Z" fill="white"/>
</g>
</g>
</g>
<circle cx="646" cy="351" r="50" fill="white"/>
<circle cx="646" cy="351" r="50" fill="url(#paint4_linear_1_489)" fill-opacity="0.4"/>
<circle cx="646" cy="351" r="50" fill="#3BC1FF" fill-opacity="0.7"/>
<mask id="mask2_1_489" style="mask-type:alpha" maskUnits="userSpaceOnUse" x="596" y="301" width="100" height="100">
<circle cx="646" cy="351" r="50" fill="white"/>
<circle cx="646" cy="351" r="50" stroke="white"/>
</mask>
<g mask="url(#mask2_1_489)">
<g filter="url(#filter2_d_1_489)">
<path fill-rule="evenodd" clip-rule="evenodd" d="M619.944 323.535C619.944 320.424 622.466 317.901 625.577 317.901H656.563L670.406 331.744C671.463 332.801 672.056 334.234 672.056 335.728V377.056C672.056 380.168 669.534 382.69 666.423 382.69H625.577C622.466 382.69 619.944 380.168 619.944 377.056V323.535Z" fill="url(#paint5_linear_1_489)"/>
</g>
<mask id="mask3_1_489" style="mask-type:alpha" maskUnits="userSpaceOnUse" x="619" y="317" width="54" height="66">
<path fill-rule="evenodd" clip-rule="evenodd" d="M619.944 323.535C619.944 320.424 622.466 317.901 625.577 317.901H656.563L670.406 331.744C671.463 332.801 672.056 334.234 672.056 335.728V377.056C672.056 380.168 669.534 382.69 666.423 382.69H625.577C622.466 382.69 619.944 380.168 619.944 377.056V323.535Z" fill="white"/>
</mask>
<g mask="url(#mask3_1_489)">
<path fill-rule="evenodd" clip-rule="evenodd" d="M626.986 360.155C626.208 360.155 625.577 360.786 625.577 361.563C625.577 362.341 626.208 362.972 626.986 362.972H640.366C641.144 362.972 641.775 362.341 641.775 361.563C641.775 360.786 641.144 360.155 640.366 360.155H626.986ZM645.296 360.155C644.518 360.155 643.887 360.786 643.887 361.563C643.887 362.341 644.518 362.972 645.296 362.972H665.014C665.792 362.972 666.423 362.341 666.423 361.563C666.423 360.786 665.792 360.155 665.014 360.155H645.296ZM625.577 370.014C625.577 369.236 626.208 368.606 626.986 368.606H653.042C653.82 368.606 654.451 369.236 654.451 370.014C654.451 370.792 653.82 371.423 653.042 371.423H626.986C626.208 371.423 625.577 370.792 625.577 370.014ZM657.972 368.606C657.194 368.606 656.563 369.236 656.563 370.014C656.563 370.792 657.194 371.423 657.972 371.423H665.014C665.792 371.423 666.423 370.792 666.423 370.014C666.423 369.236 665.792 368.606 665.014 368.606H657.972Z" fill="url(#paint6_linear_1_489)" fill-opacity="0.5"/>
<path fill-rule="evenodd" clip-rule="evenodd" d="M626.986 343.254C626.208 343.254 625.577 343.884 625.577 344.662C625.577 345.44 626.208 346.07 626.986 346.07H640.366C641.144 346.07 641.775 345.44 641.775 344.662C641.775 343.884 641.144 343.254 640.366 343.254H626.986ZM645.296 343.254C644.518 343.254 643.887 343.884 643.887 344.662C643.887 345.44 644.518 346.07 645.296 346.07H665.014C665.792 346.07 666.423 345.44 666.423 344.662C666.423 343.884 665.792 343.254 665.014 343.254H645.296ZM625.577 353.113C625.577 352.335 626.208 351.704 626.986 351.704H653.042C653.82 351.704 654.451 352.335 654.451 353.113C654.451 353.891 653.82 354.521 653.042 354.521H626.986C626.208 354.521 625.577 353.891 625.577 353.113ZM657.972 351.704C657.194 351.704 656.563 352.335 656.563 353.113C656.563 353.891 657.194 354.521 657.972 354.521H665.014C665.792 354.521 666.423 353.891 666.423 353.113C666.423 352.335 665.792 351.704 665.014 351.704H657.972Z" fill="url(#paint7_linear_1_489)" fill-opacity="0.5"/>
<g filter="url(#filter3_d_1_489)">
<path fill-rule="evenodd" clip-rule="evenodd" d="M656.563 317.901L672.056 333.394H662.197C659.086 333.394 656.563 330.872 656.563 327.761V317.901Z" fill="white"/>
</g>
</g>
</g>
<circle cx="952" cy="351" r="50" fill="white"/>
<circle cx="952" cy="351" r="50" fill="url(#paint8_linear_1_489)" fill-opacity="0.4"/>
<circle cx="952" cy="351" r="50" fill="#3BC1FF" fill-opacity="0.7"/>
<mask id="mask4_1_489" style="mask-type:alpha" maskUnits="userSpaceOnUse" x="902" y="301" width="100" height="100">
<circle cx="952" cy="351" r="50" fill="white"/>
<circle cx="952" cy="351" r="50" stroke="white"/>
</mask>
<g mask="url(#mask4_1_489)">
<g filter="url(#filter4_d_1_489)">
<path fill-rule="evenodd" clip-rule="evenodd" d="M925.944 323.535C925.944 320.424 928.466 317.901 931.577 317.901H962.563L976.406 331.744C977.463 332.801 978.056 334.234 978.056 335.728V377.056C978.056 380.168 975.534 382.69 972.422 382.69H931.577C928.466 382.69 925.944 380.168 925.944 377.056V323.535Z" fill="url(#paint9_linear_1_489)"/>
</g>
<mask id="mask5_1_489" style="mask-type:alpha" maskUnits="userSpaceOnUse" x="925" y="317" width="54" height="66">
<path fill-rule="evenodd" clip-rule="evenodd" d="M925.944 323.535C925.944 320.424 928.466 317.901 931.577 317.901H962.563L976.406 331.744C977.463 332.801 978.056 334.234 978.056 335.728V377.056C978.056 380.168 975.534 382.69 972.422 382.69H931.577C928.466 382.69 925.944 380.168 925.944 377.056V323.535Z" fill="white"/>
</mask>
<g mask="url(#mask5_1_489)">
<path fill-rule="evenodd" clip-rule="evenodd" d="M932.986 360.155C932.208 360.155 931.577 360.786 931.577 361.563C931.577 362.341 932.208 362.972 932.986 362.972H946.366C947.144 362.972 947.775 362.341 947.775 361.563C947.775 360.786 947.144 360.155 946.366 360.155H932.986ZM951.296 360.155C950.518 360.155 949.887 360.786 949.887 361.563C949.887 362.341 950.518 362.972 951.296 362.972H971.014C971.792 362.972 972.422 362.341 972.422 361.563C972.422 360.786 971.792 360.155 971.014 360.155H951.296ZM931.577 370.014C931.577 369.236 932.208 368.606 932.986 368.606H959.042C959.82 368.606 960.451 369.236 960.451 370.014C960.451 370.792 959.82 371.423 959.042 371.423H932.986C932.208 371.423 931.577 370.792 931.577 370.014ZM963.972 368.606C963.194 368.606 962.563 369.236 962.563 370.014C962.563 370.792 963.194 371.423 963.972 371.423H971.014C971.792 371.423 972.422 370.792 972.422 370.014C972.422 369.236 971.792 368.606 971.014 368.606H963.972Z" fill="url(#paint10_linear_1_489)" fill-opacity="0.5"/>
<path fill-rule="evenodd" clip-rule="evenodd" d="M932.986 343.254C932.208 343.254 931.577 343.884 931.577 344.662C931.577 345.44 932.208 346.07 932.986 346.07H946.366C947.144 346.07 947.775 345.44 947.775 344.662C947.775 343.884 947.144 343.254 946.366 343.254H932.986ZM951.296 343.254C950.518 343.254 949.887 343.884 949.887 344.662C949.887 345.44 950.518 346.07 951.296 346.07H971.014C971.792 346.07 972.422 345.44 972.422 344.662C972.422 343.884 971.792 343.254 971.014 343.254H951.296ZM931.577 353.113C931.577 352.335 932.208 351.704 932.986 351.704H959.042C959.82 351.704 960.451 352.335 960.451 353.113C960.451 353.891 959.82 354.521 959.042 354.521H932.986C932.208 354.521 931.577 353.891 931.577 353.113ZM963.972 351.704C963.194 351.704 962.563 352.335 962.563 353.113C962.563 353.891 963.194 354.521 963.972 354.521H971.014C971.792 354.521 972.422 353.891 972.422 353.113C972.422 352.335 971.792 351.704 971.014 351.704H963.972Z" fill="url(#paint11_linear_1_489)" fill-opacity="0.5"/>
<g filter="url(#filter5_d_1_489)">
<path fill-rule="evenodd" clip-rule="evenodd" d="M962.563 317.901L978.056 333.394H968.197C965.086 333.394 962.563 330.872 962.563 327.761V317.901Z" fill="white"/>
</g>
</g>
</g>
<circle cx="799" cy="351" r="50" fill="white"/>
<circle cx="799" cy="351" r="50" fill="url(#paint12_linear_1_489)" fill-opacity="0.4"/>
<circle cx="799" cy="351" r="50" fill="#3BC1FF" fill-opacity="0.7"/>
<mask id="mask6_1_489" style="mask-type:alpha" maskUnits="userSpaceOnUse" x="749" y="301" width="100" height="100">
<circle cx="799" cy="351" r="50" fill="white"/>
<circle cx="799" cy="351" r="50" stroke="white"/>
</mask>
<g mask="url(#mask6_1_489)">
<g filter="url(#filter6_d_1_489)">
<path fill-rule="evenodd" clip-rule="evenodd" d="M772.944 323.535C772.944 320.424 775.466 317.901 778.577 317.901H809.563L823.406 331.744C824.463 332.801 825.056 334.234 825.056 335.728V377.056C825.056 380.168 822.534 382.69 819.423 382.69H778.577C775.466 382.69 772.944 380.168 772.944 377.056V323.535Z" fill="url(#paint13_linear_1_489)"/>
</g>
<mask id="mask7_1_489" style="mask-type:alpha" maskUnits="userSpaceOnUse" x="772" y="317" width="54" height="66">
<path fill-rule="evenodd" clip-rule="evenodd" d="M772.944 323.535C772.944 320.424 775.466 317.901 778.577 317.901H809.563L823.406 331.744C824.463 332.801 825.056 334.234 825.056 335.728V377.056C825.056 380.168 822.534 382.69 819.423 382.69H778.577C775.466 382.69 772.944 380.168 772.944 377.056V323.535Z" fill="white"/>
</mask>
<g mask="url(#mask7_1_489)">
<path fill-rule="evenodd" clip-rule="evenodd" d="M779.986 360.155C779.208 360.155 778.577 360.786 778.577 361.563C778.577 362.341 779.208 362.972 779.986 362.972H793.366C794.144 362.972 794.775 362.341 794.775 361.563C794.775 360.786 794.144 360.155 793.366 360.155H779.986ZM798.296 360.155C797.518 360.155 796.887 360.786 796.887 361.563C796.887 362.341 797.518 362.972 798.296 362.972H818.014C818.792 362.972 819.423 362.341 819.423 361.563C819.423 360.786 818.792 360.155 818.014 360.155H798.296ZM778.577 370.014C778.577 369.236 779.208 368.606 779.986 368.606H806.042C806.82 368.606 807.451 369.236 807.451 370.014C807.451 370.792 806.82 371.423 806.042 371.423H779.986C779.208 371.423 778.577 370.792 778.577 370.014ZM810.972 368.606C810.194 368.606 809.563 369.236 809.563 370.014C809.563 370.792 810.194 371.423 810.972 371.423H818.014C818.792 371.423 819.423 370.792 819.423 370.014C819.423 369.236 818.792 368.606 818.014 368.606H810.972Z" fill="url(#paint14_linear_1_489)" fill-opacity="0.5"/>
<path fill-rule="evenodd" clip-rule="evenodd" d="M779.986 343.254C779.208 343.254 778.577 343.884 778.577 344.662C778.577 345.44 779.208 346.07 779.986 346.07H793.366C794.144 346.07 794.775 345.44 794.775 344.662C794.775 343.884 794.144 343.254 793.366 343.254H779.986ZM798.296 343.254C797.518 343.254 796.887 343.884 796.887 344.662C796.887 345.44 797.518 346.07 798.296 346.07H818.014C818.792 346.07 819.423 345.44 819.423 344.662C819.423 343.884 818.792 343.254 818.014 343.254H798.296ZM778.577 353.113C778.577 352.335 779.208 351.704 779.986 351.704H806.042C806.82 351.704 807.451 352.335 807.451 353.113C807.451 353.891 806.82 354.521 806.042 354.521H779.986C779.208 354.521 778.577 353.891 778.577 353.113ZM810.972 351.704C810.194 351.704 809.563 352.335 809.563 353.113C809.563 353.891 810.194 354.521 810.972 354.521H818.014C818.792 354.521 819.423 353.891 819.423 353.113C819.423 352.335 818.792 351.704 818.014 351.704H810.972Z" fill="url(#paint15_linear_1_489)" fill-opacity="0.5"/>
<g filter="url(#filter7_d_1_489)">
<path fill-rule="evenodd" clip-rule="evenodd" d="M809.563 317.901L825.056 333.394H815.197C812.086 333.394 809.563 330.872 809.563 327.761V317.901Z" fill="white"/>
</g>
</g>
</g>
<path d="M800 224C800 223.448 799.552 223 799 223C798.448 223 798 223.448 798 224H800ZM952 297L957.774 287H946.226L952 297ZM798 224V238H800V224H798ZM809 249H942V247H809V249ZM951 258V288H953V258H951ZM942 249C946.971 249 951 253.029 951 258H953C953 251.925 948.075 247 942 247V249ZM798 238C798 244.075 802.925 249 809 249V247C804.029 247 800 242.971 800 238H798Z" fill="#1570E8" fill-opacity="0.7"/>
<path d="M800 224C800 223.448 799.552 223 799 223C798.448 223 798 223.448 798 224H800ZM646 297L651.774 287H640.226L646 297ZM798 224V238H800V224H798ZM789 247H656V249H789V247ZM645 258V288H647V258H645ZM656 247C649.925 247 645 251.925 645 258H647C647 253.029 651.029 249 656 249V247ZM798 238C798 242.971 793.971 247 789 247V249C795.075 249 800 244.075 800 238H798Z" fill="#1570E8" fill-opacity="0.7"/>
<path d="M800 224C800 223.448 799.552 223 799 223C798.448 223 798 223.448 798 224H800ZM799 297L804.774 287H793.226L799 297ZM798 224V288H800V224H798Z" fill="#1570E8" fill-opacity="0.7"/>
<circle cx="493" cy="534" r="50" fill="white"/>
<circle cx="493" cy="534" r="50" fill="url(#paint16_linear_1_489)" fill-opacity="0.4"/>
<circle cx="493" cy="534" r="50" fill="#3BC1FF" fill-opacity="0.7"/>
<mask id="mask8_1_489" style="mask-type:alpha" maskUnits="userSpaceOnUse" x="443" y="484" width="100" height="100">
<circle cx="493" cy="534" r="50" fill="white"/>
<circle cx="493" cy="534" r="50" stroke="white"/>
</mask>
<g mask="url(#mask8_1_489)">
<g filter="url(#filter8_d_1_489)">
<path fill-rule="evenodd" clip-rule="evenodd" d="M466.944 506.535C466.944 503.424 469.466 500.901 472.577 500.901H503.563L517.406 514.744C518.463 515.801 519.056 517.234 519.056 518.728V560.056C519.056 563.168 516.534 565.69 513.423 565.69H472.577C469.466 565.69 466.944 563.168 466.944 560.056V506.535Z" fill="url(#paint17_linear_1_489)"/>
</g>
<mask id="mask9_1_489" style="mask-type:alpha" maskUnits="userSpaceOnUse" x="466" y="500" width="54" height="66">
<path fill-rule="evenodd" clip-rule="evenodd" d="M466.944 506.535C466.944 503.424 469.466 500.901 472.577 500.901H503.563L517.406 514.744C518.463 515.801 519.056 517.234 519.056 518.728V560.056C519.056 563.168 516.534 565.69 513.423 565.69H472.577C469.466 565.69 466.944 563.168 466.944 560.056V506.535Z" fill="white"/>
</mask>
<g mask="url(#mask9_1_489)">
<path fill-rule="evenodd" clip-rule="evenodd" d="M473.986 543.155C473.208 543.155 472.577 543.786 472.577 544.563C472.577 545.341 473.208 545.972 473.986 545.972H487.366C488.144 545.972 488.775 545.341 488.775 544.563C488.775 543.786 488.144 543.155 487.366 543.155H473.986ZM492.296 543.155C491.518 543.155 490.887 543.786 490.887 544.563C490.887 545.341 491.518 545.972 492.296 545.972H512.014C512.792 545.972 513.423 545.341 513.423 544.563C513.423 543.786 512.792 543.155 512.014 543.155H492.296ZM472.577 553.014C472.577 552.236 473.208 551.606 473.986 551.606H500.042C500.82 551.606 501.451 552.236 501.451 553.014C501.451 553.792 500.82 554.423 500.042 554.423H473.986C473.208 554.423 472.577 553.792 472.577 553.014ZM504.972 551.606C504.194 551.606 503.563 552.236 503.563 553.014C503.563 553.792 504.194 554.423 504.972 554.423H512.014C512.792 554.423 513.423 553.792 513.423 553.014C513.423 552.236 512.792 551.606 512.014 551.606H504.972Z" fill="url(#paint18_linear_1_489)" fill-opacity="0.5"/>
<path fill-rule="evenodd" clip-rule="evenodd" d="M473.986 526.254C473.208 526.254 472.577 526.884 472.577 527.662C472.577 528.44 473.208 529.07 473.986 529.07H487.366C488.144 529.07 488.775 528.44 488.775 527.662C488.775 526.884 488.144 526.254 487.366 526.254H473.986ZM492.296 526.254C491.518 526.254 490.887 526.884 490.887 527.662C490.887 528.44 491.518 529.07 492.296 529.07H512.014C512.792 529.07 513.423 528.44 513.423 527.662C513.423 526.884 512.792 526.254 512.014 526.254H492.296ZM472.577 536.113C472.577 535.335 473.208 534.704 473.986 534.704H500.042C500.82 534.704 501.451 535.335 501.451 536.113C501.451 536.891 500.82 537.521 500.042 537.521H473.986C473.208 537.521 472.577 536.891 472.577 536.113ZM504.972 534.704C504.194 534.704 503.563 535.335 503.563 536.113C503.563 536.891 504.194 537.521 504.972 537.521H512.014C512.792 537.521 513.423 536.891 513.423 536.113C513.423 535.335 512.792 534.704 512.014 534.704H504.972Z" fill="url(#paint19_linear_1_489)" fill-opacity="0.5"/>
<g filter="url(#filter9_d_1_489)">
<path fill-rule="evenodd" clip-rule="evenodd" d="M503.563 500.901L519.056 516.394H509.197C506.086 516.394 503.563 513.872 503.563 510.761V500.901Z" fill="white"/>
</g>
</g>
</g>
<circle cx="646" cy="534" r="50" fill="white"/>
<circle cx="646" cy="534" r="50" fill="url(#paint20_linear_1_489)" fill-opacity="0.4"/>
<circle cx="646" cy="534" r="50" fill="#3BC1FF" fill-opacity="0.7"/>
<mask id="mask10_1_489" style="mask-type:alpha" maskUnits="userSpaceOnUse" x="596" y="484" width="100" height="100">
<circle cx="646" cy="534" r="50" fill="white"/>
<circle cx="646" cy="534" r="50" stroke="white"/>
</mask>
<g mask="url(#mask10_1_489)">
<g filter="url(#filter10_d_1_489)">
<path fill-rule="evenodd" clip-rule="evenodd" d="M619.944 506.535C619.944 503.424 622.466 500.901 625.577 500.901H656.563L670.406 514.744C671.463 515.801 672.056 517.234 672.056 518.728V560.056C672.056 563.168 669.534 565.69 666.423 565.69H625.577C622.466 565.69 619.944 563.168 619.944 560.056V506.535Z" fill="url(#paint21_linear_1_489)"/>
</g>
<mask id="mask11_1_489" style="mask-type:alpha" maskUnits="userSpaceOnUse" x="619" y="500" width="54" height="66">
<path fill-rule="evenodd" clip-rule="evenodd" d="M619.944 506.535C619.944 503.424 622.466 500.901 625.577 500.901H656.563L670.406 514.744C671.463 515.801 672.056 517.234 672.056 518.728V560.056C672.056 563.168 669.534 565.69 666.423 565.69H625.577C622.466 565.69 619.944 563.168 619.944 560.056V506.535Z" fill="white"/>
</mask>
<g mask="url(#mask11_1_489)">
<path fill-rule="evenodd" clip-rule="evenodd" d="M626.986 543.155C626.208 543.155 625.577 543.786 625.577 544.563C625.577 545.341 626.208 545.972 626.986 545.972H640.366C641.144 545.972 641.775 545.341 641.775 544.563C641.775 543.786 641.144 543.155 640.366 543.155H626.986ZM645.296 543.155C644.518 543.155 643.887 543.786 643.887 544.563C643.887 545.341 644.518 545.972 645.296 545.972H665.014C665.792 545.972 666.423 545.341 666.423 544.563C666.423 543.786 665.792 543.155 665.014 543.155H645.296ZM625.577 553.014C625.577 552.236 626.208 551.606 626.986 551.606H653.042C653.82 551.606 654.451 552.236 654.451 553.014C654.451 553.792 653.82 554.423 653.042 554.423H626.986C626.208 554.423 625.577 553.792 625.577 553.014ZM657.972 551.606C657.194 551.606 656.563 552.236 656.563 553.014C656.563 553.792 657.194 554.423 657.972 554.423H665.014C665.792 554.423 666.423 553.792 666.423 553.014C666.423 552.236 665.792 551.606 665.014 551.606H657.972Z" fill="url(#paint22_linear_1_489)" fill-opacity="0.5"/>
<path fill-rule="evenodd" clip-rule="evenodd" d="M626.986 526.254C626.208 526.254 625.577 526.884 625.577 527.662C625.577 528.44 626.208 529.07 626.986 529.07H640.366C641.144 529.07 641.775 528.44 641.775 527.662C641.775 526.884 641.144 526.254 640.366 526.254H626.986ZM645.296 526.254C644.518 526.254 643.887 526.884 643.887 527.662C643.887 528.44 644.518 529.07 645.296 529.07H665.014C665.792 529.07 666.423 528.44 666.423 527.662C666.423 526.884 665.792 526.254 665.014 526.254H645.296ZM625.577 536.113C625.577 535.335 626.208 534.704 626.986 534.704H653.042C653.82 534.704 654.451 535.335 654.451 536.113C654.451 536.891 653.82 537.521 653.042 537.521H626.986C626.208 537.521 625.577 536.891 625.577 536.113ZM657.972 534.704C657.194 534.704 656.563 535.335 656.563 536.113C656.563 536.891 657.194 537.521 657.972 537.521H665.014C665.792 537.521 666.423 536.891 666.423 536.113C666.423 535.335 665.792 534.704 665.014 534.704H657.972Z" fill="url(#paint23_linear_1_489)" fill-opacity="0.5"/>
<g filter="url(#filter11_d_1_489)">
<path fill-rule="evenodd" clip-rule="evenodd" d="M656.563 500.901L672.056 516.394H662.197C659.086 516.394 656.563 513.872 656.563 510.761V500.901Z" fill="white"/>
</g>
</g>
</g>
<circle cx="952" cy="534" r="50" fill="white"/>
<circle cx="952" cy="534" r="50" fill="url(#paint24_linear_1_489)" fill-opacity="0.4"/>
<circle cx="952" cy="534" r="50" fill="#3BC1FF" fill-opacity="0.7"/>
<mask id="mask12_1_489" style="mask-type:alpha" maskUnits="userSpaceOnUse" x="902" y="484" width="100" height="100">
<circle cx="952" cy="534" r="50" fill="white"/>
<circle cx="952" cy="534" r="50" stroke="white"/>
</mask>
<g mask="url(#mask12_1_489)">
<g filter="url(#filter12_d_1_489)">
<path fill-rule="evenodd" clip-rule="evenodd" d="M925.944 506.535C925.944 503.424 928.466 500.901 931.577 500.901H962.563L976.406 514.744C977.463 515.801 978.056 517.234 978.056 518.728V560.056C978.056 563.168 975.534 565.69 972.422 565.69H931.577C928.466 565.69 925.944 563.168 925.944 560.056V506.535Z" fill="url(#paint25_linear_1_489)"/>
</g>
<mask id="mask13_1_489" style="mask-type:alpha" maskUnits="userSpaceOnUse" x="925" y="500" width="54" height="66">
<path fill-rule="evenodd" clip-rule="evenodd" d="M925.944 506.535C925.944 503.424 928.466 500.901 931.577 500.901H962.563L976.406 514.744C977.463 515.801 978.056 517.234 978.056 518.728V560.056C978.056 563.168 975.534 565.69 972.422 565.69H931.577C928.466 565.69 925.944 563.168 925.944 560.056V506.535Z" fill="white"/>
</mask>
<g mask="url(#mask13_1_489)">
<path fill-rule="evenodd" clip-rule="evenodd" d="M932.986 543.155C932.208 543.155 931.577 543.786 931.577 544.563C931.577 545.341 932.208 545.972 932.986 545.972H946.366C947.144 545.972 947.775 545.341 947.775 544.563C947.775 543.786 947.144 543.155 946.366 543.155H932.986ZM951.296 543.155C950.518 543.155 949.887 543.786 949.887 544.563C949.887 545.341 950.518 545.972 951.296 545.972H971.014C971.792 545.972 972.422 545.341 972.422 544.563C972.422 543.786 971.792 543.155 971.014 543.155H951.296ZM931.577 553.014C931.577 552.236 932.208 551.606 932.986 551.606H959.042C959.82 551.606 960.451 552.236 960.451 553.014C960.451 553.792 959.82 554.423 959.042 554.423H932.986C932.208 554.423 931.577 553.792 931.577 553.014ZM963.972 551.606C963.194 551.606 962.563 552.236 962.563 553.014C962.563 553.792 963.194 554.423 963.972 554.423H971.014C971.792 554.423 972.422 553.792 972.422 553.014C972.422 552.236 971.792 551.606 971.014 551.606H963.972Z" fill="url(#paint26_linear_1_489)" fill-opacity="0.5"/>
<path fill-rule="evenodd" clip-rule="evenodd" d="M932.986 526.254C932.208 526.254 931.577 526.884 931.577 527.662C931.577 528.44 932.208 529.07 932.986 529.07H946.366C947.144 529.07 947.775 528.44 947.775 527.662C947.775 526.884 947.144 526.254 946.366 526.254H932.986ZM951.296 526.254C950.518 526.254 949.887 526.884 949.887 527.662C949.887 528.44 950.518 529.07 951.296 529.07H971.014C971.792 529.07 972.422 528.44 972.422 527.662C972.422 526.884 971.792 526.254 971.014 526.254H951.296ZM931.577 536.113C931.577 535.335 932.208 534.704 932.986 534.704H959.042C959.82 534.704 960.451 535.335 960.451 536.113C960.451 536.891 959.82 537.521 959.042 537.521H932.986C932.208 537.521 931.577 536.891 931.577 536.113ZM963.972 534.704C963.194 534.704 962.563 535.335 962.563 536.113C962.563 536.891 963.194 537.521 963.972 537.521H971.014C971.792 537.521 972.422 536.891 972.422 536.113C972.422 535.335 971.792 534.704 971.014 534.704H963.972Z" fill="url(#paint27_linear_1_489)" fill-opacity="0.5"/>
<g filter="url(#filter13_d_1_489)">
<path fill-rule="evenodd" clip-rule="evenodd" d="M962.563 500.901L978.056 516.394H968.197C965.086 516.394 962.563 513.872 962.563 510.761V500.901Z" fill="white"/>
</g>
</g>
</g>
<circle cx="1105" cy="534" r="50" fill="white"/>
<circle cx="1105" cy="534" r="50" fill="url(#paint28_linear_1_489)" fill-opacity="0.4"/>
<circle cx="1105" cy="534" r="50" fill="#3BC1FF" fill-opacity="0.7"/>
<mask id="mask14_1_489" style="mask-type:alpha" maskUnits="userSpaceOnUse" x="1055" y="484" width="100" height="100">
<circle cx="1105" cy="534" r="50" fill="white"/>
<circle cx="1105" cy="534" r="50" stroke="white"/>
</mask>
<g mask="url(#mask14_1_489)">
<g filter="url(#filter14_d_1_489)">
<path fill-rule="evenodd" clip-rule="evenodd" d="M1078.94 506.535C1078.94 503.424 1081.47 500.901 1084.58 500.901H1115.56L1129.41 514.744C1130.46 515.801 1131.06 517.234 1131.06 518.728V560.056C1131.06 563.168 1128.53 565.69 1125.42 565.69H1084.58C1081.47 565.69 1078.94 563.168 1078.94 560.056V506.535Z" fill="url(#paint29_linear_1_489)"/>
</g>
<mask id="mask15_1_489" style="mask-type:alpha" maskUnits="userSpaceOnUse" x="1078" y="500" width="54" height="66">
<path fill-rule="evenodd" clip-rule="evenodd" d="M1078.94 506.535C1078.94 503.424 1081.47 500.901 1084.58 500.901H1115.56L1129.41 514.744C1130.46 515.801 1131.06 517.234 1131.06 518.728V560.056C1131.06 563.168 1128.53 565.69 1125.42 565.69H1084.58C1081.47 565.69 1078.94 563.168 1078.94 560.056V506.535Z" fill="white"/>
</mask>
<g mask="url(#mask15_1_489)">
<path fill-rule="evenodd" clip-rule="evenodd" d="M1085.99 543.155C1085.21 543.155 1084.58 543.786 1084.58 544.563C1084.58 545.341 1085.21 545.972 1085.99 545.972H1099.37C1100.14 545.972 1100.77 545.341 1100.77 544.563C1100.77 543.786 1100.14 543.155 1099.37 543.155H1085.99ZM1104.3 543.155C1103.52 543.155 1102.89 543.786 1102.89 544.563C1102.89 545.341 1103.52 545.972 1104.3 545.972H1124.01C1124.79 545.972 1125.42 545.341 1125.42 544.563C1125.42 543.786 1124.79 543.155 1124.01 543.155H1104.3ZM1084.58 553.014C1084.58 552.236 1085.21 551.606 1085.99 551.606H1112.04C1112.82 551.606 1113.45 552.236 1113.45 553.014C1113.45 553.792 1112.82 554.423 1112.04 554.423H1085.99C1085.21 554.423 1084.58 553.792 1084.58 553.014ZM1116.97 551.606C1116.19 551.606 1115.56 552.236 1115.56 553.014C1115.56 553.792 1116.19 554.423 1116.97 554.423H1124.01C1124.79 554.423 1125.42 553.792 1125.42 553.014C1125.42 552.236 1124.79 551.606 1124.01 551.606H1116.97Z" fill="url(#paint30_linear_1_489)" fill-opacity="0.5"/>
<path fill-rule="evenodd" clip-rule="evenodd" d="M1085.99 526.254C1085.21 526.254 1084.58 526.884 1084.58 527.662C1084.58 528.44 1085.21 529.07 1085.99 529.07H1099.37C1100.14 529.07 1100.77 528.44 1100.77 527.662C1100.77 526.884 1100.14 526.254 1099.37 526.254H1085.99ZM1104.3 526.254C1103.52 526.254 1102.89 526.884 1102.89 527.662C1102.89 528.44 1103.52 529.07 1104.3 529.07H1124.01C1124.79 529.07 1125.42 528.44 1125.42 527.662C1125.42 526.884 1124.79 526.254 1124.01 526.254H1104.3ZM1084.58 536.113C1084.58 535.335 1085.21 534.704 1085.99 534.704H1112.04C1112.82 534.704 1113.45 535.335 1113.45 536.113C1113.45 536.891 1112.82 537.521 1112.04 537.521H1085.99C1085.21 537.521 1084.58 536.891 1084.58 536.113ZM1116.97 534.704C1116.19 534.704 1115.56 535.335 1115.56 536.113C1115.56 536.891 1116.19 537.521 1116.97 537.521H1124.01C1124.79 537.521 1125.42 536.891 1125.42 536.113C1125.42 535.335 1124.79 534.704 1124.01 534.704H1116.97Z" fill="url(#paint31_linear_1_489)" fill-opacity="0.5"/>
<g filter="url(#filter15_d_1_489)">
<path fill-rule="evenodd" clip-rule="evenodd" d="M1115.56 500.901L1131.06 516.394H1121.2C1118.09 516.394 1115.56 513.872 1115.56 510.761V500.901Z" fill="white"/>
</g>
</g>
</g>
<path d="M647 405C647 404.448 646.552 404 646 404C645.448 404 645 404.448 645 405H647ZM493 480L498.774 470H487.226L493 480ZM645 405V421H647V405H645ZM636 430H503V432H636V430ZM492 441V471H494V441H492ZM503 430C496.925 430 492 434.925 492 441H494C494 436.029 498.029 432 503 432V430ZM645 421C645 425.971 640.971 430 636 430V432C642.075 432 647 427.075 647 421H645Z" fill="#3BC1FF" fill-opacity="0.7"/>
<path d="M953 405C953 404.448 952.552 404 952 404C951.448 404 951 404.448 951 405H953ZM1105 480L1110.77 470H1099.23L1105 480ZM951 405V421H953V405H951ZM962 432H1095V430H962V432ZM1104 441V471H1106V441H1104ZM1095 432C1099.97 432 1104 436.029 1104 441H1106C1106 434.925 1101.08 430 1095 430V432ZM951 421C951 427.075 955.925 432 962 432V430C957.029 430 953 425.971 953 421H951Z" fill="#3BC1FF" fill-opacity="0.7"/>
<path d="M647 405C647 404.448 646.552 404 646 404C645.448 404 645 404.448 645 405H647ZM646 480L651.774 470H640.226L646 480ZM645 405V471H647V405H645Z" fill="#3BC1FF" fill-opacity="0.7"/>
<path d="M1020 66C1019.45 66 1019 66.4477 1019 67C1019 67.5523 1019.45 68 1020 68V66ZM1020 68H1020.98V66H1020V68ZM1022.95 68H1024.91V66H1022.95V68ZM1026.88 68H1028.84V66H1026.88V68ZM1030.8 68H1032.77V66H1030.8V68ZM1034.73 68H1036.7V66H1034.73V68ZM1038.66 68H1040.62V66H1038.66V68ZM1042.59 68H1044.55V66H1042.59V68ZM1046.52 68H1047.5V66H1046.52V68ZM1047.5 68C1047.8 68 1048.09 68.0145 1048.38 68.0428L1048.58 66.0522C1048.22 66.0176 1047.86 66 1047.5 66V68ZM1050.11 68.3852C1050.68 68.5575 1051.23 68.7846 1051.74 69.0605L1052.69 67.2975C1052.06 66.96 1051.39 66.682 1050.69 66.4711L1050.11 68.3852ZM1053.21 70.0423C1053.66 70.4167 1054.08 70.8351 1054.46 71.2908L1056 70.0211C1055.55 69.4648 1055.04 68.9541 1054.48 68.4969L1053.21 70.0423ZM1055.44 72.7574C1055.72 73.2725 1055.94 73.8175 1056.11 74.3861L1058.03 73.8062C1057.82 73.11 1057.54 72.4431 1057.2 71.813L1055.44 72.7574ZM1056.46 76.1163C1056.49 76.4068 1056.5 76.7015 1056.5 77H1058.5C1058.5 76.6368 1058.48 76.2773 1058.45 75.9226L1056.46 76.1163ZM1056.5 77V77.9963H1058.5V77H1056.5ZM1056.5 79.989V81.9816H1058.5V79.989H1056.5ZM1056.5 83.9743V85.9669H1058.5V83.9743H1056.5ZM1056.5 87.9596V89.9522H1058.5V87.9596H1056.5ZM1056.5 91.9449V93.9375H1058.5V91.9449H1056.5ZM1056.5 95.9301V97.9228H1058.5V95.9301H1056.5ZM1056.5 99.9154V101.908H1058.5V99.9154H1056.5ZM1056.5 103.901V105.893H1058.5V103.901H1056.5ZM1056.5 107.886V109.879H1058.5V107.886H1056.5ZM1056.5 111.871V113.864H1058.5V111.871H1056.5ZM1056.5 115.857V117.849H1058.5V115.857H1056.5ZM1056.5 119.842V121.835H1058.5V119.842H1056.5ZM1056.5 123.827V125.82H1058.5V123.827H1056.5ZM1056.5 127.812V129.805H1058.5V127.812H1056.5ZM1056.5 131.798V133.79H1058.5V131.798H1056.5ZM1056.5 135.783V137.776H1058.5V135.783H1056.5ZM1056.5 139.768V141.761H1058.5V139.768H1056.5ZM1056.5 143.754V145.746H1058.5V143.754H1056.5ZM1056.5 147.739V149.732H1058.5V147.739H1056.5ZM1056.5 151.724V153.717H1058.5V151.724H1056.5ZM1056.5 155.71V157.702H1058.5V155.71H1056.5ZM1056.5 159.695V161.687H1058.5V159.695H1056.5ZM1056.5 163.68V165.673H1058.5V163.68H1056.5ZM1056.5 167.665V169.658H1058.5V167.665H1056.5ZM1056.5 171.651V173.643H1058.5V171.651H1056.5ZM1056.5 175.636V177.629H1058.5V175.636H1056.5ZM1056.5 179.621V181.614H1058.5V179.621H1056.5ZM1056.5 183.607V185.599H1058.5V183.607H1056.5ZM1056.5 187.592V189.584H1058.5V187.592H1056.5ZM1056.5 191.577V193.57H1058.5V191.577H1056.5ZM1056.5 195.562V197.555H1058.5V195.562H1056.5ZM1056.5 199.548V201.54H1058.5V199.548H1056.5ZM1056.5 203.533V205.526H1058.5V203.533H1056.5ZM1056.5 207.518V209.511H1058.5V207.518H1056.5ZM1056.5 211.504V212.5H1058.5V211.504H1056.5ZM1027 412H1028.02V410H1027V412ZM1030.07 412H1032.13V410H1030.07V412ZM1034.18 412H1036.23V410H1034.18V412ZM1038.28 412H1040.33V410H1038.28V412ZM1042.38 412H1044.43V410H1042.38V412ZM1046.48 412H1047.5V410H1046.48V412ZM1047.5 412C1047.86 412 1048.22 411.982 1048.58 411.948L1048.38 409.957C1048.09 409.986 1047.8 410 1047.5 410V412ZM1050.69 411.529C1051.39 411.318 1052.06 411.04 1052.69 410.703L1051.74 408.939C1051.23 409.215 1050.68 409.443 1050.11 409.615L1050.69 411.529ZM1054.48 409.503C1055.04 409.046 1055.55 408.535 1056 407.979L1054.46 406.709C1054.08 407.165 1053.66 407.583 1053.21 407.958L1054.48 409.503ZM1057.2 406.187C1057.54 405.557 1057.82 404.89 1058.03 404.194L1056.11 403.614C1055.94 404.183 1055.72 404.727 1055.44 405.243L1057.2 406.187ZM1058.45 402.077C1058.48 401.723 1058.5 401.363 1058.5 401H1056.5C1056.5 401.298 1056.49 401.593 1056.46 401.884L1058.45 402.077ZM1058.5 401V400.004H1056.5V401H1058.5ZM1058.5 398.011V396.018H1056.5V398.011H1058.5ZM1058.5 394.026V392.033H1056.5V394.026H1058.5ZM1058.5 390.04V388.048H1056.5V390.04H1058.5ZM1058.5 386.055V384.063H1056.5V386.055H1058.5ZM1058.5 382.07V380.077H1056.5V382.07H1058.5ZM1058.5 378.085V376.092H1056.5V378.085H1058.5ZM1058.5 374.099V372.107H1056.5V374.099H1058.5ZM1058.5 370.114V368.121H1056.5V370.114H1058.5ZM1058.5 366.129V364.136H1056.5V366.129H1058.5ZM1058.5 362.143V360.151H1056.5V362.143H1058.5ZM1058.5 358.158V356.165H1056.5V358.158H1058.5ZM1058.5 354.173V352.18H1056.5V354.173H1058.5ZM1058.5 350.188V348.195H1056.5V350.188H1058.5ZM1058.5 346.202V344.21H1056.5V346.202H1058.5ZM1058.5 342.217V340.224H1056.5V342.217H1058.5ZM1058.5 338.232V336.239H1056.5V338.232H1058.5ZM1058.5 334.246V332.254H1056.5V334.246H1058.5ZM1058.5 330.261V328.268H1056.5V330.261H1058.5ZM1058.5 326.276V324.283H1056.5V326.276H1058.5ZM1058.5 322.29V320.298H1056.5V322.29H1058.5ZM1058.5 318.305V316.313H1056.5V318.305H1058.5ZM1058.5 314.32V312.327H1056.5V314.32H1058.5ZM1058.5 310.335V308.342H1056.5V310.335H1058.5ZM1058.5 306.349V304.357H1056.5V306.349H1058.5ZM1058.5 302.364V300.371H1056.5V302.364H1058.5ZM1058.5 298.379V296.386H1056.5V298.379H1058.5ZM1058.5 294.393V292.401H1056.5V294.393H1058.5ZM1058.5 290.408V288.416H1056.5V290.408H1058.5ZM1058.5 286.423V284.43H1056.5V286.423H1058.5ZM1058.5 282.438V280.445H1056.5V282.438H1058.5ZM1058.5 278.452V276.46H1056.5V278.452H1058.5ZM1058.5 274.467V272.474H1056.5V274.467H1058.5ZM1058.5 270.482V268.489H1056.5V270.482H1058.5ZM1058.5 266.496V265.5H1056.5V266.496H1058.5Z" fill="#A5B8C4"/>
<path d="M1023.9 247.5V231.5H1025.84V245.781H1033.28V247.5H1023.9ZM1041.06 247.75C1039.9 247.75 1038.9 247.495 1038.07 246.984C1037.23 246.469 1036.59 245.75 1036.14 244.828C1035.69 243.901 1035.46 242.823 1035.46 241.594C1035.46 240.365 1035.69 239.281 1036.14 238.344C1036.59 237.401 1037.22 236.667 1038.03 236.141C1038.84 235.609 1039.79 235.344 1040.87 235.344C1041.5 235.344 1042.11 235.448 1042.72 235.656C1043.33 235.865 1043.89 236.203 1044.39 236.672C1044.89 237.135 1045.29 237.75 1045.58 238.516C1045.88 239.281 1046.03 240.224 1046.03 241.344V242.125H1036.78V240.531H1044.15C1044.15 239.854 1044.02 239.25 1043.75 238.719C1043.48 238.187 1043.1 237.768 1042.61 237.461C1042.12 237.154 1041.54 237 1040.87 237C1040.14 237 1039.5 237.182 1038.96 237.547C1038.43 237.906 1038.02 238.375 1037.74 238.953C1037.45 239.531 1037.31 240.151 1037.31 240.812V241.875C1037.31 242.781 1037.46 243.549 1037.78 244.18C1038.1 244.805 1038.54 245.281 1039.1 245.609C1039.66 245.932 1040.31 246.094 1041.06 246.094C1041.54 246.094 1041.98 246.026 1042.37 245.891C1042.77 245.75 1043.11 245.542 1043.39 245.266C1043.68 244.984 1043.9 244.635 1044.06 244.219L1045.84 244.719C1045.65 245.323 1045.34 245.854 1044.89 246.312C1044.45 246.766 1043.9 247.12 1043.25 247.375C1042.6 247.625 1041.87 247.75 1041.06 247.75ZM1058.28 235.5L1053.84 247.5H1051.97L1047.53 235.5H1049.53L1052.84 245.062H1052.97L1056.28 235.5H1058.28ZM1065.31 247.75C1064.16 247.75 1063.16 247.495 1062.32 246.984C1061.49 246.469 1060.85 245.75 1060.39 244.828C1059.94 243.901 1059.72 242.823 1059.72 241.594C1059.72 240.365 1059.94 239.281 1060.39 238.344C1060.85 237.401 1061.48 236.667 1062.28 236.141C1063.1 235.609 1064.04 235.344 1065.13 235.344C1065.75 235.344 1066.37 235.448 1066.98 235.656C1067.59 235.865 1068.14 236.203 1068.64 236.672C1069.14 237.135 1069.54 237.75 1069.84 238.516C1070.13 239.281 1070.28 240.224 1070.28 241.344V242.125H1061.03V240.531H1068.41C1068.41 239.854 1068.27 239.25 1068 238.719C1067.74 238.187 1067.36 237.768 1066.86 237.461C1066.37 237.154 1065.79 237 1065.13 237C1064.39 237 1063.76 237.182 1063.22 237.547C1062.69 237.906 1062.28 238.375 1061.99 238.953C1061.71 239.531 1061.56 240.151 1061.56 240.812V241.875C1061.56 242.781 1061.72 243.549 1062.03 244.18C1062.35 244.805 1062.79 245.281 1063.35 245.609C1063.92 245.932 1064.57 246.094 1065.31 246.094C1065.8 246.094 1066.24 246.026 1066.63 245.891C1067.02 245.75 1067.36 245.542 1067.65 245.266C1067.94 244.984 1068.16 244.635 1068.31 244.219L1070.1 244.719C1069.91 245.323 1069.59 245.854 1069.15 246.312C1068.71 246.766 1068.16 247.12 1067.51 247.375C1066.86 247.625 1066.13 247.75 1065.31 247.75ZM1074.93 231.5V247.5H1073.09V231.5H1074.93ZM1090.09 231.5V247.5H1088.15V233.531H1088.06L1084.15 236.125V234.156L1088.15 231.5H1090.09Z" fill="black" fill-opacity="0.8"/>
<path d="M1170 66C1170 66.2693 1170.05 66.5286 1170.15 66.7658L1172 65.9997L1172 66H1170ZM1171.23 67.8478C1171.47 67.9462 1171.73 68 1172 68V66L1172 66.0004L1171.23 67.8478ZM1172 68H1173.02V66H1172V68ZM1175.07 68H1177.12V66H1175.07V68ZM1179.18 68H1181.23V66H1179.18V68ZM1183.28 68H1185.33V66H1183.28V68ZM1187.38 68H1189.43V66H1187.38V68ZM1191.48 68H1193.52V66H1191.48V68ZM1195.57 68H1197.62V66H1195.57V68ZM1199.67 68H1201.72V66H1199.67V68ZM1203.77 68H1205.82V66H1203.77V68ZM1207.87 68H1209.92V66H1207.87V68ZM1211.97 68H1213V66H1211.97V68ZM1213 68C1213.3 68 1213.59 68.0145 1213.88 68.0428L1214.08 66.0522C1213.72 66.0176 1213.36 66 1213 66V68ZM1215.61 68.3852C1216.18 68.5575 1216.73 68.7846 1217.24 69.0605L1218.19 67.2975C1217.56 66.96 1216.89 66.682 1216.19 66.4711L1215.61 68.3852ZM1218.71 70.0423C1219.16 70.4167 1219.58 70.8351 1219.96 71.2908L1221.5 70.0211C1221.05 69.4648 1220.54 68.9541 1219.98 68.4969L1218.71 70.0423ZM1220.94 72.7574C1221.22 73.2725 1221.44 73.8175 1221.61 74.3861L1223.53 73.8062C1223.32 73.11 1223.04 72.4431 1222.7 71.813L1220.94 72.7574ZM1221.96 76.1163C1221.99 76.4068 1222 76.7015 1222 77H1224C1224 76.6368 1223.98 76.2773 1223.95 75.9226L1221.96 76.1163ZM1222 77V78.0031H1224V77H1222ZM1222 80.0093V82.0155H1224V80.0093H1222ZM1222 84.0217V86.0279H1224V84.0217H1222ZM1222 88.0341V90.0403H1224V88.0341H1222ZM1222 92.0464V94.0526H1224V92.0464H1222ZM1222 96.0588V98.065H1224V96.0588H1222ZM1222 100.071V102.077H1224V100.071H1222ZM1222 104.084V106.09H1224V104.084H1222ZM1222 108.096V110.102H1224V108.096H1222ZM1222 112.108V114.115H1224V112.108H1222ZM1222 116.121V118.127H1224V116.121H1222ZM1222 120.133V122.139H1224V120.133H1222ZM1222 124.146V126.152H1224V124.146H1222ZM1222 128.158V130.164H1224V128.158H1222ZM1222 132.17V134.177H1224V132.17H1222ZM1222 136.183V138.189H1224V136.183H1222ZM1222 140.195V142.201H1224V140.195H1222ZM1222 144.208V146.214H1224V144.208H1222ZM1222 148.22V150.226H1224V148.22H1222ZM1222 152.232V154.238H1224V152.232H1222ZM1222 156.245V158.251H1224V156.245H1222ZM1222 160.257V162.263H1224V160.257H1222ZM1222 164.269V166.276H1224V164.269H1222ZM1222 168.282V170.288H1224V168.282H1222ZM1222 172.294V174.3H1224V172.294H1222ZM1222 176.307V178.313H1224V176.307H1222ZM1222 180.319V182.325H1224V180.319H1222ZM1222 184.331V186.338H1224V184.331H1222ZM1222 188.344V190.35H1224V188.344H1222ZM1222 192.356V194.362H1224V192.356H1222ZM1222 196.369V198.375H1224V196.369H1222ZM1222 200.381V202.387H1224V200.381H1222ZM1222 204.393V206.4H1224V204.393H1222ZM1222 208.406V210.412H1224V208.406H1222ZM1222 212.418V214.424H1224V212.418H1222ZM1222 216.431V218.437H1224V216.431H1222ZM1222 220.443V222.449H1224V220.443H1222ZM1222 224.455V226.461H1224V224.455H1222ZM1222 228.468V230.474H1224V228.468H1222ZM1222 232.48V234.486H1224V232.48H1222ZM1222 236.492V238.499H1224V236.492H1222ZM1222 240.505V242.511H1224V240.505H1222ZM1222 244.517V246.523H1224V244.517H1222ZM1222 248.53V250.536H1224V248.53H1222ZM1222 252.542V254.548H1224V252.542H1222ZM1222 256.554V258.561H1224V256.554H1222ZM1222 260.567V262.573H1224V260.567H1222ZM1222 264.579V266.585H1224V264.579H1222ZM1222 268.592V270.598H1224V268.592H1222ZM1222 272.604V274.61H1224V272.604H1222ZM1222 276.616V278.623H1224V276.616H1222ZM1222 280.629V282.635H1224V280.629H1222ZM1222 284.641V286.647H1224V284.641H1222ZM1222 288.654V290.66H1224V288.654H1222ZM1222 292.666V294.672H1224V292.666H1222ZM1222 296.678V298.685H1224V296.678H1222ZM1222 300.691V302.697H1224V300.691H1222ZM1222 304.703V306.709H1224V304.703H1222ZM1222 308.716V310.722H1224V308.716H1222ZM1222 312.728V314.734H1224V312.728H1222ZM1222 316.74V318.746H1224V316.74H1222ZM1222 320.753V321.756H1224V320.753H1222ZM1169 593H1170V591H1169V593ZM1172 593H1174V591H1172V593ZM1176 593H1178V591H1176V593ZM1180 593H1182V591H1180V593ZM1184 593H1186V591H1184V593ZM1188 593H1190V591H1188V593ZM1192 593H1194V591H1192V593ZM1196 593H1198V591H1196V593ZM1200 593H1202V591H1200V593ZM1204 593H1206V591H1204V593ZM1208 593H1210V591H1208V593ZM1212 593H1213V591H1212V593ZM1213 593C1213.36 593 1213.72 592.982 1214.08 592.948L1213.88 590.957C1213.59 590.986 1213.3 591 1213 591V593ZM1216.19 592.529C1216.89 592.318 1217.56 592.04 1218.19 591.703L1217.24 589.939C1216.73 590.215 1216.18 590.443 1215.61 590.615L1216.19 592.529ZM1219.98 590.503C1220.54 590.046 1221.05 589.535 1221.5 588.979L1219.96 587.709C1219.58 588.165 1219.16 588.583 1218.71 588.958L1219.98 590.503ZM1222.7 587.187C1223.04 586.557 1223.32 585.89 1223.53 585.194L1221.61 584.614C1221.44 585.183 1221.22 585.727 1220.94 586.243L1222.7 587.187ZM1223.95 583.077C1223.98 582.723 1224 582.363 1224 582H1222C1222 582.298 1221.99 582.593 1221.96 582.884L1223.95 583.077ZM1224 582V581.004H1222V582H1224ZM1224 579.011V577.018H1222V579.011H1224ZM1224 575.025V573.033H1222V575.025H1224ZM1224 571.04V569.047H1222V571.04H1224ZM1224 567.054V565.062H1222V567.054H1224ZM1224 563.069V561.076H1222V563.069H1224ZM1224 559.084V557.091H1222V559.084H1224ZM1224 555.098V553.105H1222V555.098H1224ZM1224 551.113V549.12H1222V551.113H1224ZM1224 547.127V545.134H1222V547.127H1224ZM1224 543.142V541.149H1222V543.142H1224ZM1224 539.156V537.163H1222V539.156H1224ZM1224 535.171V533.178H1222V535.171H1224ZM1224 531.185V529.193H1222V531.185H1224ZM1224 527.2V525.207H1222V527.2H1224ZM1224 523.214V521.222H1222V523.214H1224ZM1224 519.229V517.236H1222V519.229H1224ZM1224 515.243V513.251H1222V515.243H1224ZM1224 511.258V509.265H1222V511.258H1224ZM1224 507.272V505.28H1222V507.272H1224ZM1224 503.287V501.294H1222V503.287H1224ZM1224 499.301V497.309H1222V499.301H1224ZM1224 495.316V493.323H1222V495.316H1224ZM1224 491.331V489.338H1222V491.331H1224ZM1224 487.345V485.352H1222V487.345H1224ZM1224 483.36V481.367H1222V483.36H1224ZM1224 479.374V477.381H1222V479.374H1224ZM1224 475.389V473.396H1222V475.389H1224ZM1224 471.403V469.41H1222V471.403H1224ZM1224 467.418V465.425H1222V467.418H1224ZM1224 463.432V461.439H1222V463.432H1224ZM1224 459.447V457.454H1222V459.447H1224ZM1224 455.461V453.469H1222V455.461H1224ZM1224 451.476V449.483H1222V451.476H1224ZM1224 447.49V445.498H1222V447.49H1224ZM1224 443.505V441.512H1222V443.505H1224ZM1224 439.519V437.527H1222V439.519H1224ZM1224 435.534V433.541H1222V435.534H1224ZM1224 431.548V429.556H1222V431.548H1224ZM1224 427.563V425.57H1222V427.563H1224ZM1224 423.577V421.585H1222V423.577H1224ZM1224 419.592V417.599H1222V419.592H1224ZM1224 415.607V413.614H1222V415.607H1224ZM1224 411.621V409.628H1222V411.621H1224ZM1224 407.636V405.643H1222V407.636H1224ZM1224 403.65V401.657H1222V403.65H1224ZM1224 399.665V397.672H1222V399.665H1224ZM1224 395.679V393.686H1222V395.679H1224ZM1224 391.694V389.701H1222V391.694H1224ZM1224 387.708V385.715H1222V387.708H1224ZM1224 383.723V381.73H1222V383.723H1224ZM1224 379.737V377.745H1222V379.737H1224ZM1224 375.752V374.756H1222V375.752H1224Z" fill="#A5B8C4"/>
<path d="M1187.86 356.756V340.756H1189.79V355.037H1197.23V356.756H1187.86ZM1205.01 357.006C1203.86 357.006 1202.86 356.75 1202.02 356.24C1201.19 355.724 1200.54 355.006 1200.09 354.084C1199.64 353.157 1199.42 352.078 1199.42 350.849C1199.42 349.62 1199.64 348.537 1200.09 347.599C1200.54 346.657 1201.17 345.922 1201.98 345.396C1202.79 344.865 1203.74 344.599 1204.82 344.599C1205.45 344.599 1206.07 344.703 1206.68 344.912C1207.29 345.12 1207.84 345.459 1208.34 345.927C1208.84 346.391 1209.24 347.006 1209.54 347.771C1209.83 348.537 1209.98 349.48 1209.98 350.599V351.381H1200.73V349.787H1208.11C1208.11 349.11 1207.97 348.506 1207.7 347.974C1207.43 347.443 1207.05 347.024 1206.56 346.716C1206.07 346.409 1205.49 346.256 1204.82 346.256C1204.09 346.256 1203.45 346.438 1202.92 346.802C1202.39 347.162 1201.98 347.631 1201.69 348.209C1201.4 348.787 1201.26 349.407 1201.26 350.068V351.131C1201.26 352.037 1201.42 352.805 1201.73 353.435C1202.05 354.06 1202.49 354.537 1203.05 354.865C1203.61 355.188 1204.27 355.349 1205.01 355.349C1205.5 355.349 1205.93 355.282 1206.32 355.146C1206.72 355.006 1207.06 354.797 1207.35 354.521C1207.63 354.24 1207.86 353.891 1208.01 353.474L1209.79 353.974C1209.61 354.578 1209.29 355.11 1208.85 355.568C1208.4 356.021 1207.86 356.375 1207.21 356.631C1206.56 356.881 1205.82 357.006 1205.01 357.006ZM1222.23 344.756L1217.79 356.756H1215.92L1211.48 344.756H1213.48L1216.79 354.318H1216.92L1220.23 344.756H1222.23ZM1229.27 357.006C1228.11 357.006 1227.11 356.75 1226.28 356.24C1225.44 355.724 1224.8 355.006 1224.35 354.084C1223.9 353.157 1223.67 352.078 1223.67 350.849C1223.67 349.62 1223.9 348.537 1224.35 347.599C1224.8 346.657 1225.43 345.922 1226.24 345.396C1227.05 344.865 1228 344.599 1229.08 344.599C1229.71 344.599 1230.32 344.703 1230.93 344.912C1231.54 345.12 1232.1 345.459 1232.6 345.927C1233.1 346.391 1233.49 347.006 1233.79 347.771C1234.09 348.537 1234.24 349.48 1234.24 350.599V351.381H1224.99V349.787H1232.36C1232.36 349.11 1232.23 348.506 1231.96 347.974C1231.69 347.443 1231.31 347.024 1230.81 346.716C1230.32 346.409 1229.75 346.256 1229.08 346.256C1228.35 346.256 1227.71 346.438 1227.17 346.802C1226.64 347.162 1226.23 347.631 1225.95 348.209C1225.66 348.787 1225.52 349.407 1225.52 350.068V351.131C1225.52 352.037 1225.67 352.805 1225.99 353.435C1226.3 354.06 1226.74 354.537 1227.31 354.865C1227.87 355.188 1228.52 355.349 1229.27 355.349C1229.75 355.349 1230.19 355.282 1230.58 355.146C1230.98 355.006 1231.32 354.797 1231.6 354.521C1231.89 354.24 1232.11 353.891 1232.27 353.474L1234.05 353.974C1233.86 354.578 1233.55 355.11 1233.1 355.568C1232.66 356.021 1232.11 356.375 1231.46 356.631C1230.81 356.881 1230.08 357.006 1229.27 357.006ZM1238.88 340.756V356.756H1237.04V340.756H1238.88ZM1248.42 356.756V355.349L1253.7 349.568C1254.32 348.891 1254.83 348.302 1255.23 347.802C1255.63 347.297 1255.93 346.823 1256.12 346.381C1256.32 345.933 1256.42 345.464 1256.42 344.974C1256.42 344.412 1256.28 343.925 1256.01 343.513C1255.75 343.102 1255.38 342.784 1254.92 342.56C1254.45 342.336 1253.93 342.224 1253.36 342.224C1252.74 342.224 1252.2 342.352 1251.75 342.607C1251.29 342.857 1250.94 343.209 1250.69 343.662C1250.45 344.115 1250.32 344.646 1250.32 345.256H1248.48C1248.48 344.318 1248.7 343.495 1249.13 342.787C1249.56 342.078 1250.15 341.526 1250.89 341.131C1251.64 340.735 1252.49 340.537 1253.42 340.537C1254.36 340.537 1255.19 340.735 1255.91 341.131C1256.63 341.526 1257.2 342.06 1257.61 342.732C1258.02 343.404 1258.23 344.151 1258.23 344.974C1258.23 345.563 1258.12 346.138 1257.91 346.701C1257.7 347.258 1257.34 347.881 1256.82 348.568C1256.3 349.25 1255.58 350.084 1254.67 351.068L1251.07 354.912V355.037H1258.51V356.756H1248.42Z" fill="black" fill-opacity="0.8"/>
<path d="M953 405C953 404.448 952.552 404 952 404C951.448 404 951 404.448 951 405H953ZM952 480L957.774 470H946.226L952 480ZM951 405V471H953V405H951Z" fill="#3BC1FF" fill-opacity="0.7"/>
<path d="M758.688 77C758.594 76.2083 758.214 75.5938 757.547 75.1562C756.88 74.7187 756.063 74.5 755.094 74.5C754.385 74.5 753.766 74.6146 753.234 74.8437C752.708 75.0729 752.297 75.388 752 75.7891C751.708 76.1901 751.563 76.6458 751.563 77.1562C751.563 77.5833 751.664 77.9505 751.867 78.2578C752.076 78.5599 752.341 78.8125 752.664 79.0156C752.987 79.2135 753.326 79.3776 753.68 79.5078C754.034 79.6328 754.359 79.7344 754.656 79.8125L756.281 80.25C756.698 80.3594 757.161 80.5104 757.672 80.7031C758.188 80.8958 758.68 81.1589 759.148 81.4922C759.622 81.8203 760.013 82.2422 760.32 82.7578C760.628 83.2734 760.781 83.9062 760.781 84.6562C760.781 85.5208 760.555 86.3021 760.102 87C759.654 87.6979 758.997 88.2526 758.133 88.6641C757.273 89.0755 756.229 89.2813 755 89.2813C753.854 89.2813 752.862 89.0964 752.023 88.7266C751.19 88.3568 750.534 87.8411 750.055 87.1797C749.581 86.5182 749.313 85.75 749.25 84.875H751.25C751.302 85.4792 751.505 85.9792 751.859 86.375C752.219 86.7656 752.672 87.0573 753.219 87.25C753.771 87.4375 754.365 87.5312 755 87.5312C755.74 87.5312 756.404 87.4115 756.992 87.1719C757.581 86.9271 758.047 86.5885 758.391 86.1562C758.734 85.7187 758.906 85.2083 758.906 84.625C758.906 84.0937 758.758 83.6615 758.461 83.3281C758.164 82.9948 757.773 82.724 757.289 82.5156C756.805 82.3073 756.281 82.125 755.719 81.9687L753.75 81.4062C752.5 81.0469 751.51 80.5339 750.781 79.8672C750.052 79.2005 749.688 78.3281 749.688 77.25C749.688 76.3542 749.93 75.5729 750.414 74.9062C750.904 74.2344 751.56 73.7135 752.383 73.3437C753.211 72.9687 754.135 72.7812 755.156 72.7812C756.188 72.7812 757.104 72.9661 757.906 73.3359C758.708 73.7005 759.344 74.2005 759.812 74.8359C760.286 75.4714 760.536 76.1927 760.563 77H758.688ZM768.936 77V78.5625H762.717V77H768.936ZM764.529 74.125H766.373V85.5625C766.373 86.0833 766.449 86.474 766.6 86.7344C766.756 86.9896 766.954 87.1615 767.193 87.25C767.438 87.3333 767.696 87.375 767.967 87.375C768.17 87.375 768.337 87.3646 768.467 87.3437C768.597 87.3177 768.701 87.2969 768.779 87.2812L769.154 88.9375C769.029 88.9844 768.855 89.0313 768.631 89.0781C768.407 89.1302 768.123 89.1563 767.779 89.1563C767.258 89.1563 766.748 89.0443 766.248 88.8203C765.753 88.5964 765.342 88.2552 765.014 87.7969C764.691 87.3385 764.529 86.7604 764.529 86.0625V74.125ZM775.24 89.2813C774.48 89.2813 773.79 89.138 773.17 88.8516C772.55 88.5599 772.058 88.1406 771.693 87.5938C771.329 87.0417 771.146 86.375 771.146 85.5937C771.146 84.9062 771.282 84.349 771.553 83.9219C771.824 83.4896 772.186 83.151 772.639 82.9062C773.092 82.6615 773.592 82.4792 774.139 82.3594C774.691 82.2344 775.245 82.1354 775.803 82.0625C776.532 81.9687 777.123 81.8984 777.576 81.8516C778.035 81.7995 778.368 81.7135 778.576 81.5937C778.79 81.474 778.896 81.2656 778.896 80.9687V80.9062C778.896 80.1354 778.686 79.5365 778.264 79.1094C777.847 78.6823 777.214 78.4687 776.365 78.4687C775.485 78.4687 774.795 78.6615 774.295 79.0469C773.795 79.4323 773.443 79.8437 773.24 80.2812L771.49 79.6562C771.803 78.9271 772.219 78.3594 772.74 77.9531C773.266 77.5417 773.839 77.2552 774.459 77.0937C775.084 76.9271 775.699 76.8438 776.303 76.8438C776.688 76.8438 777.131 76.8906 777.631 76.9844C778.136 77.0729 778.623 77.2578 779.092 77.5391C779.566 77.8203 779.959 78.2448 780.271 78.8125C780.584 79.3802 780.74 80.1406 780.74 81.0938V89H778.896V87.375H778.803C778.678 87.6354 778.469 87.9141 778.178 88.2109C777.886 88.5078 777.498 88.7604 777.014 88.9687C776.529 89.1771 775.938 89.2813 775.24 89.2813ZM775.521 87.625C776.251 87.625 776.865 87.4818 777.365 87.1953C777.87 86.9089 778.251 86.5391 778.506 86.0859C778.766 85.6328 778.896 85.1562 778.896 84.6562V82.9687C778.818 83.0625 778.646 83.1484 778.381 83.2266C778.12 83.2995 777.818 83.3646 777.475 83.4219C777.136 83.474 776.805 83.5208 776.482 83.5625C776.165 83.599 775.907 83.6302 775.709 83.6562C775.23 83.7187 774.782 83.8203 774.365 83.9609C773.954 84.0964 773.62 84.3021 773.365 84.5781C773.115 84.849 772.99 85.2187 772.99 85.6875C772.99 86.3281 773.227 86.8125 773.701 87.1406C774.18 87.4635 774.787 87.625 775.521 87.625ZM784.105 89V77H785.887V78.8125H786.012C786.23 78.2188 786.626 77.737 787.199 77.3672C787.772 76.9974 788.418 76.8125 789.137 76.8125C789.272 76.8125 789.441 76.8151 789.645 76.8203C789.848 76.8255 790.001 76.8333 790.105 76.8438V78.7187C790.043 78.7031 789.9 78.6797 789.676 78.6484C789.457 78.612 789.225 78.5937 788.98 78.5937C788.397 78.5937 787.876 78.7161 787.418 78.9609C786.965 79.2005 786.605 79.5339 786.34 79.9609C786.079 80.3828 785.949 80.8646 785.949 81.4062V89H784.105ZM798.262 77V78.5625L792.043 78.5625V77L798.262 77ZM793.855 74.125H795.699V85.5625C795.699 86.0833 795.775 86.474 795.926 86.7344C796.082 86.9896 796.28 87.1615 796.52 87.25C796.764 87.3333 797.022 87.375 797.293 87.375C797.496 87.375 797.663 87.3646 797.793 87.3437C797.923 87.3177 798.027 87.2969 798.105 87.2812L798.48 88.9375C798.355 88.9844 798.181 89.0313 797.957 89.0781C797.733 89.1302 797.449 89.1563 797.105 89.1563C796.585 89.1563 796.074 89.0443 795.574 88.8203C795.079 88.5964 794.668 88.2552 794.34 87.7969C794.017 87.3385 793.855 86.7604 793.855 86.0625V74.125ZM817.973 73H819.91V83.5937C819.91 84.6875 819.652 85.6641 819.137 86.5234C818.626 87.3776 817.905 88.0521 816.973 88.5469C816.04 89.0365 814.947 89.2813 813.691 89.2813C812.436 89.2813 811.342 89.0365 810.41 88.5469C809.478 88.0521 808.754 87.3776 808.238 86.5234C807.728 85.6641 807.473 84.6875 807.473 83.5937V73H809.41V83.4375C809.41 84.2187 809.582 84.9141 809.926 85.5234C810.27 86.1276 810.759 86.6042 811.395 86.9531C812.035 87.2969 812.801 87.4687 813.691 87.4687C814.582 87.4687 815.348 87.2969 815.988 86.9531C816.629 86.6042 817.118 86.1276 817.457 85.5234C817.801 84.9141 817.973 84.2187 817.973 83.4375V73ZM823.779 89V73H829.186C830.436 73 831.462 73.2135 832.264 73.6406C833.066 74.0625 833.66 74.6432 834.045 75.3828C834.43 76.1224 834.623 76.9635 834.623 77.9062C834.623 78.849 834.43 79.6849 834.045 80.4141C833.66 81.1432 833.068 81.7161 832.271 82.1328C831.475 82.5443 830.456 82.75 829.217 82.75H824.842V81H829.154C830.008 81 830.696 80.875 831.217 80.625C831.743 80.375 832.123 80.0208 832.357 79.5625C832.597 79.099 832.717 78.5469 832.717 77.9062C832.717 77.2656 832.597 76.7057 832.357 76.2266C832.118 75.7474 831.735 75.3776 831.209 75.1172C830.683 74.8516 829.988 74.7187 829.123 74.7187H825.717V89H823.779ZM831.311 81.8125L835.248 89H832.998L829.123 81.8125H831.311ZM837.852 89V73H839.789V87.2813H847.227V89H837.852Z" fill="#081746"/>
<defs>
<filter id="filter0_d_1_489" x="760.944" y="127.901" width="76.1127" height="88.7887" filterUnits="userSpaceOnUse" color-interpolation-filters="sRGB">
<feFlood flood-opacity="0" result="BackgroundImageFix"/>
<feColorMatrix in="SourceAlpha" type="matrix" values="0 0 0 0 0 0 0 0 0 0 0 0 0 0 0 0 0 0 127 0" result="hardAlpha"/>
<feOffset dy="3"/>
<feGaussianBlur stdDeviation="6"/>
<feColorMatrix type="matrix" values="0 0 0 0 0.180392 0 0 0 0 0.266667 0 0 0 0 0.345098 0 0 0 0.1 0"/>
<feBlend mode="normal" in2="BackgroundImageFix" result="effect1_dropShadow_1_489"/>
<feBlend mode="normal" in="SourceGraphic" in2="effect1_dropShadow_1_489" result="shape"/>
</filter>
<filter id="filter1_d_1_489" x="792.563" y="119.901" width="49.493" height="49.493" filterUnits="userSpaceOnUse" color-interpolation-filters="sRGB">
<feFlood flood-opacity="0" result="BackgroundImageFix"/>
<feColorMatrix in="SourceAlpha" type="matrix" values="0 0 0 0 0 0 0 0 0 0 0 0 0 0 0 0 0 0 127 0" result="hardAlpha"/>
<feOffset/>
<feGaussianBlur stdDeviation="8.5"/>
<feColorMatrix type="matrix" values="0 0 0 0 0.181589 0 0 0 0 0.266489 0 0 0 0 0.345212 0 0 0 0.3 0"/>
<feBlend mode="normal" in2="BackgroundImageFix" result="effect1_dropShadow_1_489"/>
<feBlend mode="normal" in="SourceGraphic" in2="effect1_dropShadow_1_489" result="shape"/>
</filter>
<filter id="filter2_d_1_489" x="607.944" y="308.901" width="76.1127" height="88.7887" filterUnits="userSpaceOnUse" color-interpolation-filters="sRGB">
<feFlood flood-opacity="0" result="BackgroundImageFix"/>
<feColorMatrix in="SourceAlpha" type="matrix" values="0 0 0 0 0 0 0 0 0 0 0 0 0 0 0 0 0 0 127 0" result="hardAlpha"/>
<feOffset dy="3"/>
<feGaussianBlur stdDeviation="6"/>
<feColorMatrix type="matrix" values="0 0 0 0 0.180392 0 0 0 0 0.266667 0 0 0 0 0.345098 0 0 0 0.1 0"/>
<feBlend mode="normal" in2="BackgroundImageFix" result="effect1_dropShadow_1_489"/>
<feBlend mode="normal" in="SourceGraphic" in2="effect1_dropShadow_1_489" result="shape"/>
</filter>
<filter id="filter3_d_1_489" x="639.563" y="300.901" width="49.493" height="49.493" filterUnits="userSpaceOnUse" color-interpolation-filters="sRGB">
<feFlood flood-opacity="0" result="BackgroundImageFix"/>
<feColorMatrix in="SourceAlpha" type="matrix" values="0 0 0 0 0 0 0 0 0 0 0 0 0 0 0 0 0 0 127 0" result="hardAlpha"/>
<feOffset/>
<feGaussianBlur stdDeviation="8.5"/>
<feColorMatrix type="matrix" values="0 0 0 0 0.181589 0 0 0 0 0.266489 0 0 0 0 0.345212 0 0 0 0.3 0"/>
<feBlend mode="normal" in2="BackgroundImageFix" result="effect1_dropShadow_1_489"/>
<feBlend mode="normal" in="SourceGraphic" in2="effect1_dropShadow_1_489" result="shape"/>
</filter>
<filter id="filter4_d_1_489" x="913.944" y="308.901" width="76.1127" height="88.7887" filterUnits="userSpaceOnUse" color-interpolation-filters="sRGB">
<feFlood flood-opacity="0" result="BackgroundImageFix"/>
<feColorMatrix in="SourceAlpha" type="matrix" values="0 0 0 0 0 0 0 0 0 0 0 0 0 0 0 0 0 0 127 0" result="hardAlpha"/>
<feOffset dy="3"/>
<feGaussianBlur stdDeviation="6"/>
<feColorMatrix type="matrix" values="0 0 0 0 0.180392 0 0 0 0 0.266667 0 0 0 0 0.345098 0 0 0 0.1 0"/>
<feBlend mode="normal" in2="BackgroundImageFix" result="effect1_dropShadow_1_489"/>
<feBlend mode="normal" in="SourceGraphic" in2="effect1_dropShadow_1_489" result="shape"/>
</filter>
<filter id="filter5_d_1_489" x="945.563" y="300.901" width="49.493" height="49.493" filterUnits="userSpaceOnUse" color-interpolation-filters="sRGB">
<feFlood flood-opacity="0" result="BackgroundImageFix"/>
<feColorMatrix in="SourceAlpha" type="matrix" values="0 0 0 0 0 0 0 0 0 0 0 0 0 0 0 0 0 0 127 0" result="hardAlpha"/>
<feOffset/>
<feGaussianBlur stdDeviation="8.5"/>
<feColorMatrix type="matrix" values="0 0 0 0 0.181589 0 0 0 0 0.266489 0 0 0 0 0.345212 0 0 0 0.3 0"/>
<feBlend mode="normal" in2="BackgroundImageFix" result="effect1_dropShadow_1_489"/>
<feBlend mode="normal" in="SourceGraphic" in2="effect1_dropShadow_1_489" result="shape"/>
</filter>
<filter id="filter6_d_1_489" x="760.944" y="308.901" width="76.1127" height="88.7887" filterUnits="userSpaceOnUse" color-interpolation-filters="sRGB">
<feFlood flood-opacity="0" result="BackgroundImageFix"/>
<feColorMatrix in="SourceAlpha" type="matrix" values="0 0 0 0 0 0 0 0 0 0 0 0 0 0 0 0 0 0 127 0" result="hardAlpha"/>
<feOffset dy="3"/>
<feGaussianBlur stdDeviation="6"/>
<feColorMatrix type="matrix" values="0 0 0 0 0.180392 0 0 0 0 0.266667 0 0 0 0 0.345098 0 0 0 0.1 0"/>
<feBlend mode="normal" in2="BackgroundImageFix" result="effect1_dropShadow_1_489"/>
<feBlend mode="normal" in="SourceGraphic" in2="effect1_dropShadow_1_489" result="shape"/>
</filter>
<filter id="filter7_d_1_489" x="792.563" y="300.901" width="49.493" height="49.493" filterUnits="userSpaceOnUse" color-interpolation-filters="sRGB">
<feFlood flood-opacity="0" result="BackgroundImageFix"/>
<feColorMatrix in="SourceAlpha" type="matrix" values="0 0 0 0 0 0 0 0 0 0 0 0 0 0 0 0 0 0 127 0" result="hardAlpha"/>
<feOffset/>
<feGaussianBlur stdDeviation="8.5"/>
<feColorMatrix type="matrix" values="0 0 0 0 0.181589 0 0 0 0 0.266489 0 0 0 0 0.345212 0 0 0 0.3 0"/>
<feBlend mode="normal" in2="BackgroundImageFix" result="effect1_dropShadow_1_489"/>
<feBlend mode="normal" in="SourceGraphic" in2="effect1_dropShadow_1_489" result="shape"/>
</filter>
<filter id="filter8_d_1_489" x="454.944" y="491.901" width="76.1127" height="88.7887" filterUnits="userSpaceOnUse" color-interpolation-filters="sRGB">
<feFlood flood-opacity="0" result="BackgroundImageFix"/>
<feColorMatrix in="SourceAlpha" type="matrix" values="0 0 0 0 0 0 0 0 0 0 0 0 0 0 0 0 0 0 127 0" result="hardAlpha"/>
<feOffset dy="3"/>
<feGaussianBlur stdDeviation="6"/>
<feColorMatrix type="matrix" values="0 0 0 0 0.180392 0 0 0 0 0.266667 0 0 0 0 0.345098 0 0 0 0.1 0"/>
<feBlend mode="normal" in2="BackgroundImageFix" result="effect1_dropShadow_1_489"/>
<feBlend mode="normal" in="SourceGraphic" in2="effect1_dropShadow_1_489" result="shape"/>
</filter>
<filter id="filter9_d_1_489" x="486.563" y="483.901" width="49.493" height="49.493" filterUnits="userSpaceOnUse" color-interpolation-filters="sRGB">
<feFlood flood-opacity="0" result="BackgroundImageFix"/>
<feColorMatrix in="SourceAlpha" type="matrix" values="0 0 0 0 0 0 0 0 0 0 0 0 0 0 0 0 0 0 127 0" result="hardAlpha"/>
<feOffset/>
<feGaussianBlur stdDeviation="8.5"/>
<feColorMatrix type="matrix" values="0 0 0 0 0.181589 0 0 0 0 0.266489 0 0 0 0 0.345212 0 0 0 0.3 0"/>
<feBlend mode="normal" in2="BackgroundImageFix" result="effect1_dropShadow_1_489"/>
<feBlend mode="normal" in="SourceGraphic" in2="effect1_dropShadow_1_489" result="shape"/>
</filter>
<filter id="filter10_d_1_489" x="607.944" y="491.901" width="76.1127" height="88.7887" filterUnits="userSpaceOnUse" color-interpolation-filters="sRGB">
<feFlood flood-opacity="0" result="BackgroundImageFix"/>
<feColorMatrix in="SourceAlpha" type="matrix" values="0 0 0 0 0 0 0 0 0 0 0 0 0 0 0 0 0 0 127 0" result="hardAlpha"/>
<feOffset dy="3"/>
<feGaussianBlur stdDeviation="6"/>
<feColorMatrix type="matrix" values="0 0 0 0 0.180392 0 0 0 0 0.266667 0 0 0 0 0.345098 0 0 0 0.1 0"/>
<feBlend mode="normal" in2="BackgroundImageFix" result="effect1_dropShadow_1_489"/>
<feBlend mode="normal" in="SourceGraphic" in2="effect1_dropShadow_1_489" result="shape"/>
</filter>
<filter id="filter11_d_1_489" x="639.563" y="483.901" width="49.493" height="49.493" filterUnits="userSpaceOnUse" color-interpolation-filters="sRGB">
<feFlood flood-opacity="0" result="BackgroundImageFix"/>
<feColorMatrix in="SourceAlpha" type="matrix" values="0 0 0 0 0 0 0 0 0 0 0 0 0 0 0 0 0 0 127 0" result="hardAlpha"/>
<feOffset/>
<feGaussianBlur stdDeviation="8.5"/>
<feColorMatrix type="matrix" values="0 0 0 0 0.181589 0 0 0 0 0.266489 0 0 0 0 0.345212 0 0 0 0.3 0"/>
<feBlend mode="normal" in2="BackgroundImageFix" result="effect1_dropShadow_1_489"/>
<feBlend mode="normal" in="SourceGraphic" in2="effect1_dropShadow_1_489" result="shape"/>
</filter>
<filter id="filter12_d_1_489" x="913.944" y="491.901" width="76.1127" height="88.7887" filterUnits="userSpaceOnUse" color-interpolation-filters="sRGB">
<feFlood flood-opacity="0" result="BackgroundImageFix"/>
<feColorMatrix in="SourceAlpha" type="matrix" values="0 0 0 0 0 0 0 0 0 0 0 0 0 0 0 0 0 0 127 0" result="hardAlpha"/>
<feOffset dy="3"/>
<feGaussianBlur stdDeviation="6"/>
<feColorMatrix type="matrix" values="0 0 0 0 0.180392 0 0 0 0 0.266667 0 0 0 0 0.345098 0 0 0 0.1 0"/>
<feBlend mode="normal" in2="BackgroundImageFix" result="effect1_dropShadow_1_489"/>
<feBlend mode="normal" in="SourceGraphic" in2="effect1_dropShadow_1_489" result="shape"/>
</filter>
<filter id="filter13_d_1_489" x="945.563" y="483.901" width="49.493" height="49.493" filterUnits="userSpaceOnUse" color-interpolation-filters="sRGB">
<feFlood flood-opacity="0" result="BackgroundImageFix"/>
<feColorMatrix in="SourceAlpha" type="matrix" values="0 0 0 0 0 0 0 0 0 0 0 0 0 0 0 0 0 0 127 0" result="hardAlpha"/>
<feOffset/>
<feGaussianBlur stdDeviation="8.5"/>
<feColorMatrix type="matrix" values="0 0 0 0 0.181589 0 0 0 0 0.266489 0 0 0 0 0.345212 0 0 0 0.3 0"/>
<feBlend mode="normal" in2="BackgroundImageFix" result="effect1_dropShadow_1_489"/>
<feBlend mode="normal" in="SourceGraphic" in2="effect1_dropShadow_1_489" result="shape"/>
</filter>
<filter id="filter14_d_1_489" x="1066.94" y="491.901" width="76.1127" height="88.7887" filterUnits="userSpaceOnUse" color-interpolation-filters="sRGB">
<feFlood flood-opacity="0" result="BackgroundImageFix"/>
<feColorMatrix in="SourceAlpha" type="matrix" values="0 0 0 0 0 0 0 0 0 0 0 0 0 0 0 0 0 0 127 0" result="hardAlpha"/>
<feOffset dy="3"/>
<feGaussianBlur stdDeviation="6"/>
<feColorMatrix type="matrix" values="0 0 0 0 0.180392 0 0 0 0 0.266667 0 0 0 0 0.345098 0 0 0 0.1 0"/>
<feBlend mode="normal" in2="BackgroundImageFix" result="effect1_dropShadow_1_489"/>
<feBlend mode="normal" in="SourceGraphic" in2="effect1_dropShadow_1_489" result="shape"/>
</filter>
<filter id="filter15_d_1_489" x="1098.56" y="483.901" width="49.493" height="49.493" filterUnits="userSpaceOnUse" color-interpolation-filters="sRGB">
<feFlood flood-opacity="0" result="BackgroundImageFix"/>
<feColorMatrix in="SourceAlpha" type="matrix" values="0 0 0 0 0 0 0 0 0 0 0 0 0 0 0 0 0 0 127 0" result="hardAlpha"/>
<feOffset/>
<feGaussianBlur stdDeviation="8.5"/>
<feColorMatrix type="matrix" values="0 0 0 0 0.181589 0 0 0 0 0.266489 0 0 0 0 0.345212 0 0 0 0.3 0"/>
<feBlend mode="normal" in2="BackgroundImageFix" result="effect1_dropShadow_1_489"/>
<feBlend mode="normal" in="SourceGraphic" in2="effect1_dropShadow_1_489" result="shape"/>
</filter>
<linearGradient id="paint0_linear_1_489" x1="701.466" y1="170.822" x2="799.822" y2="269.178" gradientUnits="userSpaceOnUse">
<stop stop-color="#85A6CF"/>
<stop offset="1" stop-color="#588EAC"/>
</linearGradient>
<linearGradient id="paint1_linear_1_489" x1="851.113" y1="169.296" x2="787.83" y2="118.394" gradientUnits="userSpaceOnUse">
<stop stop-color="#D4F2FF"/>
<stop offset="1" stop-color="white"/>
</linearGradient>
<linearGradient id="paint2_linear_1_489" x1="758.155" y1="184.789" x2="763.932" y2="205.73" gradientUnits="userSpaceOnUse">
<stop stop-color="#90ABC3"/>
<stop offset="1" stop-color="#90ABC3"/>
</linearGradient>
<linearGradient id="paint3_linear_1_489" x1="758.155" y1="167.887" x2="763.932" y2="188.829" gradientUnits="userSpaceOnUse">
<stop stop-color="#90ABC3"/>
<stop offset="1" stop-color="#90ABC3"/>
</linearGradient>
<linearGradient id="paint4_linear_1_489" x1="548.466" y1="351.822" x2="646.822" y2="450.178" gradientUnits="userSpaceOnUse">
<stop stop-color="#85A6CF"/>
<stop offset="1" stop-color="#588EAC"/>
</linearGradient>
<linearGradient id="paint5_linear_1_489" x1="698.113" y1="350.296" x2="634.83" y2="299.394" gradientUnits="userSpaceOnUse">
<stop stop-color="#D4F2FF"/>
<stop offset="1" stop-color="white"/>
</linearGradient>
<linearGradient id="paint6_linear_1_489" x1="605.155" y1="365.789" x2="610.932" y2="386.73" gradientUnits="userSpaceOnUse">
<stop stop-color="#90ABC3"/>
<stop offset="1" stop-color="#90ABC3"/>
</linearGradient>
<linearGradient id="paint7_linear_1_489" x1="605.155" y1="348.887" x2="610.932" y2="369.829" gradientUnits="userSpaceOnUse">
<stop stop-color="#90ABC3"/>
<stop offset="1" stop-color="#90ABC3"/>
</linearGradient>
<linearGradient id="paint8_linear_1_489" x1="854.466" y1="351.822" x2="952.822" y2="450.178" gradientUnits="userSpaceOnUse">
<stop stop-color="#85A6CF"/>
<stop offset="1" stop-color="#588EAC"/>
</linearGradient>
<linearGradient id="paint9_linear_1_489" x1="1004.11" y1="350.296" x2="940.83" y2="299.394" gradientUnits="userSpaceOnUse">
<stop stop-color="#D4F2FF"/>
<stop offset="1" stop-color="white"/>
</linearGradient>
<linearGradient id="paint10_linear_1_489" x1="911.155" y1="365.789" x2="916.932" y2="386.73" gradientUnits="userSpaceOnUse">
<stop stop-color="#90ABC3"/>
<stop offset="1" stop-color="#90ABC3"/>
</linearGradient>
<linearGradient id="paint11_linear_1_489" x1="911.155" y1="348.887" x2="916.932" y2="369.829" gradientUnits="userSpaceOnUse">
<stop stop-color="#90ABC3"/>
<stop offset="1" stop-color="#90ABC3"/>
</linearGradient>
<linearGradient id="paint12_linear_1_489" x1="701.466" y1="351.822" x2="799.822" y2="450.178" gradientUnits="userSpaceOnUse">
<stop stop-color="#85A6CF"/>
<stop offset="1" stop-color="#588EAC"/>
</linearGradient>
<linearGradient id="paint13_linear_1_489" x1="851.113" y1="350.296" x2="787.83" y2="299.394" gradientUnits="userSpaceOnUse">
<stop stop-color="#D4F2FF"/>
<stop offset="1" stop-color="white"/>
</linearGradient>
<linearGradient id="paint14_linear_1_489" x1="758.155" y1="365.789" x2="763.932" y2="386.73" gradientUnits="userSpaceOnUse">
<stop stop-color="#90ABC3"/>
<stop offset="1" stop-color="#90ABC3"/>
</linearGradient>
<linearGradient id="paint15_linear_1_489" x1="758.155" y1="348.887" x2="763.932" y2="369.829" gradientUnits="userSpaceOnUse">
<stop stop-color="#90ABC3"/>
<stop offset="1" stop-color="#90ABC3"/>
</linearGradient>
<linearGradient id="paint16_linear_1_489" x1="395.466" y1="534.822" x2="493.822" y2="633.178" gradientUnits="userSpaceOnUse">
<stop stop-color="#85A6CF"/>
<stop offset="1" stop-color="#588EAC"/>
</linearGradient>
<linearGradient id="paint17_linear_1_489" x1="545.113" y1="533.296" x2="481.83" y2="482.394" gradientUnits="userSpaceOnUse">
<stop stop-color="#D4F2FF"/>
<stop offset="1" stop-color="white"/>
</linearGradient>
<linearGradient id="paint18_linear_1_489" x1="452.155" y1="548.789" x2="457.932" y2="569.73" gradientUnits="userSpaceOnUse">
<stop stop-color="#90ABC3"/>
<stop offset="1" stop-color="#90ABC3"/>
</linearGradient>
<linearGradient id="paint19_linear_1_489" x1="452.155" y1="531.887" x2="457.932" y2="552.829" gradientUnits="userSpaceOnUse">
<stop stop-color="#90ABC3"/>
<stop offset="1" stop-color="#90ABC3"/>
</linearGradient>
<linearGradient id="paint20_linear_1_489" x1="548.466" y1="534.822" x2="646.822" y2="633.178" gradientUnits="userSpaceOnUse">
<stop stop-color="#85A6CF"/>
<stop offset="1" stop-color="#588EAC"/>
</linearGradient>
<linearGradient id="paint21_linear_1_489" x1="698.113" y1="533.296" x2="634.83" y2="482.394" gradientUnits="userSpaceOnUse">
<stop stop-color="#D4F2FF"/>
<stop offset="1" stop-color="white"/>
</linearGradient>
<linearGradient id="paint22_linear_1_489" x1="605.155" y1="548.789" x2="610.932" y2="569.73" gradientUnits="userSpaceOnUse">
<stop stop-color="#90ABC3"/>
<stop offset="1" stop-color="#90ABC3"/>
</linearGradient>
<linearGradient id="paint23_linear_1_489" x1="605.155" y1="531.887" x2="610.932" y2="552.829" gradientUnits="userSpaceOnUse">
<stop stop-color="#90ABC3"/>
<stop offset="1" stop-color="#90ABC3"/>
</linearGradient>
<linearGradient id="paint24_linear_1_489" x1="854.466" y1="534.822" x2="952.822" y2="633.178" gradientUnits="userSpaceOnUse">
<stop stop-color="#85A6CF"/>
<stop offset="1" stop-color="#588EAC"/>
</linearGradient>
<linearGradient id="paint25_linear_1_489" x1="1004.11" y1="533.296" x2="940.83" y2="482.394" gradientUnits="userSpaceOnUse">
<stop stop-color="#D4F2FF"/>
<stop offset="1" stop-color="white"/>
</linearGradient>
<linearGradient id="paint26_linear_1_489" x1="911.155" y1="548.789" x2="916.932" y2="569.73" gradientUnits="userSpaceOnUse">
<stop stop-color="#90ABC3"/>
<stop offset="1" stop-color="#90ABC3"/>
</linearGradient>
<linearGradient id="paint27_linear_1_489" x1="911.155" y1="531.887" x2="916.932" y2="552.829" gradientUnits="userSpaceOnUse">
<stop stop-color="#90ABC3"/>
<stop offset="1" stop-color="#90ABC3"/>
</linearGradient>
<linearGradient id="paint28_linear_1_489" x1="1007.47" y1="534.822" x2="1105.82" y2="633.178" gradientUnits="userSpaceOnUse">
<stop stop-color="#85A6CF"/>
<stop offset="1" stop-color="#588EAC"/>
</linearGradient>
<linearGradient id="paint29_linear_1_489" x1="1157.11" y1="533.296" x2="1093.83" y2="482.394" gradientUnits="userSpaceOnUse">
<stop stop-color="#D4F2FF"/>
<stop offset="1" stop-color="white"/>
</linearGradient>
<linearGradient id="paint30_linear_1_489" x1="1064.15" y1="548.789" x2="1069.93" y2="569.73" gradientUnits="userSpaceOnUse">
<stop stop-color="#90ABC3"/>
<stop offset="1" stop-color="#90ABC3"/>
</linearGradient>
<linearGradient id="paint31_linear_1_489" x1="1064.15" y1="531.887" x2="1069.93" y2="552.829" gradientUnits="userSpaceOnUse">
<stop stop-color="#90ABC3"/>
<stop offset="1" stop-color="#90ABC3"/>
</linearGradient>
</defs>
</svg>
