<svg width="140" height="41" viewBox="0 0 140 41" fill="none" xmlns="http://www.w3.org/2000/svg">
<path d="M139.222 35.7797C139.222 37.9351 137.44 39.6809 135.236 39.6809H4.76972C2.56633 39.6809 0.777832 37.9351 0.777832 35.7797V4.66898C0.777832 2.51467 2.56633 0.762695 4.76972 0.762695H135.235C137.44 0.762695 139.221 2.51467 139.221 4.66898L139.222 35.7797Z" fill="white"/>
<path d="M134.815 0.810044C137.216 0.810044 139.169 2.71473 139.169 5.05545V35.3888C139.169 37.7295 137.216 39.6342 134.815 39.6342H5.18518C2.78444 39.6342 0.830926 37.7295 0.830926 35.3888V5.05545C0.830926 2.71473 2.78444 0.810044 5.18518 0.810044H134.815ZM134.815 -0.000106894H5.18518C2.33463 -0.000106894 0 2.27616 0 5.05545V35.3888C0 38.1681 2.33463 40.4443 5.18518 40.4443H134.815C137.665 40.4443 140 38.1681 140 35.3888V5.05545C140 2.27616 137.665 -0.000106894 134.815 -0.000106894Z" fill="#A6A6A6"/>
<path d="M31.2438 20.0039C31.2137 16.7451 33.9805 15.1596 34.1071 15.0858C32.5401 12.8584 30.1114 12.554 29.2579 12.5297C27.218 12.3204 25.2394 13.7198 24.2002 13.7198C23.1404 13.7198 21.5402 12.55 19.8157 12.5843C17.5964 12.6177 15.5202 13.8705 14.3816 15.8159C12.0316 19.7824 13.7842 25.6115 16.0357 28.8177C17.1619 30.388 18.4779 32.1413 20.2004 32.0796C21.8856 32.0118 22.5151 31.0321 24.5487 31.0321C26.5637 31.0321 27.1548 32.0796 28.9115 32.0401C30.7201 32.0118 31.8588 30.4628 32.9456 28.8784C34.2471 27.0786 34.7697 25.3061 34.7905 25.2151C34.7479 25.201 31.278 23.9098 31.2438 20.0039Z" fill="black"/>
<path d="M27.9253 10.4206C28.8317 9.31542 29.4518 7.8119 29.2797 6.28613C27.9678 6.34276 26.3272 7.17086 25.3825 8.25173C24.5466 9.2042 23.7999 10.7654 23.9928 12.2335C25.4665 12.3407 26.9795 11.5085 27.9253 10.4206Z" fill="black"/>
<path d="M50.8667 10.12C50.8667 11.3101 50.5007 12.2059 49.7696 12.8076C49.0924 13.3627 48.13 13.6407 46.8835 13.6407C46.2654 13.6407 45.7365 13.6144 45.2937 13.5618V7.05939C45.8713 6.96839 46.4936 6.92188 47.1656 6.92188C48.353 6.92188 49.2479 7.17364 49.8515 7.67717C50.5276 8.24643 50.8667 9.06037 50.8667 10.12ZM49.7208 10.1493C49.7208 9.37786 49.5113 8.78636 49.0924 8.37383C48.6734 7.96231 48.0616 7.75604 47.2558 7.75604C46.9136 7.75604 46.6221 7.77829 46.3805 7.8248V12.7681C46.5143 12.7883 46.759 12.7974 47.1147 12.7974C47.9464 12.7974 48.5884 12.572 49.0405 12.121C49.4927 11.6701 49.7208 11.0128 49.7208 10.1493Z" fill="black"/>
<path d="M56.9428 11.1596C56.9428 11.8926 56.7281 12.4932 56.2988 12.9644C55.8487 13.4487 55.2524 13.6904 54.5078 13.6904C53.7902 13.6904 53.2188 13.4588 52.7926 12.9937C52.3674 12.5296 52.1548 11.9442 52.1548 11.2384C52.1548 10.5003 52.3736 9.89467 52.8133 9.42451C53.253 8.95434 53.8441 8.71875 54.5887 8.71875C55.3063 8.71875 55.8829 8.95029 56.3195 9.41439C56.7343 9.86535 56.9428 10.4477 56.9428 11.1596ZM55.8155 11.1939C55.8155 10.7541 55.718 10.377 55.5241 10.0625C55.296 9.68234 54.9714 9.49225 54.5493 9.49225C54.1127 9.49225 53.7809 9.68234 53.5527 10.0625C53.3577 10.377 53.2613 10.7602 53.2613 11.2132C53.2613 11.653 53.3588 12.0301 53.5527 12.3446C53.7881 12.7248 54.1158 12.9149 54.5389 12.9149C54.9538 12.9149 55.2794 12.7217 55.5137 12.3345C55.7149 12.014 55.8155 11.6338 55.8155 11.1939Z" fill="black"/>
<path d="M65.0898 8.81641L63.5602 13.5828H62.5646L61.931 11.513C61.7702 10.9964 61.6396 10.4827 61.5379 9.97312H61.5182C61.4239 10.4969 61.2932 11.0095 61.1252 11.513L60.4522 13.5828H59.4452L58.0068 8.81641H59.1237L59.6765 11.0823C59.8102 11.6182 59.9202 12.1288 60.0083 12.6121H60.028C60.1089 12.2137 60.2427 11.7062 60.4314 11.0924L61.1252 8.81742H62.0108L62.6756 11.0439C62.8363 11.5869 62.967 12.1096 63.0676 12.6131H63.0976C63.1713 12.1227 63.2822 11.6 63.4295 11.0439L64.0227 8.81742H65.0898V8.81641Z" fill="black"/>
<path d="M70.724 13.5823H69.6372V10.8523C69.6372 10.0111 69.3095 9.59043 68.652 9.59043C68.3295 9.59043 68.0692 9.7057 67.867 9.93724C67.6668 10.1688 67.5652 10.4418 67.5652 10.7542V13.5813H66.4784V10.1779C66.4784 9.75929 66.4649 9.3053 66.439 8.8139H67.3941L67.4449 9.55909H67.475C67.6015 9.32754 67.7902 9.13644 68.0381 8.98377C68.3326 8.80581 68.6624 8.71582 69.0233 8.71582C69.4795 8.71582 69.8591 8.8594 70.1609 9.14756C70.5363 9.50044 70.724 10.0272 70.724 10.7269V13.5823V13.5823Z" fill="black"/>
<path d="M73.721 13.5823H72.6353V6.62891H73.721V13.5823Z" fill="black"/>
<path d="M80.1195 11.1596C80.1195 11.8926 79.9049 12.4932 79.4755 12.9644C79.0255 13.4487 78.4281 13.6904 77.6846 13.6904C76.9659 13.6904 76.3945 13.4588 75.9693 12.9937C75.5441 12.5296 75.3315 11.9442 75.3315 11.2384C75.3315 10.5003 75.5504 9.89467 75.9901 9.42451C76.4298 8.95434 77.0209 8.71875 77.7644 8.71875C78.4831 8.71875 79.0587 8.95029 79.4963 9.41439C79.9111 9.86535 80.1195 10.4477 80.1195 11.1596ZM78.9912 11.1939C78.9912 10.7541 78.8938 10.377 78.6998 10.0625C78.4727 9.68234 78.1471 9.49225 77.7261 9.49225C77.2884 9.49225 76.9566 9.68234 76.7295 10.0625C76.5345 10.377 76.4381 10.7602 76.4381 11.2132C76.4381 11.653 76.5355 12.0301 76.7295 12.3446C76.9649 12.7248 77.2926 12.9149 77.7157 12.9149C78.1305 12.9149 78.4551 12.7217 78.6895 12.3345C78.8917 12.014 78.9912 11.6338 78.9912 11.1939Z" fill="black"/>
<path d="M85.3793 13.5822H84.4034L84.3226 13.0332H84.2925C83.9586 13.471 83.4826 13.6904 82.8645 13.6904C82.403 13.6904 82.0297 13.5458 81.7486 13.2586C81.4935 12.9978 81.366 12.6732 81.366 12.288C81.366 11.7056 81.6149 11.2617 82.1157 10.9543C82.6156 10.6469 83.3187 10.4963 84.224 10.5034V10.4144C84.224 9.78648 83.886 9.47304 83.2088 9.47304C82.7266 9.47304 82.3014 9.59134 81.9343 9.82592L81.7134 9.13027C82.1676 8.85626 82.7286 8.71875 83.3903 8.71875C84.6679 8.71875 85.3088 9.37597 85.3088 10.6904V12.4457C85.3088 12.9219 85.3326 13.3011 85.3793 13.5822ZM84.251 11.9442V11.2091C83.0522 11.1889 82.4528 11.5094 82.4528 12.1697C82.4528 12.4184 82.5212 12.6044 82.6612 12.7288C82.8012 12.8532 82.9796 12.9149 83.1922 12.9149C83.4307 12.9149 83.6537 12.841 83.8569 12.6944C84.0612 12.5468 84.1867 12.3598 84.2334 12.1302C84.2448 12.0787 84.251 12.016 84.251 11.9442Z" fill="black"/>
<path d="M91.5548 13.5823H90.5904L90.5396 12.8169H90.5095C90.2015 13.3993 89.6768 13.6905 88.9394 13.6905C88.3504 13.6905 87.8599 13.465 87.471 13.0141C87.0821 12.5631 86.8882 11.9777 86.8882 11.2588C86.8882 10.4873 87.0987 9.86244 87.5218 9.38519C87.9314 8.94031 88.4334 8.71786 89.0307 8.71786C89.6871 8.71786 90.1465 8.93323 90.4079 9.36497H90.4286V6.62891H91.5165V12.2982C91.5165 12.7623 91.5289 13.19 91.5548 13.5823ZM90.4286 11.5722V10.7775C90.4286 10.64 90.4182 10.5288 90.3985 10.4438C90.3374 10.189 90.2057 9.97467 90.0055 9.80177C89.8033 9.62887 89.5596 9.54192 89.2785 9.54192C88.8731 9.54192 88.5557 9.69864 88.3224 10.0131C88.0911 10.3276 87.974 10.729 87.974 11.2194C87.974 11.6905 88.0849 12.0727 88.3079 12.367C88.5433 12.6804 88.8606 12.8371 89.2578 12.8371C89.6145 12.8371 89.8997 12.7067 90.1165 12.4448C90.326 12.2032 90.4286 11.912 90.4286 11.5722Z" fill="black"/>
<path d="M100.85 11.1596C100.85 11.8926 100.635 12.4932 100.206 12.9644C99.7557 13.4487 99.1604 13.6904 98.4148 13.6904C97.6982 13.6904 97.1268 13.4588 96.6996 12.9937C96.2744 12.5296 96.0618 11.9442 96.0618 11.2384C96.0618 10.5003 96.2806 9.89467 96.7203 9.42451C97.16 8.95434 97.7511 8.71875 98.4967 8.71875C99.2133 8.71875 99.791 8.95029 100.227 9.41439C100.641 9.86535 100.85 10.4477 100.85 11.1596ZM99.7235 11.1939C99.7235 10.7541 99.6261 10.377 99.4321 10.0625C99.2029 9.68234 98.8794 9.49225 98.4563 9.49225C98.0207 9.49225 97.6889 9.68234 97.4597 10.0625C97.2647 10.377 97.1683 10.7602 97.1683 11.2132C97.1683 11.653 97.2658 12.0301 97.4597 12.3446C97.6951 12.7248 98.0228 12.9149 98.4459 12.9149C98.8607 12.9149 99.1874 12.7217 99.4218 12.3345C99.6219 12.014 99.7235 11.6338 99.7235 11.1939Z" fill="black"/>
<path d="M106.694 13.5823H105.608V10.8523C105.608 10.0111 105.28 9.59043 104.622 9.59043C104.299 9.59043 104.039 9.7057 103.838 9.93724C103.636 10.1688 103.536 10.4418 103.536 10.7542V13.5813H102.448V10.1779C102.448 9.75929 102.436 9.3053 102.41 8.8139H103.364L103.415 9.55909H103.445C103.572 9.32754 103.761 9.13644 104.008 8.98377C104.303 8.80581 104.632 8.71582 104.994 8.71582C105.449 8.71582 105.829 8.8594 106.131 9.14756C106.507 9.50044 106.694 10.0272 106.694 10.7269V13.5823V13.5823Z" fill="black"/>
<path d="M114.008 9.60967H112.811V11.9251C112.811 12.5136 113.024 12.8078 113.445 12.8078C113.64 12.8078 113.801 12.7916 113.929 12.7583L113.957 13.5621C113.742 13.641 113.46 13.6804 113.113 13.6804C112.684 13.6804 112.35 13.553 112.108 13.2982C111.865 13.0434 111.745 12.6147 111.745 12.0131V9.60967H111.031V8.81595H111.745V7.94235L112.81 7.62891V8.81494H114.007V9.60967H114.008Z" fill="black"/>
<path d="M119.761 13.5823H118.673V10.8725C118.673 10.0182 118.346 9.59045 117.689 9.59045C117.185 9.59045 116.841 9.83817 116.652 10.3336C116.62 10.4378 116.601 10.5652 116.601 10.7148V13.5813H115.516V6.62891H116.601V9.50147H116.622C116.964 8.97873 117.455 8.71786 118.091 8.71786C118.541 8.71786 118.913 8.86144 119.209 9.14961C119.577 9.50855 119.761 10.0424 119.761 10.7482V13.5823V13.5823Z" fill="black"/>
<path d="M125.696 10.9738C125.696 11.1639 125.682 11.3237 125.656 11.4541H122.396C122.411 11.9253 122.567 12.2842 122.868 12.533C123.144 12.7554 123.5 12.8666 123.935 12.8666C124.418 12.8666 124.857 12.7918 125.254 12.6412L125.424 13.3772C124.96 13.5734 124.415 13.6715 123.783 13.6715C123.026 13.6715 122.43 13.4541 121.998 13.0193C121.565 12.5845 121.35 12.0011 121.35 11.2691C121.35 10.5502 121.55 9.9516 121.954 9.47436C122.375 8.96476 122.944 8.70996 123.663 8.70996C124.366 8.70996 124.9 8.96476 125.261 9.47436C125.552 9.8788 125.696 10.3793 125.696 10.9738ZM124.659 10.6998C124.668 10.3854 124.596 10.1144 124.449 9.88588C124.26 9.59165 123.973 9.44403 123.584 9.44403C123.229 9.44403 122.94 9.58761 122.719 9.87577C122.539 10.1053 122.432 10.3793 122.396 10.6998H124.659Z" fill="black"/>
<path d="M55.6318 31.8543H53.2767L51.9866 27.9019H47.5025L46.2736 31.8543H43.9807L48.4234 18.3984H51.1674L55.6318 31.8543ZM51.5977 26.2436L50.4311 22.73C50.3077 22.3711 50.0764 21.5258 49.7352 20.1952H49.6937C49.5579 20.7675 49.3391 21.6128 49.0383 22.73L47.8924 26.2436H51.5977V26.2436Z" fill="black"/>
<path d="M67.0569 26.8833C67.0569 28.5335 66.5996 29.8378 65.6849 30.7953C64.8656 31.6477 63.8483 32.0734 62.6339 32.0734C61.3231 32.0734 60.3815 31.6143 59.808 30.6962H59.7665V35.8074H57.5556V25.3454C57.5556 24.308 57.5276 23.2433 57.4736 22.1513H59.4181L59.5415 23.6892H59.583C60.3203 22.5305 61.4393 21.9521 62.9409 21.9521C64.1148 21.9521 65.0948 22.4041 65.8788 23.3091C66.6649 24.215 67.0569 25.4061 67.0569 26.8833ZM64.8044 26.9622C64.8044 26.0178 64.5867 25.2393 64.149 24.6265C63.671 23.9875 63.029 23.668 62.2243 23.668C61.6788 23.668 61.1831 23.846 60.7403 24.1968C60.2964 24.5507 60.0061 25.0128 59.8702 25.5851C59.8018 25.852 59.7676 26.0704 59.7676 26.2423V27.8601C59.7676 28.5658 59.9895 29.1614 60.4333 29.6477C60.8772 30.1341 61.4538 30.3767 62.1631 30.3767C62.9959 30.3767 63.644 30.0633 64.1076 29.4384C64.5722 28.8125 64.8044 27.9875 64.8044 26.9622Z" fill="black"/>
<path d="M78.5026 26.8833C78.5026 28.5335 78.0453 29.8378 77.1296 30.7953C76.3114 31.6477 75.294 32.0734 74.0797 32.0734C72.7689 32.0734 71.8272 31.6143 71.2548 30.6962H71.2133V35.8074H69.0023V25.3454C69.0023 24.308 68.9743 23.2433 68.9204 22.1513H70.8649L70.9883 23.6892H71.0297C71.766 22.5305 72.885 21.9521 74.3877 21.9521C75.5606 21.9521 76.5406 22.4041 77.3266 23.3091C78.1096 24.215 78.5026 25.4061 78.5026 26.8833ZM76.2502 26.9622C76.2502 26.0178 76.0314 25.2393 75.5937 24.6265C75.1157 23.9875 74.4758 23.668 73.67 23.668C73.1235 23.668 72.6289 23.846 72.185 24.1968C71.7412 24.5507 71.4518 25.0128 71.316 25.5851C71.2486 25.852 71.2133 26.0704 71.2133 26.2423V27.8601C71.2133 28.5658 71.4352 29.1614 71.877 29.6477C72.3209 30.133 72.8975 30.3767 73.6089 30.3767C74.4416 30.3767 75.0897 30.0633 75.5533 29.4384C76.0179 28.8125 76.2502 27.9875 76.2502 26.9622Z" fill="black"/>
<path d="M91.2996 28.0807C91.2996 29.2253 90.892 30.1566 90.0738 30.8755C89.1747 31.6611 87.923 32.0534 86.3145 32.0534C84.8295 32.0534 83.639 31.7743 82.7378 31.2152L83.2501 29.4184C84.2208 29.9907 85.2858 30.2779 86.4462 30.2779C87.279 30.2779 87.9271 30.0939 88.3928 29.7278C88.8563 29.3618 89.0876 28.8704 89.0876 28.2577C89.0876 27.7117 88.8968 27.2516 88.5141 26.8785C88.1335 26.5054 87.4978 26.1586 86.6101 25.8381C84.1938 24.9594 82.9867 23.6723 82.9867 21.9797C82.9867 20.8735 83.4098 19.9666 84.2571 19.2608C85.1012 18.5541 86.2274 18.2012 87.6357 18.2012C88.8916 18.2012 89.9348 18.4145 90.7676 18.8402L90.2148 20.5975C89.437 20.185 88.5576 19.9787 87.5735 19.9787C86.7957 19.9787 86.188 20.1658 85.7525 20.5379C85.3843 20.8705 85.1997 21.276 85.1997 21.7562C85.1997 22.2881 85.4102 22.7279 85.8333 23.0737C86.2015 23.3932 86.8704 23.739 87.8411 24.1121C89.0285 24.5783 89.9006 25.1232 90.4616 25.7481C91.0206 26.371 91.2996 27.1505 91.2996 28.0807Z" fill="black"/>
<path d="M98.6098 23.7687H96.1727V28.4795C96.1727 29.6777 96.6021 30.2763 97.4628 30.2763C97.8579 30.2763 98.1856 30.2429 98.4449 30.1762L98.5061 31.8131C98.0705 31.9719 97.497 32.0518 96.7866 32.0518C95.9135 32.0518 95.2311 31.7919 94.7385 31.2732C94.248 30.7535 94.0012 29.8819 94.0012 28.6575V23.7667H92.5493V22.1489H94.0012V20.3724L96.1727 19.7334V22.1489H98.6098V23.7687Z" fill="black"/>
<path d="M109.606 26.9227C109.606 28.4141 109.168 29.6386 108.295 30.5961C107.379 31.5819 106.164 32.0733 104.648 32.0733C103.188 32.0733 102.026 31.6011 101.159 30.6568C100.292 29.7124 99.8584 28.5203 99.8584 27.0835C99.8584 25.58 100.304 24.3484 101.199 23.3909C102.092 22.4324 103.297 21.9531 104.812 21.9531C106.272 21.9531 107.447 22.4253 108.334 23.3707C109.182 24.2878 109.606 25.4718 109.606 26.9227ZM107.312 26.9925C107.312 26.0977 107.116 25.3302 106.718 24.6902C106.255 23.9157 105.592 23.5294 104.734 23.5294C103.845 23.5294 103.17 23.9167 102.706 24.6902C102.309 25.3312 102.113 26.1108 102.113 27.0329C102.113 27.9278 102.309 28.6952 102.706 29.3342C103.184 30.1087 103.852 30.495 104.714 30.495C105.558 30.495 106.221 30.1007 106.699 29.314C107.106 28.6618 107.312 27.8863 107.312 26.9925Z" fill="black"/>
<path d="M116.792 24.0472C116.573 24.0077 116.34 23.9875 116.095 23.9875C115.318 23.9875 114.716 24.2737 114.293 24.847C113.925 25.3525 113.74 25.9915 113.74 26.763V31.854H111.53L111.551 25.2069C111.551 24.0886 111.523 23.0704 111.468 22.1523H113.394L113.475 24.0087H113.536C113.769 23.3707 114.137 22.8571 114.641 22.4719C115.134 22.125 115.666 21.9521 116.239 21.9521C116.444 21.9521 116.628 21.9663 116.792 21.9916V24.0472Z" fill="black"/>
<path d="M126.68 26.5432C126.68 26.9295 126.654 27.2551 126.599 27.521H119.966C119.992 28.4795 120.313 29.2126 120.929 29.7181C121.488 30.1701 122.211 30.3966 123.098 30.3966C124.08 30.3966 124.976 30.2439 125.782 29.9375L126.129 31.434C125.187 31.8344 124.075 32.0336 122.792 32.0336C121.249 32.0336 120.038 31.5907 119.157 30.706C118.277 29.8213 117.836 28.6332 117.836 27.1428C117.836 25.6798 118.246 24.4614 119.066 23.4897C119.925 22.4523 121.085 21.9336 122.546 21.9336C123.98 21.9336 125.066 22.4523 125.803 23.4897C126.387 24.3137 126.68 25.3329 126.68 26.5432ZM124.572 25.9841C124.586 25.3451 124.442 24.793 124.143 24.3269C123.76 23.7273 123.172 23.428 122.381 23.428C121.658 23.428 121.07 23.7202 120.621 24.3067C120.253 24.7728 120.034 25.3319 119.966 25.9831H124.572V25.9841Z" fill="black"/>
</svg>
