<svg width="18" height="18" viewBox="0 0 18 18" fill="none" xmlns="http://www.w3.org/2000/svg">
<path fill-rule="evenodd" clip-rule="evenodd" d="M0.750001 4.62107V12.181C0.749992 12.7847 0.749985 13.283 0.783147 13.6889C0.817591 14.1104 0.891514 14.498 1.07698 14.862C1.3646 15.4265 1.82354 15.8854 2.38803 16.173C2.75203 16.3585 3.13956 16.4324 3.56113 16.4669C3.96702 16.5 4.46531 16.5 5.06903 16.5H12.931C13.5347 16.5 14.033 16.5 14.4389 16.4669C14.8604 16.4324 15.248 16.3585 15.612 16.173C16.1765 15.8854 16.6354 15.4265 16.923 14.862C17.1085 14.498 17.1824 14.1104 17.2169 13.6889C17.25 13.283 17.25 12.7847 17.25 12.181V8.81901C17.25 8.21529 17.25 7.71702 17.2169 7.31113C17.1824 6.88956 17.1085 6.50203 16.923 6.13803C16.6354 5.57354 16.1765 5.1146 15.612 4.82698C15.248 4.64151 14.8604 4.56759 14.4389 4.53315C14.033 4.49998 13.5347 4.49999 12.931 4.5H10.2135L9.54253 3.15779C9.34397 2.75936 9.16935 2.40897 8.89732 2.14254C8.65906 1.90918 8.37189 1.7317 8.05661 1.62295C7.69665 1.49879 7.30516 1.49931 6.85999 1.4999L3.87109 1.49998C3.47573 1.49996 3.13466 1.49995 2.85373 1.52291C2.55722 1.54713 2.26231 1.60062 1.97852 1.74521C1.55516 1.96093 1.21095 2.30514 0.995238 2.7285C0.850642 3.01228 0.797155 3.3072 0.77293 3.60371C0.749978 3.88462 0.749988 4.22573 0.750001 4.62107ZM8.03033 9.15533C8.32322 8.86244 8.32322 8.38756 8.03033 8.09467C7.73744 7.80178 7.26256 7.80178 6.96967 8.09467L5.09467 9.96967C4.80178 10.2626 4.80178 10.7374 5.09467 11.0303L6.96967 12.9053C7.26256 13.1982 7.73744 13.1982 8.03033 12.9053C8.32322 12.6124 8.32322 12.1376 8.03033 11.8447L6.68566 10.5L8.03033 9.15533ZM11.0303 8.09467C10.7374 7.80178 10.2626 7.80178 9.96967 8.09467C9.67678 8.38756 9.67678 8.86244 9.96967 9.15533L11.3143 10.5L9.96967 11.8447C9.67678 12.1376 9.67678 12.6124 9.96967 12.9053C10.2626 13.1982 10.7374 13.1982 11.0303 12.9053L12.9053 11.0303C13.1982 10.7374 13.1982 10.2626 12.9053 9.96967L11.0303 8.09467Z" fill="url(#paint0_linear_6_9)"/>
<defs>
<linearGradient id="paint0_linear_6_9" x1="9" y1="1.49982" x2="9" y2="16.5" gradientUnits="userSpaceOnUse">
<stop stop-color="#5B22FF"/>
<stop offset="1" stop-color="#2D68FF"/>
</linearGradient>
</defs>
</svg>
