<svg width="22" height="22" viewBox="0 0 22 22" fill="none" xmlns="http://www.w3.org/2000/svg">
<path fill-rule="evenodd" clip-rule="evenodd" d="M17.8385 16H10.1615C9.63433 16 9.17954 16 8.80498 15.9694C8.40963 15.9371 8.01641 15.8658 7.63803 15.673C7.07355 15.3854 6.61461 14.9265 6.32699 14.362C6.13419 13.9836 6.06288 13.5904 6.03057 13.195C5.99997 12.8205 5.99999 12.3657 6 11.8386V4.16146C5.99999 3.63433 5.99997 3.17953 6.03057 2.80497C6.06288 2.40963 6.13419 2.01641 6.32699 1.63803C6.61461 1.07354 7.07355 0.614601 7.63803 0.326981C8.01641 0.134188 8.40963 0.0628708 8.80498 0.0305699C9.17953 -3.16147e-05 9.63425 -1.63564e-05 10.1614 8.09767e-07H17.8385C18.3656 -1.63564e-05 18.8205 -3.16147e-05 19.195 0.0305699C19.5904 0.0628708 19.9836 0.134188 20.362 0.326981C20.9265 0.614601 21.3854 1.07354 21.673 1.63803C21.8658 2.01641 21.9371 2.40963 21.9694 2.80497C22 3.17955 22 3.63432 22 4.16148V11.8385C22 12.3657 22 12.8205 21.9694 13.195C21.9371 13.5904 21.8658 13.9836 21.673 14.362C21.3854 14.9265 20.9265 15.3854 20.362 15.673C19.9836 15.8658 19.5904 15.9371 19.195 15.9694C18.8205 16 18.3657 16 17.8385 16Z" fill="#AEB5C3"/>
<path d="M4.16146 22H11.8385C12.3657 22 12.8205 22 13.195 21.9694C13.5904 21.9371 13.9836 21.8658 14.362 21.673C14.9265 21.3854 15.3854 20.9265 15.673 20.362C15.8658 19.9836 15.9371 19.5904 15.9694 19.195C15.9969 18.8592 15.9997 18.459 16 18L10.1191 18C9.6305 18.0001 9.10069 18.0002 8.64211 17.9628C8.12309 17.9204 7.43737 17.8154 6.73005 17.455C5.78924 16.9756 5.02434 16.2107 4.54497 15.2699C4.18458 14.5626 4.07963 13.8769 4.03722 13.3579C3.99975 12.8993 3.99987 12.3695 3.99999 11.8808L4.00001 6.00003C3.54097 6.00031 3.14075 6.00314 2.80497 6.03057C2.40963 6.06287 2.01641 6.13419 1.63803 6.32698C1.07354 6.6146 0.614599 7.07354 0.326979 7.63803C0.134186 8.01641 0.0628689 8.40963 0.030568 8.80497C-3.35202e-05 9.17952 -1.63532e-05 9.63425 8.12916e-07 10.1614V17.8385C-1.63532e-05 18.3656 -3.35202e-05 18.8205 0.030568 19.195C0.0628689 19.5904 0.134186 19.9836 0.326979 20.362C0.614599 20.9265 1.07354 21.3854 1.63803 21.673C2.01641 21.8658 2.40963 21.9371 2.80497 21.9694C3.17953 22 3.63433 22 4.16146 22Z" fill="#AEB5C3"/>
</svg>
