<svg width="16" height="13" viewBox="0 0 16 13" fill="none" xmlns="http://www.w3.org/2000/svg">
<path d="M14.5455 0.636363C13.7382 0.381818 12.8509 0.272727 12 0.272727C10.5818 0.272727 9.05455 0.563636 8 1.36364C6.94545 0.563636 5.41818 0.272727 4 0.272727C2.58182 0.272727 1.05455 0.563636 0 1.36364V12.0182C0 12.2 0.181818 12.3818 0.363636 12.3818C0.436364 12.3818 0.472727 12.3455 0.545455 12.3455C1.52727 11.8727 2.94545 11.5455 4 11.5455C5.41818 11.5455 6.94545 11.8364 8 12.6364C8.98182 12.0182 10.7636 11.5455 12 11.5455C13.2 11.5455 14.4364 11.7636 15.4545 12.3091C15.5273 12.3455 15.5636 12.3455 15.6364 12.3455C15.8182 12.3455 16 12.1636 16 11.9818V1.36364C15.5636 1.03636 15.0909 0.818182 14.5455 0.636363ZM14.5455 10.4545C13.7455 10.2 12.8727 10.0909 12 10.0909C10.7636 10.0909 8.98182 10.5636 8 11.1818V2.81818C8.98182 2.2 10.7636 1.72727 12 1.72727C12.8727 1.72727 13.7455 1.83636 14.5455 2.09091V10.4545Z" fill="#0266FF"/>
</svg>
