<svg width="16" height="20" viewBox="0 0 16 20" fill="none" xmlns="http://www.w3.org/2000/svg">
<path fill-rule="evenodd" clip-rule="evenodd" d="M8.83334 1.67964C8.83334 1.65772 8.83334 1.64677 8.83239 1.62689C8.81273 1.21541 8.45087 0.853728 8.03938 0.834261C8.01952 0.833322 8.013 0.833324 8.00001 0.833329H5.29888C4.6281 0.83332 4.07446 0.833312 3.62348 0.870159C3.15507 0.90843 2.72448 0.990567 2.32003 1.19664C1.69283 1.51622 1.18289 2.02616 0.863313 2.65336C0.657238 3.05781 0.575101 3.48839 0.53683 3.95681C0.499983 4.4078 0.499991 4.96143 0.5 5.63222V14.3678C0.499991 15.0385 0.499983 15.5922 0.53683 16.0432C0.575101 16.5116 0.657238 16.9422 0.863313 17.3466C1.18289 17.9738 1.69283 18.4838 2.32003 18.8034C2.72448 19.0094 3.15507 19.0916 3.62348 19.1298C4.07447 19.1667 4.6281 19.1667 5.2989 19.1667H10.7011C11.3719 19.1667 11.9255 19.1667 12.3765 19.1298C12.8449 19.0916 13.2755 19.0094 13.68 18.8034C14.3072 18.4838 14.8171 17.9738 15.1367 17.3466C15.3428 16.9422 15.4249 16.5116 15.4632 16.0432C15.5 15.5922 15.5 15.0386 15.5 14.3678V8.33328C15.5 8.32033 15.5 8.31386 15.4991 8.29401C15.4796 7.88248 15.1179 7.52059 14.7064 7.50095C14.6865 7.5 14.6756 7.5 14.6538 7.5L10.9734 7.50001C10.7631 7.50003 10.5583 7.50006 10.3848 7.48588C10.1943 7.47032 9.96954 7.4336 9.74335 7.31835C9.42975 7.15856 9.17478 6.90359 9.01499 6.58999C8.89975 6.3638 8.86302 6.13902 8.84746 5.94853C8.83329 5.77506 8.83331 5.57024 8.83334 5.35992L8.83334 1.67964ZM4.66667 10.8333C4.20643 10.8333 3.83333 11.2064 3.83333 11.6667C3.83333 12.1269 4.20643 12.5 4.66667 12.5H11.3333C11.7936 12.5 12.1667 12.1269 12.1667 11.6667C12.1667 11.2064 11.7936 10.8333 11.3333 10.8333H4.66667ZM4.66667 14.1667C4.20643 14.1667 3.83333 14.5398 3.83333 15C3.83333 15.4602 4.20643 15.8333 4.66667 15.8333H9.66667C10.1269 15.8333 10.5 15.4602 10.5 15C10.5 14.5398 10.1269 14.1667 9.66667 14.1667H4.66667Z" fill="url(#paint0_linear_2303_3139)"/>
<path d="M13.7566 5.83332C14.0013 5.83333 14.1237 5.83333 14.2239 5.77189C14.3654 5.68512 14.45 5.4807 14.4112 5.31927C14.3838 5.20498 14.304 5.12527 14.1444 4.96586L11.3675 2.18893C11.2081 2.02936 11.1284 1.94957 11.0141 1.9221C10.8526 1.8833 10.6482 1.96791 10.5614 2.10944C10.5 2.20967 10.5 2.33201 10.5 2.5767L10.5 5.16663C10.5 5.39998 10.5 5.51665 10.5454 5.60578C10.5854 5.68418 10.6491 5.74792 10.7275 5.78787C10.8166 5.83328 10.9333 5.83328 11.1667 5.83329L13.7566 5.83332Z" fill="url(#paint1_linear_2303_3139)"/>
<defs>
<linearGradient id="paint0_linear_2303_3139" x1="7.99999" y1="0.833326" x2="7.99999" y2="19.1667" gradientUnits="userSpaceOnUse">
<stop stop-color="#5B22FF"/>
<stop offset="1" stop-color="#2D68FF"/>
</linearGradient>
<linearGradient id="paint1_linear_2303_3139" x1="7.99999" y1="0.833326" x2="7.99999" y2="19.1667" gradientUnits="userSpaceOnUse">
<stop stop-color="#5B22FF"/>
<stop offset="1" stop-color="#2D68FF"/>
</linearGradient>
</defs>
</svg>
