<svg width="93" height="28" viewBox="0 0 93 28" fill="none" xmlns="http://www.w3.org/2000/svg">
<path d="M8.463 0C11.427 0 13.988 0.559 16.146 1.677C18.33 2.769 19.994 4.342 21.138 6.396C22.308 8.45 22.893 10.868 22.893 13.65C22.893 16.432 22.308 18.85 21.138 20.904C19.994 22.932 18.33 24.492 16.146 25.584C13.988 26.65 11.427 27.183 8.463 27.183H1C0.448 27.183 0 26.7353 0 26.183V1C0 0.44772 0.448 0 1 0H8.463ZM8.463 24.258C11.973 24.258 14.651 23.335 16.497 21.489C18.343 19.617 19.266 17.004 19.266 13.65C19.266 10.27 18.33 7.631 16.458 5.733C14.612 3.835 11.947 2.886 8.463 2.886H3.549V24.258H8.463Z" fill="#0D1940"/>
<path d="M37.185 27.534C35.183 27.534 33.363 27.079 31.725 26.169C30.113 25.259 28.839 23.972 27.903 22.308C26.993 20.618 26.538 18.668 26.538 16.458C26.538 14.274 27.006 12.35 27.942 10.686C28.904 8.99596 30.204 7.70896 31.842 6.82496C33.48 5.91496 35.313 5.45996 37.341 5.45996C39.369 5.45996 41.202 5.91496 42.84 6.82496C44.478 7.70896 45.765 8.98296 46.701 10.647C47.663 12.311 48.144 14.248 48.144 16.458C48.144 18.668 47.65 20.618 46.662 22.308C45.7 23.972 44.387 25.259 42.723 26.169C41.059 27.079 39.213 27.534 37.185 27.534ZM37.185 24.414C38.459 24.414 39.655 24.115 40.773 23.517C41.891 22.919 42.788 22.022 43.464 20.826C44.166 19.63 44.517 18.174 44.517 16.458C44.517 14.742 44.179 13.286 43.503 12.09C42.827 10.894 41.943 10.01 40.851 9.43796C39.759 8.83996 38.576 8.54096 37.302 8.54096C36.002 8.54096 34.806 8.83996 33.714 9.43796C32.648 10.01 31.79 10.894 31.14 12.09C30.49 13.286 30.165 14.742 30.165 16.458C30.165 18.2 30.477 19.669 31.101 20.865C31.751 22.061 32.609 22.958 33.675 23.556C34.741 24.128 35.911 24.414 37.185 24.414Z" fill="#0D1940"/>
<path d="M51.775 16.458C51.775 14.248 52.217 12.324 53.101 10.686C53.985 9.02196 55.207 7.73496 56.767 6.82496C58.353 5.91496 60.16 5.45996 62.188 5.45996C64.814 5.45996 66.972 6.09696 68.662 7.37096C70.057 8.40716 71.066 9.77006 71.688 11.4598C71.911 12.0672 71.432 12.675 70.784 12.675H68.991C68.543 12.675 68.157 12.3725 67.985 11.9585C67.582 10.9919 66.949 10.2037 66.088 9.59396C65.048 8.83996 63.748 8.46296 62.188 8.46296C60.16 8.46296 58.522 9.16496 57.274 10.569C56.026 11.947 55.402 13.91 55.402 16.458C55.402 19.032 56.026 21.021 57.274 22.425C58.522 23.829 60.16 24.531 62.188 24.531C63.748 24.531 65.048 24.167 66.088 23.439C66.937 22.8441 67.57 22.0409 67.986 21.0294C68.155 20.6174 68.539 20.319 68.985 20.319H70.759C71.414 20.319 71.894 20.9409 71.654 21.5504C71.013 23.1726 70.003 24.5172 68.623 25.584C66.907 26.884 64.762 27.534 62.188 27.534C60.16 27.534 58.353 27.079 56.767 26.169C55.207 25.259 53.985 23.972 53.101 22.308C52.217 20.644 51.775 18.694 51.775 16.458Z" fill="#0D1940"/>
<path d="M84.646 27.534C83.008 27.534 81.539 27.261 80.239 26.715C78.939 26.143 77.912 25.363 77.158 24.375C76.614 23.6429 76.245 22.8362 76.053 21.955C75.931 21.3924 76.396 20.904 76.972 20.904H78.669C79.183 20.904 79.598 21.3027 79.767 21.7887C80.002 22.4625 80.432 23.0386 81.058 23.517C81.968 24.193 83.151 24.531 84.607 24.531C85.959 24.531 87.025 24.232 87.805 23.634C88.585 23.036 88.975 22.282 88.975 21.372C88.975 20.436 88.559 19.747 87.727 19.305C86.895 18.837 85.608 18.382 83.866 17.94C82.28 17.524 80.98 17.108 79.966 16.692C78.978 16.25 78.12 15.613 77.392 14.781C76.69 13.923 76.339 12.805 76.339 11.427C76.339 10.335 76.664 9.33396 77.314 8.42396C77.964 7.51396 78.887 6.79896 80.083 6.27896C81.279 5.73296 82.644 5.45996 84.178 5.45996C86.544 5.45996 88.455 6.05796 89.911 7.25396C91.114 8.24206 91.855 9.53196 92.135 11.1235C92.235 11.6868 91.772 12.168 91.2 12.168H89.635C89.109 12.168 88.69 11.7547 88.539 11.2515C88.329 10.5486 87.928 9.95706 87.337 9.47696C86.531 8.80096 85.439 8.46296 84.061 8.46296C82.787 8.46296 81.773 8.73596 81.019 9.28196C80.265 9.82796 79.888 10.543 79.888 11.427C79.888 12.129 80.109 12.714 80.551 13.182C81.019 13.624 81.591 13.988 82.267 14.274C82.969 14.534 83.931 14.833 85.153 15.171C86.687 15.587 87.935 16.003 88.897 16.419C89.859 16.809 90.678 17.407 91.354 18.213C92.056 19.019 92.42 20.072 92.446 21.372C92.446 22.542 92.121 23.595 91.471 24.531C90.821 25.467 89.898 26.208 88.702 26.754C87.532 27.274 86.18 27.534 84.646 27.534Z" fill="#0D1940"/>
</svg>
