<svg width="18" height="18" viewBox="0 0 18 18" fill="none" xmlns="http://www.w3.org/2000/svg">
<path d="M8.99994 0C4.02742 0 0 4.02739 0 8.99988C0 12.9823 2.57623 16.3461 6.15372 17.5386C6.60376 17.6173 6.77245 17.3473 6.77245 17.111C6.77245 16.8973 6.76122 16.1886 6.76122 15.4348C4.49992 15.8511 3.91499 14.8836 3.73496 14.3774C3.63376 14.1186 3.19496 13.3198 2.81242 13.1061C2.4975 12.9373 2.04746 12.5211 2.80119 12.5098C3.50999 12.4986 4.01619 13.1624 4.18499 13.4324C4.99499 14.7936 6.28872 14.4111 6.80626 14.1749C6.88499 13.5898 7.12118 13.1961 7.37995 12.9711C5.37742 12.7461 3.28492 11.9698 3.28492 8.52738C3.28492 7.54869 3.63376 6.7387 4.20746 6.10864C4.11749 5.88367 3.80246 4.96115 4.29742 3.7237C4.29742 3.7237 5.05126 3.48739 6.77245 4.64622C7.49248 4.44372 8.25745 4.34242 9.02252 4.34242C9.78748 4.34242 10.5524 4.44372 11.2725 4.64622C12.9937 3.47616 13.7475 3.7237 13.7475 3.7237C14.2425 4.96115 13.9274 5.88367 13.8375 6.10864C14.4112 6.7387 14.76 7.53735 14.76 8.52738C14.76 11.9811 12.6562 12.7461 10.6537 12.9711C10.98 13.2523 11.2612 13.7923 11.2612 14.6361C11.2612 15.8398 11.25 16.8073 11.25 17.111C11.25 17.3473 11.4187 17.6286 11.8687 17.5386C15.5322 16.3018 17.9989 12.8666 18 8.99988C18 4.02739 13.9725 0 8.99994 0Z" fill="url(#paint0_linear_6_3)"/>
<defs>
<linearGradient id="paint0_linear_6_3" x1="9" y1="0" x2="9" y2="17.5558" gradientUnits="userSpaceOnUse">
<stop stop-color="#5B22FF"/>
<stop offset="1" stop-color="#2D68FF"/>
</linearGradient>
</defs>
</svg>
