<svg width="140" height="41" viewBox="0 0 140 41" fill="none" xmlns="http://www.w3.org/2000/svg">
<path d="M134.815 40.833H5.18518C2.33463 40.833 0 38.5349 0 35.7288V5.10384C0 2.29783 2.33463 -0.000324249 5.18518 -0.000324249H134.815C137.665 -0.000324249 140 2.29783 140 5.10384V35.7288C140 38.5349 137.665 40.833 134.815 40.833Z" fill="white"/>
<path d="M134.815 0.817617C137.216 0.817617 139.169 2.74061 139.169 5.10384V35.7288C139.169 38.0921 137.216 40.0151 134.815 40.0151H5.18518C2.78444 40.0151 0.830926 38.0921 0.830926 35.7288V5.10384C0.830926 2.74061 2.78444 0.817617 5.18518 0.817617H134.815ZM134.815 -0.000324249H5.18518C2.33463 -0.000324249 0 2.29783 0 5.10384V35.7288C0 38.5349 2.33463 40.833 5.18518 40.833H134.815C137.665 40.833 140 38.5349 140 35.7288V5.10384C140 2.29783 137.665 -0.000324249 134.815 -0.000324249Z" fill="#A6A6A6"/>
<path d="M10.0437 7.69521C9.73904 8.00911 9.56274 8.49784 9.56274 9.13075V31.7065C9.56274 32.3394 9.73904 32.8281 10.0437 33.142L10.1189 33.2109L22.9703 20.5654V20.2668L10.1189 7.6212L10.0437 7.69521Z" fill="black"/>
<path d="M28.805 24.7832L24.5259 20.5659V20.2673L28.8101 16.05L28.9061 16.1048L33.9798 18.9466C35.4277 19.753 35.4277 21.0801 33.9798 21.8917L28.9061 24.7283L28.805 24.7832V24.7832Z" fill="black"/>
<path d="M28.1284 25.5132L23.7482 21.2015L10.8215 33.9274C11.3025 34.4251 12.0867 34.4851 12.9786 33.9874L28.1284 25.5132" fill="black"/>
<path d="M28.1284 15.3191L12.9786 6.84492C12.0867 6.35237 11.3025 6.41234 10.8215 6.91L23.7482 19.6309L28.1284 15.3191Z" fill="black"/>
<path d="M49.1737 10.457C49.1737 11.3093 48.9144 11.992 48.4037 12.5012C47.8164 13.1047 47.0516 13.4084 46.1144 13.4084C45.2187 13.4084 44.4538 13.0996 43.8264 12.491C43.1977 11.8734 42.884 11.1154 42.884 10.2081C42.884 9.30086 43.1977 8.54289 43.8264 7.93039C44.4538 7.31662 45.2187 7.00781 46.1144 7.00781C46.5603 7.00781 46.9855 7.09841 47.3913 7.26685C47.7957 7.43656 48.125 7.66625 48.3635 7.94953L47.8216 8.48802C47.4055 8.0044 46.839 7.76578 46.1144 7.76578C45.4611 7.76578 44.8946 7.99036 44.4137 8.44336C43.9379 8.89763 43.6994 9.48589 43.6994 10.2081C43.6994 10.9304 43.9379 11.5237 44.4137 11.978C44.8946 12.4259 45.4611 12.6556 46.1144 12.6556C46.8079 12.6556 47.3913 12.4259 47.8514 11.9729C48.1548 11.673 48.3272 11.2596 48.3726 10.7313H46.1144V9.99375H49.127C49.1633 10.1533 49.1737 10.3077 49.1737 10.457V10.457Z" fill="black" stroke="black" stroke-width="0.155556" stroke-miterlimit="10"/>
<path d="M53.9532 7.89905H51.1234V9.83863H53.6745V10.5762H51.1234V12.5158H53.9532V13.2674H50.3223V7.14746H53.9532V7.89905Z" fill="black" stroke="black" stroke-width="0.155556" stroke-miterlimit="10"/>
<path d="M57.3262 13.2674H56.525V7.89905H54.7893V7.14746H59.0632V7.89905H57.3262V13.2674V13.2674Z" fill="black" stroke="black" stroke-width="0.155556" stroke-miterlimit="10"/>
<path d="M62.156 13.2674V7.14746H62.9558V13.2674H62.156Z" fill="black" stroke="black" stroke-width="0.155556" stroke-miterlimit="10"/>
<path d="M66.5012 13.2674H65.7066V7.89905H63.9644V7.14746H68.2434V7.89905H66.5012V13.2674Z" fill="black" stroke="black" stroke-width="0.155556" stroke-miterlimit="10"/>
<path d="M76.3349 12.4808C75.7218 13.0996 74.9621 13.4084 74.056 13.4084C73.1447 13.4084 72.3851 13.0996 71.772 12.4808C71.1601 11.8632 70.8555 11.1052 70.8555 10.2081C70.8555 9.31107 71.1601 8.5531 71.772 7.93549C72.3851 7.31661 73.1447 7.00781 74.056 7.00781C74.957 7.00781 75.7166 7.31661 76.3297 7.9406C76.9468 8.56331 77.2514 9.31617 77.2514 10.2081C77.2514 11.1052 76.9468 11.8632 76.3349 12.4808ZM72.3644 11.9678C72.8258 12.4259 73.3871 12.6556 74.056 12.6556C74.7197 12.6556 75.2862 12.4259 75.7425 11.9678C76.2027 11.5097 76.436 10.9214 76.436 10.2081C76.436 9.49482 76.2027 8.90656 75.7425 8.44846C75.2862 7.99037 74.7197 7.76068 74.056 7.76068C73.3871 7.76068 72.8258 7.99037 72.3644 8.44846C71.9042 8.90656 71.6708 9.49482 71.6708 10.2081C71.6708 10.9214 71.9042 11.5097 72.3644 11.9678V11.9678Z" fill="black" stroke="black" stroke-width="0.155556" stroke-miterlimit="10"/>
<path d="M78.3752 13.2674V7.14746H79.3475L82.3704 11.9071H82.4054L82.3704 10.7306V7.14746H83.1703V13.2674H82.3354L79.1699 8.27293H79.1349L79.1699 9.45454V13.2674H78.3752V13.2674Z" fill="black" stroke="black" stroke-width="0.155556" stroke-miterlimit="10"/>
<path d="M70.6586 22.2053C68.2228 22.2053 66.233 24.0301 66.233 26.5477C66.233 29.0449 68.2228 30.8888 70.6586 30.8888C73.0995 30.8888 75.0893 29.0449 75.0893 26.5477C75.0893 24.0301 73.0995 22.2053 70.6586 22.2053ZM70.6586 29.1789C69.3221 29.1789 68.1723 28.093 68.1723 26.5477C68.1723 24.982 69.3221 23.9152 70.6586 23.9152C71.995 23.9152 73.15 24.982 73.15 26.5477C73.15 28.093 71.995 29.1789 70.6586 29.1789V29.1789ZM61.0025 22.2053C58.5615 22.2053 56.5769 24.0301 56.5769 26.5477C56.5769 29.0449 58.5615 30.8888 61.0025 30.8888C63.4421 30.8888 65.428 29.0449 65.428 26.5477C65.428 24.0301 63.4421 22.2053 61.0025 22.2053ZM61.0025 29.1789C59.6647 29.1789 58.511 28.093 58.511 26.5477C58.511 24.982 59.6647 23.9152 61.0025 23.9152C62.3389 23.9152 63.4888 24.982 63.4888 26.5477C63.4888 28.093 62.3389 29.1789 61.0025 29.1789ZM49.5121 23.5363V25.3814H53.9882C53.8573 26.4125 53.5073 27.1704 52.9706 27.6987C52.3173 28.3367 51.2997 29.0449 49.5121 29.0449C46.7575 29.0449 44.6004 26.8565 44.6004 24.1449C44.6004 21.4333 46.7575 19.2449 49.5121 19.2449C51.0015 19.2449 52.0852 19.8179 52.8851 20.5605L54.206 19.2602C53.0873 18.2088 51.5991 17.401 49.5121 17.401C45.7347 17.401 42.5601 20.4265 42.5601 24.1449C42.5601 27.8633 45.7347 30.8888 49.5121 30.8888C51.5538 30.8888 53.0873 30.2304 54.2928 28.9952C55.5282 27.7791 55.9132 26.0692 55.9132 24.6885C55.9132 24.2598 55.8769 23.8655 55.8121 23.5363H49.5121ZM96.4976 24.9667C96.1334 23.9956 95.0095 22.2053 92.7202 22.2053C90.4517 22.2053 88.563 23.965 88.563 26.5477C88.563 28.9798 90.4323 30.8888 92.938 30.8888C94.9641 30.8888 96.1334 29.6727 96.6143 28.9645L95.1106 27.9782C94.6089 28.7004 93.9258 29.1789 92.938 29.1789C91.9567 29.1789 91.2528 28.7361 90.8017 27.8633L96.7011 25.4605L96.4976 24.9667V24.9667ZM90.4828 26.4124C90.4323 24.7383 91.8037 23.8808 92.7863 23.8808C93.5563 23.8808 94.2097 24.2598 94.4274 24.8021L90.4828 26.4124V26.4124ZM85.6878 30.6247H87.6271V17.8642H85.6878V30.6247ZM82.5119 23.1726H82.4471C82.0115 22.6647 81.1806 22.2053 80.128 22.2053C77.9191 22.2053 75.8995 24.1143 75.8995 26.5617C75.8995 28.9952 77.9191 30.8888 80.128 30.8888C81.1806 30.8888 82.0115 30.4256 82.4471 29.9024H82.5119V30.5251C82.5119 32.1853 81.611 33.0772 80.1578 33.0772C78.973 33.0772 78.238 32.235 77.9347 31.5268L76.2482 32.2197C76.7343 33.3707 78.0215 34.7871 80.1578 34.7871C82.4315 34.7871 84.35 33.4702 84.35 30.2661V22.4695H82.5119V23.1726V23.1726ZM80.2939 29.1789C78.9575 29.1789 77.8387 28.0777 77.8387 26.5617C77.8387 25.0318 78.9575 23.9152 80.2939 23.9152C81.611 23.9152 82.6493 25.0318 82.6493 26.5617C82.6493 28.0777 81.611 29.1789 80.2939 29.1789V29.1789ZM105.577 17.8642H100.939V30.6247H102.873V25.7897H105.577C107.725 25.7897 109.831 24.2598 109.831 21.8264C109.831 19.3942 107.72 17.8642 105.577 17.8642V17.8642ZM105.627 24.0148H102.873V19.6392H105.627C107.072 19.6392 107.896 20.8196 107.896 21.8264C107.896 22.814 107.072 24.0148 105.627 24.0148ZM117.583 22.1811C116.186 22.1811 114.733 22.7885 114.135 24.1347L115.851 24.8429C116.221 24.1347 116.9 23.905 117.618 23.905C118.622 23.905 119.639 24.4984 119.655 25.546V25.68C119.305 25.4809 118.555 25.1862 117.634 25.1862C115.785 25.1862 113.902 26.1879 113.902 28.0573C113.902 29.7672 115.416 30.8684 117.118 30.8684C118.419 30.8684 119.137 30.2903 119.589 29.6179H119.655V30.6042H121.523V25.7094C121.523 23.4469 119.806 22.1811 117.583 22.1811ZM117.35 29.1738C116.717 29.1738 115.836 28.865 115.836 28.093C115.836 27.1053 116.935 26.7264 117.887 26.7264C118.738 26.7264 119.137 26.9114 119.655 27.1551C119.503 28.3367 118.47 29.1738 117.35 29.1738V29.1738ZM128.328 22.4605L126.105 27.9922H126.039L123.741 22.4605H121.655L125.108 30.1908L123.138 34.4923H125.159L130.48 22.4605H128.328V22.4605ZM110.894 30.6247H112.834V17.8642H110.894V30.6247Z" fill="black"/>
</svg>
