<svg width="15" height="13" viewBox="0 0 15 13" fill="none" xmlns="http://www.w3.org/2000/svg">
<g clip-path="url(#clip0_14_46)">
<path fill-rule="evenodd" clip-rule="evenodd" d="M7.87109 0.0463867H10.1196C10.3455 0.0463867 10.5298 0.230713 10.5298 0.456543V2.26807H7.46094V0.456543C7.46094 0.230713 7.64526 0.0463867 7.87109 0.0463867ZM10.531 3.37524V8.8916H7.46094V3.37524H10.531ZM10.531 10V11.6846C10.531 11.9104 10.3467 12.0947 10.1209 12.0947H7.87109C7.64526 12.0947 7.46094 11.9104 7.46094 11.6846V10H10.531Z" fill="#0266FF"/>
<path fill-rule="evenodd" clip-rule="evenodd" d="M12.3401 0.0463867H14.5886C14.8145 0.0463867 14.9988 0.230713 14.9988 0.456543V2.26807H14.9963H11.9299V0.456543C11.9299 0.230713 12.1155 0.0463867 12.3401 0.0463867ZM15 3.37524V8.8916H11.9299V3.37524H14.9976H15ZM15 10V11.6846C15 11.9104 14.8157 12.0947 14.5898 12.0947H12.3413C12.1155 12.0947 11.9312 11.9104 11.9312 11.6846V10H15Z" fill="#0266FF"/>
<path fill-rule="evenodd" clip-rule="evenodd" d="M4.38843 0.0244194L6.50147 0.793462C6.71387 0.870367 6.82374 1.10718 6.74683 1.31959L6.12794 3.02125L3.24341 1.97144L3.86231 0.269781C3.94044 0.0573783 4.17725 -0.0524849 4.38843 0.0244194ZM5.74952 4.06251L3.86353 9.24683L0.979009 8.19703L2.865 3.01392L5.74952 4.06251ZM3.48511 10.2881L2.90894 11.8701C2.83204 12.0825 2.59522 12.1924 2.38282 12.1155L0.269781 11.3464C0.0573783 11.2695 -0.0524849 11.0327 0.0244194 10.8203L0.600591 9.23829L3.48511 10.2881Z" fill="#0266FF"/>
</g>
<defs>
<clipPath id="clip0_14_46">
<rect width="15" height="12.1399" fill="white"/>
</clipPath>
</defs>
</svg>
