<svg width="18" height="18" viewBox="0 0 18 18" fill="none" xmlns="http://www.w3.org/2000/svg">
<path fill-rule="evenodd" clip-rule="evenodd" d="M6.56903 0.75H11.431C12.0347 0.749991 12.533 0.749984 12.9389 0.783147C13.3604 0.81759 13.748 0.891514 14.112 1.07698C14.6765 1.3646 15.1354 1.82354 15.423 2.38803C15.6085 2.75203 15.6824 3.13956 15.7169 3.56113C15.75 3.96702 15.75 4.46529 15.75 5.06901V7.32438C15.75 7.6501 15.75 7.81296 15.6971 7.90172C15.644 7.99061 15.5899 8.03391 15.4915 8.06606C15.3933 8.09817 15.2062 8.05596 14.8321 7.97155C14.7656 7.95655 14.6986 7.94324 14.6311 7.93167C13.7149 7.77451 12.7727 7.94669 11.9712 8.41769C11.1698 8.88869 10.5609 9.62813 10.2525 10.505C9.84011 11.6773 10.4561 12.9618 11.6283 13.3742C11.6579 13.3846 11.6875 13.3943 11.7171 13.4034C11.7056 13.67 11.7417 13.9432 11.8311 14.2115C11.8824 14.3653 11.9486 14.5098 12.0277 14.644C11.8429 14.9706 11.7375 15.348 11.7375 15.75C11.7375 16.0115 11.7821 16.2626 11.8642 16.4961C11.9267 16.6741 11.958 16.7631 11.9615 16.7759C12.0385 17.057 11.9169 17.2286 11.6262 17.2491C11.613 17.25 11.5524 17.25 11.431 17.25H6.56901C5.96529 17.25 5.46702 17.25 5.06113 17.2169C4.63956 17.1824 4.25203 17.1085 3.88803 16.923C3.32354 16.6354 2.8646 16.1765 2.57698 15.612C2.39151 15.248 2.31759 14.8604 2.28315 14.4389C2.24998 14.033 2.24999 13.5347 2.25 12.931V5.06902C2.24999 4.4653 2.24998 3.96702 2.28315 3.56113C2.31759 3.13956 2.39151 2.75203 2.57698 2.38803C2.8646 1.82354 3.32354 1.3646 3.88803 1.07698C4.25203 0.891514 4.63956 0.81759 5.06113 0.783147C5.46702 0.749984 5.96531 0.749991 6.56903 0.75ZM5.25 3.75C4.83579 3.75 4.5 4.08579 4.5 4.5C4.5 4.91421 4.83579 5.25 5.25 5.25H12C12.4142 5.25 12.75 4.91421 12.75 4.5C12.75 4.08579 12.4142 3.75 12 3.75H5.25ZM4.5 7.5C4.5 7.08579 4.83579 6.75 5.25 6.75H9.75C10.1642 6.75 10.5 7.08579 10.5 7.5C10.5 7.91421 10.1642 8.25 9.75 8.25H5.25C4.83579 8.25 4.5 7.91421 4.5 7.5ZM4.5 10.5C4.5 10.0858 4.83579 9.75 5.25 9.75H6.75C7.16421 9.75 7.5 10.0858 7.5 10.5C7.5 10.9142 7.16421 11.25 6.75 11.25H5.25C4.83579 11.25 4.5 10.9142 4.5 10.5Z" fill="url(#paint0_linear_14_20)"/>
<path d="M13.4913 11.0041C13.682 10.8921 13.9061 10.8511 14.124 10.8885C14.3419 10.9259 14.5396 11.0392 14.682 11.2083C14.8244 11.3775 14.9023 11.5915 14.902 11.8126V11.8138C14.902 11.9777 14.7691 12.2036 14.3928 12.4544C14.2275 12.5646 14.0569 12.6505 13.9246 12.7093C13.8595 12.7382 13.8063 12.7594 13.7712 12.7728C13.7537 12.7795 13.7408 12.7841 13.7334 12.7868L13.7273 12.7889C13.3351 12.9204 13.1233 13.3446 13.2542 13.7372C13.3852 14.1301 13.8099 14.3425 14.2029 14.2115L14.2038 14.2112L14.2359 14.2001C14.2532 14.1939 14.2766 14.1854 14.3052 14.1745C14.3622 14.1528 14.4408 14.1213 14.5338 14.08C14.7177 13.9982 14.9686 13.8733 15.2249 13.7025C15.6916 13.3913 16.4016 12.7743 16.402 11.8145C16.4027 11.2393 16.1999 10.6823 15.8295 10.2423C15.459 9.80216 14.9446 9.50734 14.3776 9.41007C13.8105 9.31281 13.2273 9.41937 12.7313 9.71088C12.2353 10.0024 11.8584 10.4601 11.6675 11.0028C11.5301 11.3935 11.7354 11.8217 12.1261 11.9592C12.5169 12.0966 12.9451 11.8913 13.0825 11.5006C13.1559 11.292 13.3007 11.1161 13.4913 11.0041Z" fill="url(#paint1_linear_14_20)"/>
<path d="M13.9875 15C13.5733 15 13.2375 15.3358 13.2375 15.75C13.2375 16.1642 13.5733 16.5 13.9875 16.5H13.995C14.4092 16.5 14.745 16.1642 14.745 15.75C14.745 15.3358 14.4092 15 13.995 15H13.9875Z" fill="url(#paint2_linear_14_20)"/>
<defs>
<linearGradient id="paint0_linear_14_20" x1="9.32598" y1="0.75" x2="9.32598" y2="17.25" gradientUnits="userSpaceOnUse">
<stop stop-color="#5B22FF"/>
<stop offset="1" stop-color="#2D68FF"/>
</linearGradient>
<linearGradient id="paint1_linear_14_20" x1="9.32598" y1="0.75" x2="9.32598" y2="17.25" gradientUnits="userSpaceOnUse">
<stop stop-color="#5B22FF"/>
<stop offset="1" stop-color="#2D68FF"/>
</linearGradient>
<linearGradient id="paint2_linear_14_20" x1="9.32598" y1="0.75" x2="9.32598" y2="17.25" gradientUnits="userSpaceOnUse">
<stop stop-color="#5B22FF"/>
<stop offset="1" stop-color="#2D68FF"/>
</linearGradient>
</defs>
</svg>
