<svg width="14" height="15" viewBox="0 0 14 15" fill="none" xmlns="http://www.w3.org/2000/svg">
<path d="M6.72032 6.95008C6.69099 6.95008 6.66101 6.94095 6.63299 6.92531L0.895404 3.61336C0.842616 3.58208 0.80938 3.52408 0.80938 3.46282C0.80938 3.40091 0.842616 3.34356 0.895404 3.31293L6.59845 0.0224837C6.65189 -0.00749457 6.71706 -0.00749457 6.76985 0.0224837L12.5094 3.33574C12.5628 3.36637 12.5948 3.42372 12.5948 3.48563C12.5948 3.54819 12.5628 3.60489 12.5094 3.63552L6.8083 6.92531C6.78027 6.94095 6.75225 6.95008 6.72032 6.95008Z" fill="#495159"/>
<path opacity="0.7" d="M5.8966 15C5.86401 15 5.83469 14.9922 5.80927 14.9765L0.0886313 11.675C0.0332366 11.6444 0 11.5883 0 11.5245V4.89927C0 4.83671 0.0332366 4.78001 0.0886313 4.74873C0.141419 4.7168 0.20659 4.7168 0.263288 4.74873L5.98328 8.04895C6.03411 8.08153 6.068 8.13823 6.068 8.2008V14.826C6.068 14.8892 6.03411 14.9453 5.98328 14.9765C5.9546 14.9922 5.92462 15 5.8966 15Z" fill="#495159"/>
<path opacity="0.4" d="M7.51552 14.9999C7.48424 14.9999 7.45491 14.992 7.42558 14.9764C7.37475 14.9451 7.34151 14.8891 7.34151 14.8259V8.24237C7.34151 8.18111 7.37475 8.12376 7.42558 8.09183L13.1456 4.79161C13.2003 4.76033 13.2642 4.76033 13.3176 4.79161C13.3724 4.82224 13.4056 4.87959 13.4056 4.9415V11.5243C13.4056 11.5882 13.3724 11.6443 13.3176 11.6749L7.59959 14.9764C7.57613 14.992 7.5455 14.9999 7.51552 14.9999Z" fill="#495159"/>
</svg>
