<svg width="15" height="15" viewBox="0 0 15 15" fill="none" xmlns="http://www.w3.org/2000/svg">
<path d="M5.5215 7.90327C5.93892 7.90444 6.33891 8.07077 6.63407 8.36593C6.92923 8.66109 7.09556 9.06108 7.09673 9.4785V13.4241C7.09573 13.8417 6.92947 14.2418 6.63429 14.5371C6.33911 14.8324 5.93903 14.9988 5.5215 15C5.10386 14.999 4.70362 14.8327 4.4083 14.5373C4.11299 14.242 3.94664 13.8418 3.94564 13.4241V9.4785C3.94681 9.06097 4.11323 8.66089 4.40853 8.36571C4.70382 8.07053 5.10397 7.90427 5.5215 7.90327V7.90327ZM9.4785 11.8483C9.89614 11.8493 10.2964 12.0156 10.5917 12.3109C10.887 12.6063 11.0534 13.0065 11.0544 13.4241C11.0534 13.8418 10.887 14.242 10.5917 14.5373C10.2964 14.8327 9.89614 14.999 9.4785 15C9.06097 14.9988 8.66089 14.8324 8.36571 14.5371C8.07053 14.2418 7.90427 13.8417 7.90327 13.4241V11.8483H9.4785V11.8483ZM3.15172 7.9039V9.47913C3.15072 9.89677 2.98437 10.297 2.68905 10.5923C2.39374 10.8876 1.99349 11.054 1.57586 11.055C1.15822 11.054 0.757977 10.8876 0.462663 10.5923C0.167348 10.297 0.000999931 9.89677 0 9.47913C0.00116648 9.0616 0.167589 8.66152 0.462885 8.36634C0.758181 8.07116 1.15833 7.9049 1.57586 7.9039H3.15172V7.9039ZM13.4241 7.9039C13.8417 7.9049 14.2418 8.07116 14.5371 8.36634C14.8324 8.66152 14.9988 9.0616 15 9.47913C14.999 9.89677 14.8327 10.297 14.5373 10.5923C14.242 10.8876 13.8418 11.054 13.4241 11.055H9.4785C9.06097 11.0538 8.66089 10.8874 8.36571 10.5921C8.07053 10.2968 7.90427 9.89666 7.90327 9.47913C7.90444 9.06171 8.07077 8.66173 8.36593 8.36656C8.66109 8.0714 9.06108 7.90507 9.4785 7.9039H13.4241V7.9039ZM5.5215 3.94564C5.93903 3.94681 6.33911 4.11323 6.63429 4.40853C6.92947 4.70382 7.09573 5.10397 7.09673 5.5215C7.09556 5.93892 6.92923 6.33891 6.63407 6.63407C6.33891 6.92923 5.93892 7.09556 5.5215 7.09673H1.57586C1.15833 7.09573 0.758181 6.92947 0.462885 6.63429C0.167589 6.33911 0.00116648 5.93903 0 5.5215C0.000999931 5.10386 0.167348 4.70362 0.462663 4.4083C0.757977 4.11299 1.15822 3.94664 1.57586 3.94564H5.5215ZM13.4241 3.94564C13.8418 3.94664 14.242 4.11299 14.5373 4.4083C14.8327 4.70362 14.999 5.10386 15 5.5215C14.9988 5.93903 14.8324 6.33911 14.5371 6.63429C14.2418 6.92947 13.8417 7.09573 13.4241 7.09673H11.8483V5.5215C11.8493 5.10386 12.0156 4.70362 12.3109 4.4083C12.6063 4.11299 13.0065 3.94664 13.4241 3.94564ZM9.4785 0C9.89614 0.000999931 10.2964 0.167348 10.5917 0.462663C10.887 0.757977 11.0534 1.15822 11.0544 1.57586V5.5215C11.0532 5.93903 10.8868 6.33911 10.5915 6.63429C10.2962 6.92947 9.89603 7.09573 9.4785 7.09673C9.06108 7.09556 8.66109 6.92923 8.36593 6.63407C8.07077 6.33891 7.90444 5.93892 7.90327 5.5215V1.57586C7.90427 1.15833 8.07053 0.758181 8.36571 0.462885C8.66089 0.167589 9.06097 0.00116648 9.4785 0V0ZM5.5215 0C5.93903 0.00116648 6.33911 0.167589 6.63429 0.462885C6.92947 0.758181 7.09573 1.15833 7.09673 1.57586V3.15172H5.5215C5.10386 3.15072 4.70362 2.98437 4.4083 2.68905C4.11299 2.39374 3.94664 1.99349 3.94564 1.57586C3.94664 1.15822 4.11299 0.757977 4.4083 0.462663C4.70362 0.167348 5.10386 0.000999931 5.5215 0V0Z" fill="#FE5100"/>
<mask id="mask0_14_10" style="mask-type:luminance" maskUnits="userSpaceOnUse" x="0" y="0" width="15" height="15">
<path d="M5.5215 7.90327C5.93892 7.90444 6.33891 8.07077 6.63407 8.36593C6.92923 8.66109 7.09556 9.06108 7.09673 9.4785V13.4241C7.09573 13.8417 6.92947 14.2418 6.63429 14.5371C6.33911 14.8324 5.93903 14.9988 5.5215 15C5.10386 14.999 4.70362 14.8327 4.4083 14.5373C4.11299 14.242 3.94664 13.8418 3.94564 13.4241V9.4785C3.94681 9.06097 4.11323 8.66089 4.40853 8.36571C4.70382 8.07053 5.10397 7.90427 5.5215 7.90327V7.90327ZM9.4785 11.8483C9.89614 11.8493 10.2964 12.0156 10.5917 12.3109C10.887 12.6063 11.0534 13.0065 11.0544 13.4241C11.0534 13.8418 10.887 14.242 10.5917 14.5373C10.2964 14.8327 9.89614 14.999 9.4785 15C9.06097 14.9988 8.66089 14.8324 8.36571 14.5371C8.07053 14.2418 7.90427 13.8417 7.90327 13.4241V11.8483H9.4785V11.8483ZM3.15172 7.9039V9.47913C3.15072 9.89677 2.98437 10.297 2.68905 10.5923C2.39374 10.8876 1.99349 11.054 1.57586 11.055C1.15822 11.054 0.757977 10.8876 0.462663 10.5923C0.167348 10.297 0.000999931 9.89677 0 9.47913C0.00116648 9.0616 0.167589 8.66152 0.462885 8.36634C0.758181 8.07116 1.15833 7.9049 1.57586 7.9039H3.15172V7.9039ZM13.4241 7.9039C13.8417 7.9049 14.2418 8.07116 14.5371 8.36634C14.8324 8.66152 14.9988 9.0616 15 9.47913C14.999 9.89677 14.8327 10.297 14.5373 10.5923C14.242 10.8876 13.8418 11.054 13.4241 11.055H9.4785C9.06097 11.0538 8.66089 10.8874 8.36571 10.5921C8.07053 10.2968 7.90427 9.89666 7.90327 9.47913C7.90444 9.06171 8.07077 8.66173 8.36593 8.36656C8.66109 8.0714 9.06108 7.90507 9.4785 7.9039H13.4241V7.9039ZM5.5215 3.94564C5.93903 3.94681 6.33911 4.11323 6.63429 4.40853C6.92947 4.70382 7.09573 5.10397 7.09673 5.5215C7.09556 5.93892 6.92923 6.33891 6.63407 6.63407C6.33891 6.92923 5.93892 7.09556 5.5215 7.09673H1.57586C1.15833 7.09573 0.758181 6.92947 0.462885 6.63429C0.167589 6.33911 0.00116648 5.93903 0 5.5215C0.000999931 5.10386 0.167348 4.70362 0.462663 4.4083C0.757977 4.11299 1.15822 3.94664 1.57586 3.94564H5.5215ZM13.4241 3.94564C13.8418 3.94664 14.242 4.11299 14.5373 4.4083C14.8327 4.70362 14.999 5.10386 15 5.5215C14.9988 5.93903 14.8324 6.33911 14.5371 6.63429C14.2418 6.92947 13.8417 7.09573 13.4241 7.09673H11.8483V5.5215C11.8493 5.10386 12.0156 4.70362 12.3109 4.4083C12.6063 4.11299 13.0065 3.94664 13.4241 3.94564ZM9.4785 0C9.89614 0.000999931 10.2964 0.167348 10.5917 0.462663C10.887 0.757977 11.0534 1.15822 11.0544 1.57586V5.5215C11.0532 5.93903 10.8868 6.33911 10.5915 6.63429C10.2962 6.92947 9.89603 7.09573 9.4785 7.09673C9.06108 7.09556 8.66109 6.92923 8.36593 6.63407C8.07077 6.33891 7.90444 5.93892 7.90327 5.5215V1.57586C7.90427 1.15833 8.07053 0.758181 8.36571 0.462885C8.66089 0.167589 9.06097 0.00116648 9.4785 0V0ZM5.5215 0C5.93903 0.00116648 6.33911 0.167589 6.63429 0.462885C6.92947 0.758181 7.09573 1.15833 7.09673 1.57586V3.15172H5.5215C5.10386 3.15072 4.70362 2.98437 4.4083 2.68905C4.11299 2.39374 3.94664 1.99349 3.94564 1.57586C3.94664 1.15822 4.11299 0.757977 4.4083 0.462663C4.70362 0.167348 5.10386 0.000999931 5.5215 0V0Z" fill="#495159"/>
</mask>
<g mask="url(#mask0_14_10)">
<path fill-rule="evenodd" clip-rule="evenodd" d="M-0.0732422 -0.073204H15.0732V15.0732H-0.0732422V-0.073204Z" fill="#FE5100"/>
</g>
</svg>
