<svg xmlns="http://www.w3.org/2000/svg" xmlns:xlink="http://www.w3.org/1999/xlink" width="24" height="24" viewBox="0 0 24 24"><defs><path id="prefix__a" d="M8.865 12.639a2.503 2.503 0 0 1 2.496 2.496v6.252a2.503 2.503 0 0 1-2.496 2.497 2.503 2.503 0 0 1-2.497-2.497v-6.252a2.503 2.503 0 0 1 2.497-2.496Zm6.27 6.251a2.503 2.503 0 0 1 2.497 2.497 2.503 2.503 0 0 1-2.497 2.497 2.503 2.503 0 0 1-2.496-2.497V18.89h2.496ZM5.11 12.64v2.496a2.503 2.503 0 0 1-2.497 2.497 2.503 2.503 0 0 1-2.497-2.497 2.503 2.503 0 0 1 2.497-2.496H5.11Zm16.277 0a2.503 2.503 0 0 1 2.497 2.496 2.503 2.503 0 0 1-2.497 2.497h-6.252a2.503 2.503 0 0 1-2.496-2.497 2.503 2.503 0 0 1 2.496-2.496h6.252ZM8.865 6.368a2.503 2.503 0 0 1 2.496 2.497 2.503 2.503 0 0 1-2.496 2.496H2.613A2.503 2.503 0 0 1 .116 8.865a2.503 2.503 0 0 1 2.497-2.497h6.252Zm12.522 0a2.503 2.503 0 0 1 2.497 2.497 2.503 2.503 0 0 1-2.497 2.496H18.89V8.865a2.503 2.503 0 0 1 2.497-2.497ZM15.135.116a2.503 2.503 0 0 1 2.497 2.497v6.252a2.503 2.503 0 0 1-2.497 2.496 2.503 2.503 0 0 1-2.496-2.496V2.613A2.503 2.503 0 0 1 15.135.116Zm-6.27 0a2.503 2.503 0 0 1 2.496 2.497V5.11H8.865a2.503 2.503 0 0 1-2.497-2.497A2.503 2.503 0 0 1 8.865.116Z"/></defs><g fill="none" fill-rule="evenodd"><mask id="prefix__b" fill="#fff"><use xlink:href="#prefix__a"/></mask><use xlink:href="#prefix__a" fill="#000" fill-rule="nonzero"/><g fill="#000" mask="url(#prefix__b)"><polygon points="0 0 24 0 24 24 0 24"/></g></g></svg>