<svg width="100" height="55" viewBox="0 0 100 55" fill="none" xmlns="http://www.w3.org/2000/svg">
<circle cx="27.5" cy="27.5" r="27.5" fill="#3880FF"/>
<path d="M27.5148 15.0001C29.5438 15.0001 31.4544 15.4742 33.2464 16.3924L33.4834 16.5109L33.2761 16.6738C32.7725 17.0737 32.3726 17.5921 32.1209 18.1845L32.0468 18.3474L31.8987 18.2733C30.5213 17.6217 29.0551 17.281 27.5296 17.281C21.8868 17.281 17.3104 21.8723 17.3104 27.5002C17.3104 33.1282 21.872 37.7194 27.5148 37.7194C33.1576 37.7194 37.734 33.1282 37.734 27.5002C37.734 26.1525 37.4822 24.8344 36.9491 23.5903L36.875 23.4274L37.0379 23.3533C37.6451 23.1312 38.1783 22.7609 38.6078 22.287L38.7707 22.0796L38.8744 22.3166C39.6297 23.9605 40 25.7082 40 27.4706C40 34.3575 34.3868 39.9706 27.5 39.9706C20.6132 39.9706 15 34.3575 15 27.4706C15 20.5838 20.6132 14.9706 27.5148 15.0001ZM27.5148 21.813C30.6398 21.813 33.202 24.3604 33.2168 27.515C33.2168 30.6697 30.6694 33.2171 27.5148 33.2171C24.3602 33.2171 21.8128 30.6697 21.8128 27.515C21.8128 24.3604 24.375 21.813 27.5148 21.813ZM35.6754 17.1033C37.115 17.1033 38.282 18.2703 38.282 19.7099C38.282 21.1496 37.115 22.3166 35.6754 22.3166C34.2358 22.3166 33.0687 21.1496 33.0687 19.7099C33.0687 18.2703 34.2358 17.1033 35.6754 17.1033Z" fill="white"/>
<circle cx="72.5" cy="27.5" r="27.5" fill="#1A2A3A"/>
<path d="M88 27.1491C88 25.1933 85.5113 23.3397 81.6955 22.1904C82.5761 18.363 82.1847 15.3179 80.4603 14.343C80.0628 14.1144 79.5981 14.006 79.0905 14.006V15.348C79.3718 15.348 79.5981 15.4021 79.7876 15.5045C80.6192 15.9739 80.98 17.7612 80.6988 20.06C80.6315 20.6257 80.5214 21.2215 80.3869 21.8293C79.1884 21.5404 77.8797 21.3177 76.5039 21.1733C75.6783 20.06 74.8223 19.049 73.9601 18.1644C75.9535 16.341 77.8247 15.342 79.0967 15.342V14C77.415 14 75.2136 15.1795 72.9878 17.2256C70.7619 15.1915 68.5605 14.0241 66.8789 14.0241V15.366C68.1447 15.366 70.022 16.359 72.0155 18.1704C71.1594 19.055 70.3033 20.06 69.49 21.1733C68.108 21.3177 66.7995 21.5404 65.6009 21.8353C65.4602 21.2335 65.3563 20.6498 65.2829 20.0901C64.9955 17.7913 65.3502 16.0039 66.1757 15.5286C66.3591 15.4202 66.5976 15.3721 66.8789 15.3721V14.0301C66.3653 14.0301 65.9006 14.1384 65.4969 14.3671C63.7786 15.342 63.3934 18.381 64.2801 22.1964C60.4766 23.3518 58 25.1993 58 27.1491C58 29.1049 60.4888 30.9584 64.3045 32.1078C63.424 35.9352 63.8153 38.9803 65.5398 39.9552C65.9373 40.1839 66.402 40.2922 66.9156 40.2922C68.5972 40.2922 70.7986 39.1127 73.0245 37.0666C75.2503 39.1006 77.4517 40.2681 79.1333 40.2681C79.647 40.2681 80.1117 40.1597 80.5153 39.9311C82.2336 38.9562 82.6188 35.9171 81.7322 32.1018C85.5235 30.9524 88 29.0989 88 27.1491ZM80.0383 23.1352C79.8121 23.9115 79.5308 24.7119 79.2128 25.5122C78.9621 25.0308 78.6992 24.5494 78.4118 24.0679C78.1304 23.5865 77.8308 23.1171 77.5312 22.6598C78.3995 22.7861 79.2373 22.9426 80.0383 23.1352ZM77.2377 29.5442C76.7607 30.3566 76.2715 31.1269 75.764 31.843C74.8528 31.9213 73.9295 31.9634 73 31.9634C72.0766 31.9634 71.1533 31.9213 70.2483 31.8491C69.7408 31.1329 69.2454 30.3687 68.7685 29.5623C68.3037 28.7739 67.8818 27.9735 67.4965 27.1671C67.8757 26.3607 68.3037 25.5544 68.7623 24.766C69.2393 23.9536 69.7285 23.1833 70.236 22.4672C71.1472 22.3889 72.0705 22.3468 73 22.3468C73.9234 22.3468 74.8467 22.3889 75.7517 22.4611C76.2593 23.1773 76.7546 23.9415 77.2316 24.748C77.6963 25.5363 78.1182 26.3367 78.5035 27.1431C78.1182 27.9495 77.6963 28.7558 77.2377 29.5442ZM79.2128 28.7619C79.543 29.5683 79.8243 30.3747 80.0567 31.157C79.2556 31.3496 78.4118 31.5121 77.5373 31.6384C77.837 31.1751 78.1366 30.6997 78.4179 30.2122C78.6992 29.7308 78.9621 29.2433 79.2128 28.7619ZM73.0122 35.183C72.4436 34.6052 71.8748 33.9613 71.3123 33.2572C71.8626 33.2813 72.4252 33.2994 72.9939 33.2994C73.5687 33.2994 74.1374 33.2873 74.6939 33.2572C74.1435 33.9613 73.5748 34.6052 73.0122 35.183ZM68.4627 31.6384C67.5944 31.5121 66.7566 31.3556 65.9556 31.163C66.1818 30.3867 66.4631 29.5863 66.7811 28.786C67.0318 29.2674 67.2947 29.7488 67.5821 30.2303C67.8696 30.7117 68.1631 31.1811 68.4627 31.6384ZM72.9817 19.1152C73.5503 19.6929 74.1191 20.3368 74.6816 21.0409C74.1313 21.0169 73.5687 20.9988 73 20.9988C72.4252 20.9988 71.8565 21.0108 71.3 21.0409C71.8504 20.3368 72.4191 19.6929 72.9817 19.1152ZM68.4566 22.6598C68.157 23.1231 67.8573 23.5985 67.5761 24.086C67.2947 24.5674 67.0318 25.0488 66.7811 25.5303C66.4509 24.7239 66.1696 23.9175 65.9373 23.1352C66.7383 22.9486 67.5821 22.7861 68.4566 22.6598ZM62.9226 30.1942C60.7578 29.2854 59.3576 28.0939 59.3576 27.1491C59.3576 26.2043 60.7578 25.0067 62.9226 24.1041C63.4485 23.8814 64.0233 23.6828 64.6164 23.4962C64.965 24.6758 65.4236 25.9034 65.9923 27.1611C65.4297 28.4128 64.9772 29.6345 64.6347 30.8079C64.0294 30.6214 63.4545 30.4168 62.9226 30.1942ZM66.2124 38.7937C65.3808 38.3243 65.02 36.537 65.3013 34.2382C65.3685 33.6725 65.4786 33.0767 65.6132 32.4689C66.8116 32.7577 68.1203 32.9804 69.4961 33.1249C70.3217 34.2382 71.1778 35.2492 72.04 36.1338C70.0465 37.9572 68.1753 38.9562 66.9034 38.9562C66.6282 38.9502 66.3958 38.896 66.2124 38.7937ZM80.7171 34.208C81.0045 36.5069 80.6498 38.2942 79.8243 38.7697C79.6409 38.878 79.4024 38.9261 79.1211 38.9261C77.8553 38.9261 75.978 37.9331 73.9845 36.1217C74.8406 35.2371 75.6967 34.2322 76.51 33.1188C77.892 32.9744 79.2006 32.7518 80.3991 32.4569C80.5398 33.0647 80.6498 33.6484 80.7171 34.208ZM81.3592 23.4902C81.9646 23.6768 82.5394 23.8814 83.0775 24.1041C85.2422 25.0127 86.6425 26.2043 86.6425 27.1491C86.6364 28.0939 85.2361 29.2914 83.0713 30.1942C82.5455 30.4168 81.9706 30.6154 81.3775 30.802C81.029 29.6224 80.5704 28.3948 80.0017 27.137C80.5642 25.8853 81.0167 24.6637 81.3592 23.4902ZM73 24.4495C74.5824 24.4495 75.8652 25.6568 75.8652 27.1461C75.8652 28.6354 74.5824 29.8427 73 29.8427C71.4176 29.8427 70.1348 28.6354 70.1348 27.1461C70.1348 25.6568 71.4176 24.4495 73 24.4495Z" fill="#61DAFB"/>
</svg>
