<svg width="55" height="55" viewBox="0 0 55 55" fill="none" xmlns="http://www.w3.org/2000/svg">
<path d="M27.5 55C42.6878 55 55 42.6878 55 27.5C55 12.3122 42.6878 0 27.5 0C12.3122 0 0 12.3122 0 27.5C0 42.6878 12.3122 55 27.5 55Z" fill="#E23237"/>
<path fill-rule="evenodd" clip-rule="evenodd" d="M15 19.4007L27.3374 15.0013L40 19.3242L37.9533 35.6402L27.3374 41.5124L16.8937 35.7167L15 19.4007Z" fill="white"/>
<path fill-rule="evenodd" clip-rule="evenodd" d="M40 19.3229L27.3374 15V41.5111L37.9533 35.6389L40 19.3229Z" fill="white"/>
<path fill-rule="evenodd" clip-rule="evenodd" d="M27.3566 18.0987L19.6672 35.1989L22.5363 35.1415L24.0857 31.2777H30.9526L32.6358 35.1798L35.3711 35.2372L27.3566 18.0987ZM27.3757 23.5884L29.9771 29.0207H25.0995L27.3757 23.5884Z" fill="#E23237"/>
</svg>
