<svg width="651" height="55" viewBox="0 0 651 55" fill="none" xmlns="http://www.w3.org/2000/svg">
<path d="M27.8654 0.00944596C27.7716 0.00317486 27.6772 0 27.5823 0L25.9511 0L48.3476 0L50.5305 0L48.8993 0C48.8044 0 48.71 0.00317486 48.6162 0.00944596C49.9215 0.101464 51.0935 0.859815 51.6978 2.02236L76.5984 49.9257C76.6593 50.0428 76.691 50.1726 76.691 50.3043C76.691 50.7616 76.3162 51.1324 75.8539 51.1324H58.7593C57.5046 51.1324 56.3551 50.4385 55.7814 49.3347L38.2408 15.5904L29.2353 32.9152H36.2502C37.5076 32.9152 38.659 33.612 39.2315 34.7194L46.4706 48.7222C46.5913 48.9557 46.6542 49.2141 46.6542 49.4763C46.6542 50.3909 45.9046 51.1324 44.98 51.1324H1.31357C0.620059 51.1324 0.0578613 50.5763 0.0578613 49.8903C0.0578613 49.6927 0.105503 49.498 0.196831 49.3223L24.7838 2.02236C25.3881 0.859815 26.5601 0.101464 27.8654 0.00944596Z" fill="#009DFF"/>
<path d="M29.2354 32.9151H36.2503C37.5078 32.9151 38.6592 33.6119 39.2317 34.7193L46.4708 48.7222C46.5915 48.9556 46.6544 49.214 46.6544 49.4762C46.6544 50.3908 45.9048 51.1323 44.9801 51.1323H17.7224C18.9772 51.1323 20.1266 50.4384 20.7004 49.3347L29.2354 32.9151Z" fill="url(#paint0_linear_201_169)"/>
<path d="M29.2355 32.9151L20.7004 49.3347C20.1267 50.4384 18.9772 51.1323 17.7225 51.1323H1.42467C1.22589 51.1323 1.02995 51.0856 0.852963 50.9961C0.235504 50.6838 -0.0090827 49.9355 0.306663 49.3247L7.74066 34.9448C8.38471 33.699 9.68008 32.9151 11.0947 32.9151H29.2355V32.9151Z" fill="url(#paint1_linear_201_169)"/>
<path d="M29.2362 32.9152H11.0955C9.68087 32.9152 8.38551 33.6991 7.74146 34.9449L24.7848 2.02236C25.4303 0.780605 26.7234 0 28.135 0H50.5315L48.9003 0C47.3318 0 45.895 0.867339 45.1778 2.24706L29.2362 32.9152Z" fill="url(#paint2_linear_201_169)"/>
<path d="M31.3056 2.24706C30.5884 0.867339 29.1516 0 27.5832 0L25.9519 0L48.3485 0C49.76 0 51.0532 0.780605 51.6987 2.02236L76.5992 49.9257C76.6601 50.0428 76.6919 50.1726 76.6919 50.3043C76.6919 50.7616 76.3171 51.1324 75.8547 51.1324H58.7602C57.5054 51.1324 56.356 50.4385 55.7822 49.3347L31.3056 2.24706Z" fill="url(#paint3_linear_201_169)"/>
<path fill-rule="evenodd" clip-rule="evenodd" d="M139.661 51.7007C139.226 51.7007 138.855 51.5484 138.55 51.2439C138.245 50.9393 138.093 50.5695 138.093 50.1344V6.93127C138.093 6.45268 138.245 6.07199 138.55 5.78919C138.855 5.50639 139.226 5.36499 139.661 5.36499H145.151C145.63 5.36499 146.011 5.50639 146.295 5.78919C146.578 6.07199 146.719 6.45268 146.719 6.93127V50.1344C146.719 50.5695 146.578 50.9393 146.295 51.2439C146.011 51.5484 145.63 51.7007 145.151 51.7007H139.661ZM88.8166 51.3091C89.078 51.5701 89.4047 51.7007 89.7969 51.7007H95.6134C96.5283 51.7007 97.1601 51.2873 97.5086 50.4607L100.515 42.564H119.86L122.866 50.4607C123.214 51.2873 123.846 51.7007 124.761 51.7007H130.578C130.926 51.7007 131.242 51.5701 131.525 51.3091C131.808 51.048 131.95 50.7217 131.95 50.3302L131.819 49.7428L116.134 7.64911C115.699 6.56141 114.914 6.01757 113.782 6.01757H106.593C105.46 6.01757 104.676 6.56141 104.24 7.64911L88.5551 49.7428L88.4244 50.3302C88.4244 50.7217 88.5551 51.048 88.8166 51.3091ZM110.188 14.8931L117.573 34.9937H102.803L110.188 14.8931ZM160.018 51.0154C161.869 51.9073 163.906 52.3533 166.128 52.3533C168.742 52.3533 170.921 51.9073 172.663 51.0154C174.406 50.1235 175.757 48.9814 176.715 47.5892V50.1344C176.715 50.5695 176.868 50.9393 177.173 51.2438C177.478 51.5484 177.848 51.7007 178.284 51.7007H183.708C184.188 51.7007 184.569 51.5484 184.852 51.2438C185.135 50.9393 185.277 50.5695 185.277 50.1344V29.6423C185.277 25.9006 184.1 22.8768 181.748 20.5709C179.395 18.265 175.648 17.112 170.507 17.112C167.37 17.112 164.734 17.6233 162.599 18.6457C160.464 19.6681 158.885 20.8646 157.861 22.2351C156.837 23.6056 156.303 24.8347 156.26 25.9224C156.26 26.3574 156.401 26.7055 156.684 26.9665C156.968 27.2276 157.305 27.3581 157.697 27.3581H162.795C163.274 27.3581 163.601 27.0971 163.775 26.575L164.854 25.4982C165.398 24.9543 166.106 24.4213 166.978 23.8992C167.849 23.3771 169.004 23.1161 170.441 23.1161C172.533 23.1161 174.058 23.5947 175.016 24.5519C175.975 25.509 176.454 26.923 176.454 28.7939V30.1644L167.501 31.4696C163.318 32.1222 160.028 33.3622 157.632 35.1895C155.236 37.0168 154.038 39.4097 154.038 42.3683C154.038 44.1956 154.571 45.8706 155.639 47.3934C156.706 48.9162 158.166 50.1235 160.018 51.0154ZM168.35 46.0882C170.746 46.0882 172.707 45.305 174.232 43.7387C175.757 42.1725 176.519 39.9101 176.519 36.9515V35.6463L169.984 36.6905C164.974 37.4736 162.468 39.1487 162.468 41.7156C162.468 43.1079 163.046 44.1847 164.2 44.9461C165.355 45.7075 166.738 46.0882 168.35 46.0882ZM194.948 51.2438C195.253 51.5484 195.624 51.7007 196.059 51.7007H201.876C202.355 51.7007 202.736 51.5484 203.019 51.2438C203.303 50.9393 203.444 50.5695 203.444 50.1344V32.1875C203.444 29.7075 204.12 27.7497 205.47 26.3139C206.821 24.8782 208.607 24.1603 210.829 24.1603C213.138 24.1603 214.914 24.8673 216.156 26.2813C217.397 27.6953 218.018 29.664 218.018 32.1875V50.1344C218.018 50.5695 218.171 50.9393 218.476 51.2438C218.781 51.5484 219.151 51.7007 219.587 51.7007H225.468C225.948 51.7007 226.329 51.5484 226.612 51.2438C226.895 50.9393 227.037 50.5695 227.037 50.1344V31.7959C227.037 27.2276 225.861 23.6382 223.508 21.0277C221.155 18.4173 217.975 17.112 213.966 17.112C209.348 17.112 205.71 18.7436 203.052 22.0067V19.3309C203.052 18.8523 202.91 18.4717 202.627 18.1889C202.344 17.9061 201.963 17.7647 201.484 17.7647H196.059C195.624 17.7647 195.253 17.9061 194.948 18.1889C194.643 18.4717 194.491 18.8523 194.491 19.3309V50.1344C194.491 50.5695 194.643 50.9393 194.948 51.2438Z" fill="#081746"/>
<path fill-rule="evenodd" clip-rule="evenodd" d="M244.952 16.1807C243.627 16.9598 242.177 17.3494 240.603 17.3494C239.029 17.3494 237.579 16.9598 236.253 16.1807C234.928 15.4016 233.876 14.3494 233.097 13.0241C232.318 11.6988 231.928 10.249 231.928 8.6747C231.928 7.1004 232.318 5.6506 233.097 4.3253C233.876 3 234.928 1.94779 236.253 1.16867C237.579 0.389558 239.029 0 240.603 0C242.177 0 243.627 0.389558 244.952 1.16867C246.278 1.94779 247.33 3 248.109 4.3253C248.888 5.6506 249.278 7.1004 249.278 8.6747C249.278 10.249 248.888 11.6988 248.109 13.0241C247.33 14.3494 246.278 15.4016 244.952 16.1807ZM237.29 14.4698C238.294 15.0722 239.398 15.3735 240.603 15.3735C241.808 15.3735 242.912 15.0722 243.916 14.4698C244.92 13.8674 245.715 13.0522 246.302 12.0241C246.888 10.9959 247.181 9.87948 247.181 8.67466C247.181 7.46984 246.888 6.35337 246.302 5.32526C245.715 4.29715 244.92 3.48188 243.916 2.87948C242.912 2.27707 241.808 1.97586 240.603 1.97586C239.398 1.97586 238.294 2.27707 237.29 2.87948C236.286 3.48188 235.49 4.29715 234.904 5.32526C234.318 6.35337 234.024 7.46984 234.024 8.67466C234.024 9.87948 234.318 10.9959 234.904 12.0241C235.49 13.0522 236.286 13.8674 237.29 14.4698ZM239.133 13.0602C239.294 13.0602 239.422 13.012 239.518 12.9157C239.615 12.8193 239.663 12.6908 239.663 12.5301V10.1446H240.699L241.808 12.6024C241.952 12.9076 242.185 13.0602 242.506 13.0602H244C244.177 13.0602 244.31 13.008 244.398 12.9036C244.486 12.7992 244.531 12.6747 244.531 12.5301C244.531 12.4337 244.498 12.3213 244.434 12.1928L243.157 9.66265C243.591 9.45382 243.944 9.14056 244.217 8.72289C244.49 8.30522 244.627 7.79116 244.627 7.18072C244.627 6.16867 244.273 5.4257 243.567 4.95181C242.86 4.47791 241.992 4.24096 240.964 4.24096H237.591C237.43 4.24096 237.302 4.28916 237.205 4.38554C237.109 4.48193 237.061 4.61044 237.061 4.77108V12.5301C237.061 12.6908 237.109 12.8193 237.205 12.9157C237.302 13.012 237.43 13.0602 237.591 13.0602H239.133ZM239.663 8.09641H240.94C241.294 8.09641 241.555 8.01207 241.723 7.84339C241.892 7.67472 241.976 7.45384 241.976 7.18074C241.976 6.90765 241.892 6.68677 241.723 6.51809C241.555 6.34942 241.294 6.26508 240.94 6.26508H239.663V8.09641Z" fill="#081746"/>
<path d="M289.878 27.0142H282.44C282.228 25.7945 281.837 24.714 281.267 23.7727C280.697 22.8182 279.988 22.0095 279.139 21.3466C278.291 20.6837 277.323 20.1866 276.236 19.8551C275.162 19.5104 274.002 19.3381 272.756 19.3381C270.542 19.3381 268.58 19.8949 266.869 21.0085C265.159 22.1089 263.82 23.7263 262.852 25.8608C261.884 27.982 261.401 30.5739 261.401 33.6364C261.401 36.7519 261.884 39.3769 262.852 41.5114C263.833 43.6326 265.172 45.2367 266.869 46.3239C268.58 47.3977 270.535 47.9347 272.736 47.9347C273.955 47.9347 275.096 47.7756 276.156 47.4574C277.23 47.1259 278.191 46.642 279.04 46.0057C279.902 45.3693 280.624 44.5871 281.207 43.6591C281.804 42.7311 282.215 41.6705 282.44 40.4773L289.878 40.517C289.599 42.4527 288.996 44.2689 288.068 45.9659C287.153 47.6629 285.954 49.161 284.469 50.4602C282.984 51.7462 281.247 52.7538 279.259 53.483C277.27 54.1989 275.063 54.5568 272.636 54.5568C269.057 54.5568 265.862 53.7282 263.051 52.071C260.241 50.4138 258.027 48.0208 256.409 44.892C254.792 41.7633 253.983 38.0114 253.983 33.6364C253.983 29.2481 254.798 25.4962 256.429 22.3807C258.06 19.2519 260.28 16.8589 263.091 15.2017C265.902 13.5445 269.083 12.7159 272.636 12.7159C274.903 12.7159 277.011 13.0341 278.96 13.6705C280.909 14.3068 282.646 15.2415 284.17 16.4744C285.695 17.6941 286.948 19.1922 287.929 20.9688C288.923 22.732 289.573 24.7472 289.878 27.0142ZM303.515 36.1023V54H296.316V13.2727H303.356V28.6449H303.714C304.43 26.9214 305.537 25.5625 307.035 24.5682C308.546 23.5606 310.469 23.0568 312.802 23.0568C314.923 23.0568 316.772 23.5009 318.35 24.3892C319.928 25.2775 321.147 26.5767 322.009 28.2869C322.884 29.9972 323.322 32.0852 323.322 34.5511V54H316.123V35.6648C316.123 33.6098 315.593 32.0123 314.532 30.8722C313.485 29.7187 312.013 29.142 310.117 29.142C308.844 29.142 307.704 29.4205 306.697 29.9773C305.702 30.5208 304.92 31.3097 304.35 32.3438C303.793 33.3778 303.515 34.6307 303.515 36.1023ZM344.183 54.5966C341.12 54.5966 338.475 53.9602 336.248 52.6875C334.034 51.4015 332.33 49.5852 331.137 47.2386C329.944 44.8788 329.347 42.1013 329.347 38.9062C329.347 35.7642 329.944 33.0066 331.137 30.6335C332.344 28.2472 334.027 26.3911 336.188 25.0653C338.349 23.7263 340.888 23.0568 343.805 23.0568C345.687 23.0568 347.464 23.3617 349.134 23.9716C350.818 24.5682 352.303 25.4962 353.589 26.7557C354.888 28.0152 355.909 29.6193 356.651 31.5682C357.394 33.5038 357.765 35.8106 357.765 38.4886V40.696H332.728V35.8438H350.864C350.851 34.465 350.553 33.2386 349.969 32.1648C349.386 31.0777 348.571 30.2225 347.523 29.5994C346.489 28.9763 345.283 28.6648 343.904 28.6648C342.433 28.6648 341.14 29.0227 340.026 29.7386C338.913 30.4413 338.044 31.3693 337.421 32.5227C336.811 33.6629 336.5 34.9157 336.487 36.2812V40.517C336.487 42.2936 336.811 43.8182 337.461 45.0909C338.111 46.3504 339.019 47.3182 340.185 47.9943C341.352 48.6572 342.718 48.9886 344.282 48.9886C345.329 48.9886 346.277 48.8428 347.126 48.5511C347.974 48.2462 348.71 47.8021 349.333 47.2188C349.956 46.6354 350.427 45.9129 350.745 45.0511L357.467 45.8068C357.042 47.5833 356.234 49.1345 355.04 50.4602C353.861 51.7727 352.349 52.7936 350.506 53.5227C348.664 54.2386 346.556 54.5966 344.183 54.5966ZM372.645 54.6165C370.709 54.6165 368.966 54.2718 367.415 53.5824C365.877 52.8797 364.657 51.8456 363.756 50.4801C362.867 49.1146 362.423 47.4309 362.423 45.429C362.423 43.7055 362.741 42.2803 363.378 41.1534C364.014 40.0265 364.883 39.125 365.983 38.4489C367.083 37.7727 368.323 37.2623 369.702 36.9176C371.094 36.5597 372.532 36.3011 374.017 36.142C375.807 35.9564 377.259 35.7907 378.372 35.6449C379.486 35.4858 380.295 35.2472 380.798 34.929C381.315 34.5975 381.574 34.0871 381.574 33.3977V33.2784C381.574 31.7803 381.13 30.6203 380.241 29.7983C379.353 28.9763 378.074 28.5653 376.403 28.5653C374.64 28.5653 373.241 28.9498 372.207 29.7188C371.187 30.4877 370.497 31.3958 370.139 32.4432L363.418 31.4886C363.948 29.6326 364.823 28.0814 366.043 26.8352C367.262 25.5758 368.754 24.6345 370.517 24.0114C372.28 23.375 374.229 23.0568 376.364 23.0568C377.835 23.0568 379.3 23.2292 380.759 23.5739C382.217 23.9186 383.549 24.4886 384.756 25.2841C385.962 26.0663 386.93 27.1335 387.659 28.4858C388.402 29.8381 388.773 31.5284 388.773 33.5568V54H381.852V49.804H381.614C381.176 50.6525 380.56 51.4479 379.764 52.1903C378.982 52.9195 377.994 53.5095 376.801 53.9602C375.621 54.3977 374.236 54.6165 372.645 54.6165ZM374.514 49.3267C375.959 49.3267 377.212 49.0417 378.273 48.4716C379.333 47.8883 380.149 47.1193 380.719 46.1648C381.302 45.2102 381.594 44.1695 381.594 43.0426V39.4432C381.368 39.6288 380.984 39.8011 380.44 39.9602C379.91 40.1193 379.313 40.2585 378.651 40.3778C377.988 40.4972 377.331 40.6032 376.682 40.696C376.032 40.7888 375.469 40.8684 374.991 40.9347C373.918 41.0805 372.956 41.3191 372.108 41.6506C371.259 41.982 370.59 42.446 370.099 43.0426C369.609 43.6259 369.364 44.3816 369.364 45.3097C369.364 46.6354 369.848 47.6364 370.815 48.3125C371.783 48.9886 373.016 49.3267 374.514 49.3267ZM411.264 23.4545V29.0227H393.705V23.4545H411.264ZM398.04 16.1364H405.239V44.8125C405.239 45.7803 405.384 46.5227 405.676 47.0398C405.981 47.5436 406.379 47.8883 406.869 48.0739C407.36 48.2595 407.903 48.3523 408.5 48.3523C408.951 48.3523 409.362 48.3191 409.733 48.2528C410.117 48.1866 410.409 48.1269 410.608 48.0739L411.821 53.7017C411.437 53.8343 410.886 53.9801 410.17 54.1392C409.468 54.2983 408.606 54.3911 407.585 54.4176C405.782 54.4706 404.158 54.1989 402.713 53.6023C401.268 52.9924 400.121 52.0511 399.273 50.7784C398.438 49.5057 398.027 47.9148 398.04 46.0057V16.1364ZM453.627 24.4688C453.442 22.732 452.659 21.3797 451.281 20.4119C449.915 19.4441 448.138 18.9602 445.951 18.9602C444.413 18.9602 443.094 19.1922 441.994 19.6562C440.893 20.1203 440.051 20.75 439.468 21.5455C438.885 22.3409 438.586 23.2491 438.573 24.2699C438.573 25.1184 438.765 25.8542 439.15 26.4773C439.548 27.1004 440.085 27.6307 440.761 28.0682C441.437 28.4924 442.186 28.8504 443.008 29.142C443.83 29.4337 444.658 29.679 445.494 29.8778L449.312 30.8324C450.85 31.1903 452.328 31.6742 453.746 32.2841C455.178 32.8939 456.458 33.6629 457.585 34.5909C458.725 35.5189 459.626 36.6392 460.289 37.9517C460.952 39.2642 461.283 40.8021 461.283 42.5653C461.283 44.9517 460.674 47.053 459.454 48.8693C458.234 50.6723 456.471 52.0843 454.164 53.1051C451.871 54.1127 449.093 54.6165 445.832 54.6165C442.663 54.6165 439.912 54.1259 437.579 53.1449C435.259 52.1638 433.442 50.732 432.13 48.8494C430.831 46.9669 430.128 44.6733 430.022 41.9688H437.281C437.387 43.3873 437.824 44.5672 438.593 45.5085C439.362 46.4498 440.363 47.1525 441.596 47.6165C442.842 48.0805 444.234 48.3125 445.772 48.3125C447.376 48.3125 448.781 48.0739 449.988 47.5966C451.208 47.1061 452.162 46.4299 452.852 45.5682C453.541 44.6932 453.892 43.6723 453.906 42.5057C453.892 41.4451 453.581 40.5701 452.971 39.8807C452.361 39.178 451.506 38.5947 450.406 38.1307C449.318 37.6534 448.046 37.2292 446.587 36.858L441.954 35.6648C438.6 34.803 435.948 33.4972 433.999 31.7472C432.064 29.9839 431.096 27.6439 431.096 24.7273C431.096 22.3276 431.746 20.2263 433.045 18.4233C434.357 16.6203 436.14 15.2216 438.394 14.2273C440.648 13.2197 443.2 12.7159 446.05 12.7159C448.941 12.7159 451.473 13.2197 453.647 14.2273C455.835 15.2216 457.551 16.607 458.798 18.3835C460.044 20.1468 460.687 22.1752 460.727 24.4688H453.627ZM474.741 36.1023V54H467.543V13.2727H474.582V28.6449H474.94C475.656 26.9214 476.763 25.5625 478.261 24.5682C479.773 23.5606 481.695 23.0568 484.028 23.0568C486.15 23.0568 487.999 23.5009 489.577 24.3892C491.154 25.2775 492.374 26.5767 493.236 28.2869C494.111 29.9972 494.548 32.0852 494.548 34.5511V54H487.349V35.6648C487.349 33.6098 486.819 32.0123 485.759 30.8722C484.711 29.7187 483.24 29.142 481.344 29.142C480.071 29.142 478.931 29.4205 477.923 29.9773C476.929 30.5208 476.147 31.3097 475.577 32.3438C475.02 33.3778 474.741 34.6307 474.741 36.1023ZM515.409 54.5966C512.347 54.5966 509.702 53.9602 507.474 52.6875C505.26 51.4015 503.557 49.5852 502.364 47.2386C501.17 44.8788 500.574 42.1013 500.574 38.9062C500.574 35.7642 501.17 33.0066 502.364 30.6335C503.57 28.2472 505.254 26.3911 507.415 25.0653C509.576 23.7263 512.115 23.0568 515.031 23.0568C516.914 23.0568 518.69 23.3617 520.361 23.9716C522.045 24.5682 523.529 25.4962 524.815 26.7557C526.115 28.0152 527.135 29.6193 527.878 31.5682C528.62 33.5038 528.991 35.8106 528.991 38.4886V40.696H503.955V35.8438H522.091C522.078 34.465 521.779 33.2386 521.196 32.1648C520.613 31.0777 519.797 30.2225 518.75 29.5994C517.716 28.9763 516.509 28.6648 515.131 28.6648C513.659 28.6648 512.366 29.0227 511.253 29.7386C510.139 30.4413 509.271 31.3693 508.648 32.5227C508.038 33.6629 507.726 34.9157 507.713 36.2812V40.517C507.713 42.2936 508.038 43.8182 508.688 45.0909C509.337 46.3504 510.245 47.3182 511.412 47.9943C512.579 48.6572 513.944 48.9886 515.509 48.9886C516.556 48.9886 517.504 48.8428 518.352 48.5511C519.201 48.2462 519.937 47.8021 520.56 47.2188C521.183 46.6354 521.653 45.9129 521.972 45.0511L528.693 45.8068C528.269 47.5833 527.46 49.1345 526.267 50.4602C525.087 51.7727 523.576 52.7936 521.733 53.5227C519.89 54.2386 517.782 54.5966 515.409 54.5966ZM548.604 54.5966C545.542 54.5966 542.897 53.9602 540.67 52.6875C538.456 51.4015 536.752 49.5852 535.559 47.2386C534.366 44.8788 533.769 42.1013 533.769 38.9062C533.769 35.7642 534.366 33.0066 535.559 30.6335C536.765 28.2472 538.449 26.3911 540.61 25.0653C542.771 23.7263 545.31 23.0568 548.227 23.0568C550.109 23.0568 551.886 23.3617 553.556 23.9716C555.24 24.5682 556.725 25.4962 558.011 26.7557C559.31 28.0152 560.331 29.6193 561.073 31.5682C561.816 33.5038 562.187 35.8106 562.187 38.4886V40.696H537.15V35.8438H555.286C555.273 34.465 554.975 33.2386 554.391 32.1648C553.808 31.0777 552.993 30.2225 551.945 29.5994C550.911 28.9763 549.705 28.6648 548.326 28.6648C546.854 28.6648 545.562 29.0227 544.448 29.7386C543.335 30.4413 542.466 31.3693 541.843 32.5227C541.233 33.6629 540.922 34.9157 540.908 36.2812V40.517C540.908 42.2936 541.233 43.8182 541.883 45.0909C542.532 46.3504 543.441 47.3182 544.607 47.9943C545.774 48.6572 547.139 48.9886 548.704 48.9886C549.751 48.9886 550.699 48.8428 551.548 48.5511C552.396 48.2462 553.132 47.8021 553.755 47.2188C554.378 46.6354 554.849 45.9129 555.167 45.0511L561.888 45.8068C561.464 47.5833 560.656 49.1345 559.462 50.4602C558.282 51.7727 556.771 52.7936 554.928 53.5227C553.085 54.2386 550.978 54.5966 548.604 54.5966ZM583.53 23.4545V29.0227H565.97V23.4545H583.53ZM570.305 16.1364H577.504V44.8125C577.504 45.7803 577.65 46.5227 577.942 47.0398C578.247 47.5436 578.644 47.8883 579.135 48.0739C579.625 48.2595 580.169 48.3523 580.766 48.3523C581.216 48.3523 581.627 48.3191 581.999 48.2528C582.383 48.1866 582.675 48.1269 582.874 48.0739L584.087 53.7017C583.702 53.8343 583.152 53.9801 582.436 54.1392C581.733 54.2983 580.872 54.3911 579.851 54.4176C578.048 54.4706 576.424 54.1989 574.979 53.6023C573.534 52.9924 572.387 52.0511 571.538 50.7784C570.703 49.5057 570.292 47.9148 570.305 46.0057V16.1364Z" fill="#081746"/>
<defs>
<linearGradient id="paint0_linear_201_169" x1="21.7459" y1="30.2587" x2="18.2345" y2="49.3805" gradientUnits="userSpaceOnUse">
<stop stop-color="#47B0FF"/>
<stop offset="1" stop-color="#009DFF"/>
</linearGradient>
<linearGradient id="paint1_linear_201_169" x1="23.5809" y1="53.5909" x2="26.7952" y2="34.5902" gradientUnits="userSpaceOnUse">
<stop stop-color="#32BEFF"/>
<stop offset="1" stop-color="#5ECCFF"/>
</linearGradient>
<linearGradient id="paint2_linear_201_169" x1="39.8742" y1="41.678" x2="51.3663" y2="5.16045" gradientUnits="userSpaceOnUse">
<stop stop-color="#1970E3"/>
<stop offset="1" stop-color="#115FC6"/>
</linearGradient>
<linearGradient id="paint3_linear_201_169" x1="14.8811" y1="13.3692" x2="41.7368" y2="64.3317" gradientUnits="userSpaceOnUse">
<stop stop-color="#62BBFF"/>
<stop offset="1" stop-color="#009DFF"/>
</linearGradient>
</defs>
</svg>
