<svg width="90" height="90" viewBox="0 0 90 90" fill="none" xmlns="http://www.w3.org/2000/svg">
<circle cx="45" cy="45" r="45" fill="white"/>
<mask id="mask0_954_373" style="mask-type:alpha" maskUnits="userSpaceOnUse" x="10" y="11" width="70" height="68">
<path d="M44.9971 11C25.6712 11 10 26.3971 10 45.3904C10 60.5863 20.0275 73.475 33.9371 78.0221C35.6871 78.34 36.3258 77.2783 36.3258 76.3654C36.3258 75.5487 36.2967 73.3875 36.2763 70.5175C26.5433 72.5942 24.4871 65.9063 24.4871 65.9063C22.8946 61.9338 20.6021 60.875 20.6021 60.875C17.4229 58.7429 20.8413 58.7837 20.8413 58.7837C24.3558 59.0287 26.2021 62.3304 26.2021 62.3304C29.3229 67.5833 34.3979 66.0667 36.39 65.1888C36.7079 62.9663 37.6121 61.4496 38.6125 60.5892C30.8396 59.7229 22.6671 56.7683 22.6671 43.5938C22.6671 39.84 24.0321 36.7687 26.2721 34.3654C25.9104 33.4962 24.7088 29.9962 26.6163 25.2654C26.6163 25.2654 29.5533 24.3379 36.2412 28.7888C39.0296 28.0246 42.025 27.6454 45 27.6308C47.975 27.6454 50.9675 28.0246 53.7646 28.7888C60.4438 24.3379 63.375 25.2625 63.375 25.2625C65.2854 29.9963 64.0838 33.4963 63.725 34.3625C65.9708 36.7658 67.3213 39.84 67.3213 43.5938C67.3213 56.8063 59.1371 59.7113 51.3438 60.5629C52.5979 61.6246 53.7179 63.7246 53.7179 66.9329C53.7179 71.5296 53.6742 75.2367 53.6742 76.3654C53.6742 77.2842 54.3071 78.3546 56.0804 78.0192C69.9813 73.4633 80 60.5833 80 45.3904C80 26.4 64.3287 11 44.9971 11Z" fill="white"/>
</mask>
<g mask="url(#mask0_954_373)">
<path d="M44.9971 11C25.6712 11 10 26.3971 10 45.3904C10 60.5863 20.0275 73.475 33.9371 78.0221C35.6871 78.34 36.3258 77.2783 36.3258 76.3654C36.3258 75.5487 36.2967 73.3875 36.2763 70.5175C26.5433 72.5942 24.4871 65.9063 24.4871 65.9063C22.8946 61.9338 20.6021 60.875 20.6021 60.875C17.4229 58.7429 20.8413 58.7837 20.8413 58.7837C24.3558 59.0287 26.2021 62.3304 26.2021 62.3304C29.3229 67.5833 34.3979 66.0667 36.39 65.1888C36.7079 62.9663 37.6121 61.4496 38.6125 60.5892C30.8396 59.7229 22.6671 56.7683 22.6671 43.5938C22.6671 39.84 24.0321 36.7687 26.2721 34.3654C25.9104 33.4962 24.7088 29.9962 26.6163 25.2654C26.6163 25.2654 29.5533 24.3379 36.2412 28.7888C39.0296 28.0246 42.025 27.6454 45 27.6308C47.975 27.6454 50.9675 28.0246 53.7646 28.7888C60.4438 24.3379 63.375 25.2625 63.375 25.2625C65.2854 29.9963 64.0838 33.4963 63.725 34.3625C65.9708 36.7658 67.3213 39.84 67.3213 43.5938C67.3213 56.8063 59.1371 59.7113 51.3438 60.5629C52.5979 61.6246 53.7179 63.7246 53.7179 66.9329C53.7179 71.5296 53.6742 75.2367 53.6742 76.3654C53.6742 77.2842 54.3071 78.3546 56.0804 78.0192C69.9813 73.4633 80 60.5833 80 45.3904C80 26.4 64.3287 11 44.9971 11Z" fill="white"/>
<path fill-rule="evenodd" clip-rule="evenodd" d="M10 11H80V81H10V11Z" fill="#504F4F"/>
</g>
</svg>
