<svg width="45" height="45" viewBox="0 0 45 45" fill="none" xmlns="http://www.w3.org/2000/svg">
<circle cx="22.5" cy="22.5" r="22.5" fill="#5536b31a"/>
<path d="M17.0657 35.0004C16.3155 35.0004 15.5656 34.7148 14.9946 34.1438L12.4644 31.6136C11.3586 30.5077 11.3144 28.7341 12.3639 27.5759C12.371 27.5681 12.3782 27.5604 12.3855 27.5528L12.47 27.4655C10.8702 25.5541 10 23.1673 10 20.6464C10 17.8031 11.1072 15.13 13.1178 13.1196C14.7324 11.5049 16.7756 10.4694 19.0265 10.1249C21.2311 9.78755 23.4447 10.1366 25.428 11.1344C25.9098 11.3767 26.1039 11.9638 25.8615 12.4456C25.6192 12.9274 25.032 13.1216 24.5503 12.879C21.1956 11.1914 17.1563 11.8432 14.4988 14.5006C12.8572 16.1423 11.9531 18.3248 11.9531 20.6464C11.9531 22.968 12.8572 25.1506 14.4989 26.7921C14.8757 27.169 14.8826 27.7801 14.5121 28.1633L13.8026 28.8971C13.4621 29.2829 13.4799 29.867 13.8455 30.2325L16.3757 32.7627C16.7565 33.1436 17.3761 33.1435 17.7567 32.7627L24.0488 26.446C24.4294 26.0638 25.0478 26.0626 25.4298 26.4433C25.8119 26.8239 25.8132 27.4422 25.4325 27.8243L19.1392 34.1425C18.5672 34.7144 17.8162 35.0003 17.0657 35.0004ZM17.33 25.3421L25.3402 17.3319C25.7216 16.9505 25.7216 16.3321 25.3402 15.9507C22.751 13.3616 18.5381 13.3616 15.9489 15.9507C13.3597 18.5399 13.3597 22.7529 15.9489 25.3421C16.1395 25.5328 16.3895 25.6281 16.6394 25.6281C16.8893 25.6281 17.1393 25.5328 17.33 25.3421ZM23.1962 16.7136L16.7118 23.1981C15.5329 21.3822 15.739 18.9228 17.33 17.3319C18.2438 16.418 19.4442 15.9611 20.6445 15.9611C21.5339 15.9611 22.4234 16.2119 23.1962 16.7136ZM32.0454 34.578L33.7289 32.1256C33.7314 32.122 33.7338 32.1183 33.7362 32.1146C34.563 30.8747 35 29.4318 35 27.9416V13.7616C35 11.6885 33.3134 10.0018 31.2402 10.0018C29.1671 10.0018 27.4804 11.6885 27.4804 13.7616V27.9416C27.4804 29.4318 27.9174 30.8748 28.7442 32.1147C28.7467 32.1183 28.7491 32.1219 28.7516 32.1256L30.4351 34.5781C30.6172 34.8434 30.9184 35.002 31.2402 35.002C31.5621 35.0019 31.8632 34.8434 32.0454 34.578ZM29.4336 27.9417V13.7616C29.4336 12.7654 30.2441 11.955 31.2403 11.955C32.2365 11.955 33.0469 12.7654 33.0469 13.7616V27.9416C33.0469 29.0427 32.7246 30.1091 32.1148 31.0258L31.2403 32.2998L30.3657 31.0258C29.7559 30.1091 29.4336 29.0427 29.4336 27.9417ZM32.9238 31.5729H32.9242H32.9238ZM17.3442 28.0044C16.6701 28.0044 16.1235 28.551 16.1235 29.2251C16.1235 29.8993 16.6701 30.4458 17.3442 30.4458C18.0184 30.4458 18.5649 29.8993 18.5649 29.2251C18.5649 28.551 18.0184 28.0044 17.3442 28.0044ZM20.1976 25.1311C19.5234 25.1311 18.9769 25.6776 18.9769 26.3518C18.9769 27.0259 19.5234 27.5725 20.1976 27.5725C20.8717 27.5725 21.4183 27.0259 21.4183 26.3518C21.4183 25.6776 20.8717 25.1311 20.1976 25.1311ZM23.1197 22.2539C22.4456 22.2539 21.899 22.8005 21.899 23.4746C21.899 24.1488 22.4456 24.6953 23.1197 24.6953C23.7939 24.6953 24.3404 24.1488 24.3404 23.4746C24.3404 22.8005 23.7939 22.2539 23.1197 22.2539Z" fill="#5536b3"/>
</svg>
