<svg width="55" height="55" viewBox="0 0 55 55" fill="none" xmlns="http://www.w3.org/2000/svg">
<circle cx="27.5" cy="27.5" r="27.5" fill="#3880FF"/>
<path d="M27.5148 15.0001C29.5438 15.0001 31.4544 15.4742 33.2464 16.3924L33.4834 16.5109L33.2761 16.6738C32.7725 17.0737 32.3726 17.5921 32.1209 18.1845L32.0468 18.3474L31.8987 18.2733C30.5213 17.6217 29.0551 17.281 27.5296 17.281C21.8868 17.281 17.3104 21.8723 17.3104 27.5002C17.3104 33.1282 21.872 37.7194 27.5148 37.7194C33.1576 37.7194 37.734 33.1282 37.734 27.5002C37.734 26.1525 37.4822 24.8344 36.9491 23.5903L36.875 23.4274L37.0379 23.3533C37.6451 23.1312 38.1783 22.7609 38.6078 22.287L38.7707 22.0796L38.8744 22.3166C39.6297 23.9605 40 25.7082 40 27.4706C40 34.3575 34.3868 39.9706 27.5 39.9706C20.6132 39.9706 15 34.3575 15 27.4706C15 20.5838 20.6132 14.9706 27.5148 15.0001ZM27.5148 21.813C30.6398 21.813 33.202 24.3604 33.2168 27.515C33.2168 30.6697 30.6694 33.2171 27.5148 33.2171C24.3602 33.2171 21.8128 30.6697 21.8128 27.515C21.8128 24.3604 24.375 21.813 27.5148 21.813ZM35.6754 17.1033C37.115 17.1033 38.282 18.2703 38.282 19.7099C38.282 21.1496 37.115 22.3166 35.6754 22.3166C34.2358 22.3166 33.0687 21.1496 33.0687 19.7099C33.0687 18.2703 34.2358 17.1033 35.6754 17.1033Z" fill="white"/>
</svg>
