<svg width="45" height="45" viewBox="0 0 45 45" fill="none" xmlns="http://www.w3.org/2000/svg">
<circle cx="22.5" cy="22.5" r="22.5" fill="#5536b31a"/>
<path d="M29.1406 35H15.8594C12.6285 35 10 32.3715 10 29.1406V15.8594C10 12.6285 12.6285 10 15.8594 10H29.1406C32.3715 10 35 12.6285 35 15.8594V29.1406C35 32.3715 32.3715 35 29.1406 35ZM15.8594 11.9531C13.7055 11.9531 11.9531 13.7055 11.9531 15.8594V29.1406C11.9531 31.2945 13.7055 33.0469 15.8594 33.0469H29.1406C31.2945 33.0469 33.0469 31.2945 33.0469 29.1406V15.8594C33.0469 13.7055 31.2945 11.9531 29.1406 11.9531H15.8594ZM30.7031 22.5C30.7031 21.9606 30.2659 21.5234 29.7266 21.5234H22.8418C22.3024 21.5234 21.8652 21.9606 21.8652 22.5C21.8652 23.0394 22.3024 23.4766 22.8418 23.4766H29.7266C30.2659 23.4766 30.7031 23.0394 30.7031 22.5ZM27.2852 18.7402C27.2852 18.2009 26.8479 17.7637 26.3086 17.7637H17.1777C16.6384 17.7637 16.2012 18.2009 16.2012 18.7402C16.2012 19.2796 16.6384 19.7168 17.1777 19.7168H26.3086C26.8479 19.7168 27.2852 19.2796 27.2852 18.7402ZM20.3027 14.9316C20.3027 14.3923 19.8655 13.9551 19.3262 13.9551H15.2246C14.6853 13.9551 14.248 14.3923 14.248 14.9316C14.248 15.471 14.6853 15.9082 15.2246 15.9082H19.3262C19.8655 15.9082 20.3027 15.471 20.3027 14.9316ZM29.2383 26.3086C29.2383 25.7692 28.8011 25.332 28.2617 25.332H20.1074C19.5681 25.332 19.1309 25.7692 19.1309 26.3086C19.1309 26.8479 19.5681 27.2852 20.1074 27.2852H28.2617C28.8011 27.2852 29.2383 26.8479 29.2383 26.3086ZM30.5566 30.1172C30.5566 29.5778 30.1194 29.1406 29.5801 29.1406H27.4316C26.8923 29.1406 26.4551 29.5778 26.4551 30.1172C26.4551 30.6565 26.8923 31.0938 27.4316 31.0938H29.5801C30.1194 31.0938 30.5566 30.6565 30.5566 30.1172Z" fill="#5536b3"/>
</svg>
