<svg width="20" height="21" viewBox="0 0 20 21" fill="none" xmlns="http://www.w3.org/2000/svg">
<path fill-rule="evenodd" clip-rule="evenodd" d="M14.2414 4.11941e-07H5.7588C4.95383 -1.19578e-05 4.28946 -2.21655e-05 3.74827 0.0441949C3.18617 0.0901201 2.66947 0.188684 2.18413 0.435975C1.43149 0.819469 0.819564 1.43139 0.43607 2.18404C0.18878 2.66937 0.0902153 3.18608 0.0442901 3.74818C7.27288e-05 4.28937 8.32179e-05 4.95373 9.59733e-05 5.7587L4.72167e-05 12.1376C-0.000383487 12.933 -0.00070332 13.5236 0.136393 14.0353C0.506262 15.4156 1.58445 16.4938 2.96482 16.8637C3.27229 16.9461 3.60829 16.9789 4.0001 16.9918L4.00009 18.371C4.00005 18.6062 4 18.846 4.01785 19.0425C4.03492 19.2305 4.08012 19.5852 4.32778 19.8955C4.61276 20.2525 5.0449 20.4602 5.50172 20.4597C5.8987 20.4593 6.20394 20.273 6.36137 20.1689C6.52597 20.06 6.7132 19.9102 6.89688 19.7632L9.31 17.8327C9.82859 17.4178 9.98255 17.3007 10.1425 17.219C10.303 17.137 10.4738 17.0771 10.6504 17.0408C10.8263 17.0047 11.0197 17 11.6838 17H14.2414C15.0464 17 15.7107 17 16.2519 16.9558C16.814 16.9099 17.3307 16.8113 17.8161 16.564C18.5687 16.1805 19.1806 15.5686 19.5641 14.816C19.8114 14.3306 19.91 13.8139 19.9559 13.2518C20.0001 12.7106 20.0001 12.0463 20.0001 11.2413V5.75868C20.0001 4.95372 20.0001 4.28936 19.9559 3.74818C19.91 3.18608 19.8114 2.66937 19.5641 2.18404C19.1806 1.43139 18.5687 0.819468 17.8161 0.435975C17.3307 0.188684 16.814 0.0901201 16.2519 0.0441949C15.7107 -2.21655e-05 15.0464 -1.19578e-05 14.2414 4.11941e-07ZM4.58536 5.28075C4.58536 4.29466 5.38426 3.49577 6.37035 3.49577C6.64883 3.49577 6.87458 3.72152 6.87458 4C6.87458 4.27848 6.64883 4.50423 6.37035 4.50423C5.94122 4.50423 5.59383 4.85163 5.59383 5.28075V7.8417C5.59383 7.97543 5.5407 8.10368 5.44614 8.19825L5.16231 8.48208L5.44614 8.7659C5.5407 8.86047 5.59383 8.98872 5.59383 9.12245V11.6834C5.59383 12.1125 5.94122 12.4599 6.37035 12.4599C6.64883 12.4599 6.87458 12.6857 6.87458 12.9642C6.87458 13.2426 6.64883 13.4684 6.37035 13.4684C5.38426 13.4684 4.58536 12.6695 4.58536 11.6834V9.33131L4.09267 8.83862C3.99811 8.74406 3.94499 8.61581 3.94499 8.48208C3.94499 8.34834 3.99811 8.22009 4.09267 8.12553L4.58536 7.63284V5.28075ZM13.2289 4C13.2289 3.72152 13.4547 3.49577 13.7332 3.49577C14.7193 3.49577 15.5182 4.29466 15.5182 5.28075V7.63284L16.0108 8.12553C16.1054 8.22009 16.1585 8.34834 16.1585 8.48208C16.1585 8.61581 16.1054 8.74406 16.0108 8.83862L15.5182 9.33131V11.6834C15.5182 12.6696 14.7186 13.4684 13.7332 13.4684C13.4547 13.4684 13.2289 13.2426 13.2289 12.9642C13.2289 12.6857 13.4547 12.4599 13.7332 12.4599C14.1619 12.4599 14.5097 12.1124 14.5097 11.6834V9.12245C14.5097 8.98872 14.5628 8.86047 14.6574 8.7659L14.9412 8.48208L14.6574 8.19825C14.5628 8.10368 14.5097 7.97543 14.5097 7.8417V5.28075C14.5097 4.85163 14.1623 4.50423 13.7332 4.50423C13.4547 4.50423 13.2289 4.27848 13.2289 4ZM6.74577 8.48209C6.74577 8.04889 7.09694 7.69772 7.53013 7.69772C7.96332 7.69772 8.31449 8.04889 8.31449 8.48209C8.31449 8.91528 7.96332 9.26645 7.53013 9.26645C7.09694 9.26645 6.74577 8.91528 6.74577 8.48209ZM9.26693 8.48209C9.26693 8.04889 9.6181 7.69772 10.0513 7.69772C10.4845 7.69772 10.8357 8.04889 10.8357 8.48209C10.8357 8.91528 10.4845 9.26645 10.0513 9.26645C9.6181 9.26645 9.26693 8.91528 9.26693 8.48209ZM11.7881 8.48209C11.7881 8.04889 12.1393 7.69772 12.5725 7.69772C13.0057 7.69772 13.3568 8.04889 13.3568 8.48209C13.3568 8.91528 13.0057 9.26645 12.5725 9.26645C12.1393 9.26645 11.7881 8.91528 11.7881 8.48209Z" fill="#EDEFF3"/>
</svg>
