<svg width="24" height="24" viewBox="0 0 24 24" fill="none" xmlns="http://www.w3.org/2000/svg">
<g clip-path="url(#clip0_2303_4918)">
<path fill-rule="evenodd" clip-rule="evenodd" d="M7.2 1H7.16146H7.16142C6.63429 0.999984 6.17954 0.999969 5.80497 1.03057C5.40963 1.06287 5.01641 1.13419 4.63803 1.32698C4.07354 1.6146 3.6146 2.07354 3.32698 2.63803C3.13419 3.01641 3.06287 3.40963 3.03057 3.80497C2.99997 4.17954 2.99998 4.63429 3 5.16142V5.16146V5.2V18.8V18.8385V18.8386C2.99998 19.3657 2.99997 19.8205 3.03057 20.195C3.06287 20.5904 3.13419 20.9836 3.32698 21.362C3.6146 21.9265 4.07355 22.3854 4.63803 22.673C5.01641 22.8658 5.40963 22.9371 5.80497 22.9694C6.17954 23 6.6343 23 7.16144 23H7.2H15.9209C15.5897 22.8329 15.247 22.6834 14.9451 22.5518C14.7825 22.4809 14.6318 22.4152 14.5011 22.3546C14.1632 22.1981 13.2652 21.5472 12.5529 21H7.2C6.62345 21 6.25118 20.9992 5.96784 20.9761C5.69618 20.9539 5.59546 20.9162 5.54601 20.891C5.35785 20.7951 5.20487 20.6422 5.109 20.454C5.0838 20.4046 5.04613 20.3038 5.02393 20.0322C5.00078 19.7488 5 19.3766 5 18.8V5.2C5 4.62345 5.00078 4.25118 5.02393 3.96784C5.04613 3.69618 5.0838 3.59546 5.109 3.54601C5.20487 3.35785 5.35785 3.20487 5.54601 3.109C5.59546 3.0838 5.69618 3.04613 5.96784 3.02393C6.25118 3.00078 6.62345 3 7.2 3H8V3.4L8 3.4319C7.99997 3.68428 7.99994 3.93007 8.01695 4.13823C8.03562 4.36683 8.07969 4.63656 8.21799 4.90798C8.40974 5.28431 8.7157 5.59027 9.09202 5.78202C9.36345 5.92031 9.63318 5.96438 9.86177 5.98306C10.0699 6.00006 10.3157 6.00004 10.5681 6.00001L10.6 6H13.4L13.4319 6.00001C13.6843 6.00004 13.9301 6.00006 14.1382 5.98306C14.3668 5.96438 14.6366 5.92031 14.908 5.78202C15.2843 5.59027 15.5903 5.28431 15.782 4.90798C15.9203 4.63656 15.9644 4.36683 15.9831 4.13823C16.0001 3.93007 16 3.68427 16 3.43188L16 3.4V3H16.8C17.3766 3 17.7488 3.00078 18.0322 3.02393C18.3038 3.04613 18.4045 3.0838 18.454 3.109C18.6422 3.20487 18.7951 3.35785 18.891 3.54601C18.9162 3.59546 18.9539 3.69618 18.9761 3.96784C18.9992 4.25118 19 4.62345 19 5.2V13.2561C19.3822 13.8647 19.8818 14.6961 20.0626 15.0702C20.2006 15.3559 20.4205 16.149 20.6402 16.9412C20.7652 17.3922 20.8902 17.843 21 18.1998V5.2V5.16144C21 4.6343 21 4.17954 20.9694 3.80497C20.9371 3.40963 20.8658 3.01641 20.673 2.63803C20.3854 2.07354 19.9265 1.6146 19.362 1.32698C18.9836 1.13419 18.5904 1.06287 18.195 1.03057C17.8205 0.999969 17.3657 0.999984 16.8386 1H16.8385H16.8H15H9H7.2ZM10 3H14V3.4C14 3.69653 13.9992 3.85878 13.9897 3.97537L13.9886 3.98855L13.9754 3.9897C13.8588 3.99922 13.6965 4 13.4 4H10.6C10.3035 4 10.1412 3.99922 10.0246 3.9897L10.0115 3.98855L10.0103 3.97537C10.0008 3.85878 10 3.69653 10 3.4V3Z" fill="#EDEFF3"/>
<path d="M18.1103 23.0017C18.1103 23.0017 16.7208 21.6782 16.2826 21.4794C15.8444 21.2806 15.1884 20.9434 14.8896 20.8061C14.4839 20.6182 12.9324 19.4189 12.8331 19.2919C12.1666 18.4441 11.134 17.5539 10.8959 17.4117C10.4693 17.1514 9.73858 17.1818 9.73471 16.9158C9.73301 16.6549 10.5642 16.0231 11.3895 16.298C12.2155 16.5746 13.3841 17.6129 13.3841 17.6129C13.3841 17.6129 13.1419 16.9027 12.9108 16.4758C12.677 16.048 11.5535 14.1191 11.3303 13.7112C11.1051 13.3041 10.224 11.6616 10.1377 11.3873C10.0515 11.113 9.793 10.6427 10.2888 10.3715C10.7471 10.1219 11.0689 10.4989 11.3245 10.9176C11.5801 11.3364 12.2985 12.627 12.6269 13.137C12.9428 13.628 13.5344 14.6308 13.7591 14.7744C13.9846 14.9198 14.3247 14.8776 14.3247 14.8776C14.3247 14.8776 14.2141 14.2546 14.16 13.9628C14.1354 13.8311 14.026 13.2948 14.6108 13.0757C15.1573 12.8705 15.5162 13.4146 15.5162 13.4146C15.5162 13.4146 15.6489 13.2255 15.9029 13.1604C16.1741 13.0921 16.3776 13.1736 16.559 13.4084C16.6264 13.4979 16.7748 13.7484 16.7748 13.7484C16.7748 13.7484 16.8964 13.566 17.1559 13.531C17.4147 13.4942 17.6249 13.7534 17.738 13.8969C17.8531 14.0396 18.6447 15.0929 18.8454 15.5082C19.0468 15.9251 19.5753 18.1828 19.758 18.4879C19.9388 18.7938 21.5957 21.0475 21.5957 21.0475L22.9986 23L20.5997 23.0017L18.1142 23L18.1103 23.0017Z" fill="#EDEFF3"/>
</g>
<defs>
<clipPath id="clip0_2303_4918">
<rect width="24" height="24" fill="white"/>
</clipPath>
</defs>
</svg>
