<svg width="18" height="18" viewBox="0 0 18 18" fill="none" xmlns="http://www.w3.org/2000/svg">
<path d="M5.06903 1.5H12.931C13.5347 1.49999 14.033 1.49999 14.4389 1.53315C14.8604 1.56759 15.248 1.64151 15.612 1.82698C16.1765 2.1146 16.6354 2.57354 16.923 3.13803C17.1085 3.50203 17.1824 3.88956 17.2169 4.31113C17.2301 4.47382 17.2385 4.63686 17.2437 4.80008C17.2566 5.20664 17.2631 5.40994 17.1833 5.57555C17.1145 5.71824 16.9949 5.84173 16.8545 5.91498C16.6915 6 16.4776 6 16.05 6H1.95C1.52236 6 1.30854 6 1.14554 5.91498C1.00511 5.84173 0.885475 5.71824 0.816725 5.57555C0.736924 5.40993 0.743382 5.20665 0.7563 4.80008C0.761485 4.63686 0.769856 4.47382 0.783148 4.31113C0.817592 3.88956 0.891515 3.50203 1.07698 3.13803C1.3646 2.57354 1.82355 2.1146 2.38803 1.82698C2.75203 1.64151 3.13956 1.56759 3.56113 1.53315C3.96702 1.49998 4.46531 1.49999 5.06903 1.5Z" fill="url(#paint0_linear_6_7)"/>
<path fill-rule="evenodd" clip-rule="evenodd" d="M17.25 8.7V12.181C17.25 12.7847 17.25 13.283 17.2169 13.6889C17.1824 14.1104 17.1085 14.498 16.923 14.862C16.6354 15.4265 16.1765 15.8854 15.612 16.173C15.248 16.3585 14.8604 16.4324 14.4389 16.4669C14.033 16.5 13.5347 16.5 12.9309 16.5L5.06908 16.5C4.46533 16.5 3.96704 16.5 3.56113 16.4669C3.13956 16.4324 2.75203 16.3585 2.38803 16.173C1.82354 15.8854 1.3646 15.4265 1.07698 14.862C0.891515 14.498 0.817592 14.1104 0.783148 13.6889C0.749985 13.283 0.749993 12.7847 0.750002 12.181V8.7C0.750002 8.27996 0.750002 8.06994 0.831747 7.90951C0.903652 7.76839 1.01839 7.65365 1.15951 7.58175C1.31994 7.5 1.52996 7.5 1.95 7.5H16.05C16.47 7.5 16.6801 7.5 16.8405 7.58175C16.9816 7.65365 17.0964 7.76839 17.1683 7.90951C17.25 8.06994 17.25 8.27997 17.25 8.7Z" fill="url(#paint1_linear_6_7)"/>
<defs>
<linearGradient id="paint0_linear_6_7" x1="9" y1="1.5" x2="9" y2="16.5" gradientUnits="userSpaceOnUse">
<stop stop-color="#5B22FF"/>
<stop offset="1" stop-color="#2D68FF"/>
</linearGradient>
<linearGradient id="paint1_linear_6_7" x1="9" y1="1.5" x2="9" y2="16.5" gradientUnits="userSpaceOnUse">
<stop stop-color="#5B22FF"/>
<stop offset="1" stop-color="#2D68FF"/>
</linearGradient>
</defs>
</svg>
