<svg width="15" height="15" viewBox="0 0 15 15" fill="none" xmlns="http://www.w3.org/2000/svg">
<path d="M7.49937 0C3.35812 0 0 3.29938 0 7.36938C0 10.6256 2.14875 13.3875 5.12937 14.3619C5.50437 14.43 5.64125 14.2025 5.64125 14.0069C5.64125 13.8319 5.635 13.3688 5.63062 12.7538C3.545 13.1988 3.10438 11.7656 3.10438 11.7656C2.76313 10.9144 2.27187 10.6875 2.27187 10.6875C1.59062 10.2306 2.32313 10.2394 2.32313 10.2394C3.07625 10.2919 3.47187 10.9994 3.47187 10.9994C4.14062 12.125 5.22813 11.8 5.655 11.6119C5.72313 11.1356 5.91688 10.8106 6.13125 10.6263C4.46563 10.4406 2.71437 9.8075 2.71437 6.98438C2.71437 6.18 3.00687 5.52187 3.48687 5.00687C3.40937 4.82062 3.15188 4.07062 3.56063 3.05687C3.56063 3.05687 4.19 2.85812 5.62312 3.81187C6.23531 3.64798 6.86625 3.56457 7.5 3.56375C8.1375 3.56688 8.77875 3.64812 9.37813 3.81187C10.8094 2.85812 11.4375 3.05625 11.4375 3.05625C11.8469 4.07062 11.5894 4.82063 11.5125 5.00625C11.9938 5.52125 12.2831 6.18 12.2831 6.98438C12.2831 9.81563 10.5294 10.4381 8.85938 10.6206C9.12813 10.8481 9.36813 11.2981 9.36813 11.9856C9.36813 12.9706 9.35875 13.765 9.35875 14.0069C9.35875 14.2037 9.49437 14.4331 9.87437 14.3613C12.8531 13.385 15 10.625 15 7.36938C15 3.3 11.6419 0 7.49937 0Z" fill="#495159"/>
<mask id="mask0_3_31" style="mask-type:luminance" maskUnits="userSpaceOnUse" x="0" y="0" width="15" height="15">
<path d="M7.49937 0C3.35812 0 0 3.29938 0 7.36938C0 10.6256 2.14875 13.3875 5.12937 14.3619C5.50437 14.43 5.64125 14.2025 5.64125 14.0069C5.64125 13.8319 5.635 13.3688 5.63062 12.7538C3.545 13.1988 3.10438 11.7656 3.10438 11.7656C2.76313 10.9144 2.27187 10.6875 2.27187 10.6875C1.59062 10.2306 2.32313 10.2394 2.32313 10.2394C3.07625 10.2919 3.47187 10.9994 3.47187 10.9994C4.14062 12.125 5.22813 11.8 5.655 11.6119C5.72313 11.1356 5.91688 10.8106 6.13125 10.6263C4.46563 10.4406 2.71437 9.8075 2.71437 6.98438C2.71437 6.18 3.00687 5.52187 3.48687 5.00687C3.40937 4.82062 3.15188 4.07062 3.56063 3.05687C3.56063 3.05687 4.19 2.85812 5.62312 3.81187C6.23531 3.64798 6.86625 3.56457 7.5 3.56375C8.1375 3.56688 8.77875 3.64812 9.37813 3.81187C10.8094 2.85812 11.4375 3.05625 11.4375 3.05625C11.8469 4.07062 11.5894 4.82063 11.5125 5.00625C11.9938 5.52125 12.2831 6.18 12.2831 6.98438C12.2831 9.81563 10.5294 10.4381 8.85938 10.6206C9.12813 10.8481 9.36813 11.2981 9.36813 11.9856C9.36813 12.9706 9.35875 13.765 9.35875 14.0069C9.35875 14.2037 9.49437 14.4331 9.87437 14.3613C12.8531 13.385 15 10.625 15 7.36938C15 3.3 11.6419 0 7.49937 0Z" fill="black"/>
</mask>
<g mask="url(#mask0_3_31)">
<path fill-rule="evenodd" clip-rule="evenodd" d="M0 0H15V15H0V0Z" fill="#495159"/>
</g>
</svg>
