<svg width="15" height="15" viewBox="0 0 15 15" fill="none" xmlns="http://www.w3.org/2000/svg">
<g clip-path="url(#clip0_14_22)">
<path fill-rule="evenodd" clip-rule="evenodd" d="M8.12309 6.73681V6.71489C8.11861 6.72224 8.11241 6.72959 8.10852 6.73681H8.12309Z" fill="#FE5100"/>
<path fill-rule="evenodd" clip-rule="evenodd" d="M0 0V15H15V0H0ZM4.66556 12.4616H2.44009V5.76613H4.66556V12.4616ZM3.55282 4.85229H3.53812C2.79158 4.85229 2.30769 4.33797 2.30769 3.69511C2.30769 3.03814 2.80573 2.5384 3.5674 2.5384C4.32923 2.5384 4.7974 3.03814 4.81197 3.69511C4.81197 4.33797 4.32923 4.85229 3.55282 4.85229ZM12.6923 12.4616H10.4662V8.87951C10.4662 7.9798 10.1446 7.36566 9.33893 7.36566C8.72364 7.36566 8.358 7.77917 8.19692 8.17971C8.13837 8.32279 8.12308 8.52168 8.12308 8.72232V12.4616H5.89658C5.89658 12.4616 5.92642 6.39429 5.89658 5.76617H8.12308V6.71492C8.41889 6.25975 8.94679 5.60898 10.1293 5.60898C11.5943 5.60898 12.6923 6.56568 12.6923 8.6221V12.4616Z" fill="#FE5100"/>
</g>
<defs>
<clipPath id="clip0_14_22">
<rect width="15" height="15" fill="white"/>
</clipPath>
</defs>
</svg>
