<svg width="18" height="18" viewBox="0 0 18 18" fill="none" xmlns="http://www.w3.org/2000/svg">
<path d="M12.375 0.75C9.6826 0.75 7.49999 2.93261 7.49999 5.625C7.49999 5.93075 7.52822 6.23055 7.58243 6.52177L5.25002 4.18936V2.25002C5.25002 1.9272 5.04345 1.64059 4.73719 1.53851L2.48719 0.788508C2.21769 0.698674 1.92056 0.768816 1.71969 0.96969L0.96969 1.71969C0.768816 1.92056 0.698674 2.21769 0.788508 2.48719L1.53851 4.73719C1.64059 5.04345 1.9272 5.25002 2.25002 5.25002H4.18936L6.81433 7.87499L2.09466 12.5947C1.18044 13.5089 1.18044 14.9911 2.09466 15.9053C3.00887 16.8195 4.4911 16.8195 5.40532 15.9053L9.00003 12.3106L12.5947 15.9053C13.5089 16.8195 14.9911 16.8195 15.9053 15.9053C16.8195 14.991 16.8195 13.5088 15.9053 12.5946L13.6439 10.3332C15.721 9.77479 17.25 7.87845 17.25 5.625C17.25 5.14643 17.1808 4.68272 17.0514 4.24397C16.9766 3.99017 16.7735 3.7946 16.5171 3.72932C16.2607 3.66403 15.9888 3.7387 15.8017 3.9258L14.3121 5.4072C14.1309 5.58742 14.0403 5.67753 13.9446 5.72915C13.7217 5.84941 13.4532 5.84904 13.2306 5.72817C13.1351 5.67629 13.0447 5.58593 12.864 5.40521C12.6833 5.22447 12.5929 5.1341 12.541 5.03856C12.4201 4.81595 12.4198 4.54737 12.5401 4.32445C12.5917 4.22878 12.6818 4.13817 12.8621 3.95696L14.4723 2.33838C14.6497 2.161 14.7266 1.90668 14.6774 1.66072C14.6281 1.41475 14.4591 1.20971 14.2271 1.11435C13.6551 0.879266 13.0292 0.75 12.375 0.75Z" fill="url(#paint0_linear_6_5)"/>
<defs>
<linearGradient id="paint0_linear_6_5" x1="8.99999" y1="0.75" x2="8.99999" y2="16.591" gradientUnits="userSpaceOnUse">
<stop stop-color="#5B22FF"/>
<stop offset="1" stop-color="#2D68FF"/>
</linearGradient>
</defs>
</svg>
