<svg width="18" height="18" viewBox="0 0 18 18" fill="none" xmlns="http://www.w3.org/2000/svg">
<path fill-rule="evenodd" clip-rule="evenodd" d="M3.42608 1.5C3.2368 1.49998 3.05245 1.49996 2.89633 1.51271C2.72489 1.52672 2.52259 1.55977 2.31902 1.66349C2.03677 1.8073 1.8073 2.03677 1.66349 2.31902C1.55977 2.52259 1.52672 2.72489 1.51271 2.89633C1.49996 3.05245 1.49998 3.23679 1.5 3.42607L1.5 4.07393C1.49998 4.26321 1.49996 4.44756 1.51271 4.60368C1.52672 4.77512 1.55977 4.97742 1.66349 5.18099C1.8073 5.46323 2.03677 5.6927 2.31902 5.83651C2.52259 5.94024 2.72489 5.97329 2.89633 5.98729C2.92968 5.99002 2.96431 5.99216 3 5.99384V12.0062C2.96431 12.0078 2.92968 12.01 2.89633 12.0127C2.72489 12.0267 2.52259 12.0598 2.31902 12.1635C2.03677 12.3073 1.8073 12.5368 1.66349 12.819C1.55977 13.0226 1.52672 13.2249 1.51271 13.3963C1.49996 13.5524 1.49998 13.7368 1.5 13.9261V14.5739C1.49998 14.7632 1.49996 14.9476 1.51271 15.1037C1.52672 15.2751 1.55977 15.4774 1.66349 15.681C1.8073 15.9632 2.03677 16.1927 2.31902 16.3365C2.52259 16.4402 2.72489 16.4733 2.89633 16.4873C3.05245 16.5001 3.23679 16.5 3.42608 16.5H4.07393C4.26321 16.5 4.44756 16.5001 4.60368 16.4873C4.77512 16.4733 4.97742 16.4402 5.18099 16.3365C5.46323 16.1927 5.6927 15.9632 5.83651 15.681C5.94024 15.4774 5.97329 15.2751 5.98729 15.1037C5.99002 15.0703 5.99216 15.0357 5.99384 15H12.0062C12.0078 15.0357 12.01 15.0703 12.0127 15.1037C12.0267 15.2751 12.0598 15.4774 12.1635 15.681C12.3073 15.9632 12.5368 16.1927 12.819 16.3365C13.0226 16.4402 13.2249 16.4733 13.3963 16.4873C13.5524 16.5001 13.7368 16.5 13.9261 16.5H14.5739C14.7632 16.5 14.9476 16.5001 15.1037 16.4873C15.2751 16.4733 15.4774 16.4402 15.681 16.3365C15.9632 16.1927 16.1927 15.9632 16.3365 15.681C16.4402 15.4774 16.4733 15.2751 16.4873 15.1037C16.5001 14.9476 16.5 14.7632 16.5 14.5739V13.9261C16.5 13.7368 16.5001 13.5524 16.4873 13.3963C16.4733 13.2249 16.4402 13.0226 16.3365 12.819C16.1927 12.5368 15.9632 12.3073 15.681 12.1635C15.4774 12.0598 15.2751 12.0267 15.1037 12.0127C15.0703 12.01 15.0357 12.0078 15 12.0062V5.99384C15.0357 5.99216 15.0703 5.99002 15.1037 5.98729C15.2751 5.97329 15.4774 5.94024 15.681 5.83651C15.9632 5.6927 16.1927 5.46323 16.3365 5.18099C16.4402 4.97742 16.4733 4.77512 16.4873 4.60368C16.5001 4.44756 16.5 4.26321 16.5 4.07393V3.42608C16.5 3.23679 16.5001 3.05245 16.4873 2.89633C16.4733 2.72489 16.4402 2.52259 16.3365 2.31902C16.1927 2.03677 15.9632 1.8073 15.681 1.66349C15.4774 1.55977 15.2751 1.52672 15.1037 1.51271C14.9476 1.49996 14.7632 1.49998 14.5739 1.5H13.9261C13.7368 1.49998 13.5524 1.49996 13.3963 1.51271C13.2249 1.52672 13.0226 1.55977 12.819 1.66349C12.5368 1.8073 12.3073 2.03677 12.1635 2.31902C12.0598 2.52259 12.0267 2.72489 12.0127 2.89633C12.01 2.92968 12.0078 2.96431 12.0062 3L5.99384 3C5.99216 2.96431 5.99002 2.92968 5.98729 2.89633C5.97329 2.72489 5.94024 2.52259 5.83651 2.31902C5.6927 2.03677 5.46323 1.8073 5.18099 1.66349C4.97742 1.55977 4.77512 1.52672 4.60368 1.51271C4.44756 1.49996 4.26322 1.49998 4.07394 1.5L3.42608 1.5ZM13.5 12.0062V5.99384C13.4643 5.99216 13.4297 5.99002 13.3963 5.98729C13.2249 5.97329 13.0226 5.94024 12.819 5.83651C12.5368 5.6927 12.3073 5.46323 12.1635 5.18099C12.0598 4.97742 12.0267 4.77512 12.0127 4.60368C12.01 4.57033 12.0078 4.5357 12.0062 4.5L5.99384 4.5C5.99216 4.5357 5.99002 4.57033 5.98729 4.60368C5.97329 4.77512 5.94024 4.97742 5.83651 5.18099C5.6927 5.46323 5.46323 5.6927 5.18099 5.83651C4.97742 5.94024 4.77512 5.97329 4.60368 5.98729C4.57033 5.99002 4.5357 5.99216 4.5 5.99384V12.0062C4.5357 12.0078 4.57033 12.01 4.60368 12.0127C4.77512 12.0267 4.97742 12.0598 5.18099 12.1635C5.46323 12.3073 5.6927 12.5368 5.83651 12.819C5.94024 13.0226 5.97329 13.2249 5.98729 13.3963C5.99002 13.4297 5.99216 13.4643 5.99384 13.5H12.0062C12.0078 13.4643 12.01 13.4297 12.0127 13.3963C12.0267 13.2249 12.0598 13.0226 12.1635 12.819C12.3073 12.5368 12.5368 12.3073 12.819 12.1635C13.0226 12.0598 13.2249 12.0267 13.3963 12.0127C13.4297 12.01 13.4643 12.0078 13.5 12.0062Z" fill="url(#paint0_linear_13_16)"/>
<defs>
<linearGradient id="paint0_linear_13_16" x1="9" y1="1.5" x2="9" y2="16.5" gradientUnits="userSpaceOnUse">
<stop stop-color="#5B22FF"/>
<stop offset="1" stop-color="#2D68FF"/>
</linearGradient>
</defs>
</svg>
