<svg width="14" height="15" viewBox="0 0 14 15" fill="none" xmlns="http://www.w3.org/2000/svg">
<path d="M10.0598 1.70109H3.60325C3.0114 1.70109 2.52716 2.18533 2.52716 2.77717V11.3859C2.52716 11.9777 3.0114 12.462 3.60325 12.462H10.0598C10.6516 12.462 11.1359 11.9777 11.1359 11.3859V2.77717C11.1359 2.18533 10.6516 1.70109 10.0598 1.70109ZM3.60325 2.77717H6.29346V7.08152L4.94836 6.27446L3.60325 7.08152V2.77717Z" fill="#12A353"/>
<path d="M3.96194 13.2856V13.6567C3.96194 14.269 4.44618 14.77 5.03803 14.77H12.5706C13.1625 14.77 13.6467 14.269 13.6467 13.6567V5.86333C13.6467 5.251 13.1625 4.75 12.5706 4.75H12.2119V13.2856H3.96194Z" fill="#12A353"/>
</svg>
