<svg width="20" height="20" viewBox="0 0 20 20" fill="none" xmlns="http://www.w3.org/2000/svg">
<path fill-rule="evenodd" clip-rule="evenodd" d="M9.99967 0.833374C4.93706 0.833374 0.833008 4.93743 0.833008 10C0.833008 15.0627 4.93706 19.1667 9.99967 19.1667C15.0623 19.1667 19.1663 15.0627 19.1663 10C19.1663 4.93743 15.0623 0.833374 9.99967 0.833374ZM7.99946 6.76344C7.91634 6.87447 7.91634 7.07334 7.91634 7.47107V12.5289C7.91634 12.9266 7.91634 13.1255 7.99946 13.2365C8.07189 13.3332 8.18277 13.3938 8.30332 13.4024C8.44166 13.4123 8.60894 13.3047 8.94351 13.0896L12.8773 10.5607C13.1677 10.3741 13.3128 10.2808 13.363 10.1621C13.4068 10.0585 13.4068 9.94147 13.363 9.83779C13.3128 9.71913 13.1677 9.62581 12.8773 9.43918L8.94351 6.91029C8.60894 6.69521 8.44166 6.58767 8.30332 6.59755C8.18277 6.60616 8.07189 6.66669 7.99946 6.76344Z" fill="url(#paint0_linear_2303_3163)"/>
<defs>
<linearGradient id="paint0_linear_2303_3163" x1="9.99966" y1="0.833372" x2="9.99966" y2="19.1667" gradientUnits="userSpaceOnUse">
<stop stop-color="#5B22FF"/>
<stop offset="1" stop-color="#2D68FF"/>
</linearGradient>
</defs>
</svg>
