<svg width="178" height="31" viewBox="0 0 178 31" fill="none" xmlns="http://www.w3.org/2000/svg">
<path d="M49.6938 30.482L61.6293 1.72539H67.75L79.7238 30.482H73.2205L63.4273 5.09402H65.8756L56.0441 30.482H49.6938ZM55.6616 24.3198L57.3065 19.2669H71.0782L72.7614 24.3198H55.6616Z" fill="white"/>
<path d="M82.1367 30.482V0H88.1044V30.482H82.1367Z" fill="white"/>
<path d="M138.939 30.4928L150.875 1.73621H156.995L168.969 30.4928H162.466L152.673 5.10483H155.121L145.289 30.4928H138.939ZM144.907 24.3306L146.552 19.2777H160.323L162.007 24.3306H144.907Z" fill="white"/>
<path d="M171.803 30.4928V1.73621H178V30.4928H171.803Z" fill="white"/>
<path d="M125.313 9.61182C126.834 9.61182 128.189 9.94367 129.377 10.6074C130.59 11.2456 131.541 12.2411 132.23 13.5941C132.919 14.9215 133.264 16.6318 133.264 18.7251V30.5187H127.702V19.6441C127.702 17.9848 127.357 16.7595 126.668 15.9681C126.002 15.1768 125.051 14.7811 123.815 14.7811C122.935 14.7811 122.139 14.9853 121.426 15.3938C120.737 15.7767 120.19 16.3766 119.786 17.1934C119.405 18.0103 119.215 19.0569 119.215 20.3333V30.5187H113.653V9.91814H118.966V15.6235L117.967 13.9004C118.657 12.5219 119.643 11.4625 120.927 10.7223C122.21 9.98196 123.672 9.61182 125.313 9.61182Z" fill="white"/>
<path d="M98.3042 30.8647C96.9353 30.8647 95.6738 30.5991 94.5197 30.0679C93.3924 29.5101 92.4932 28.7664 91.8222 27.8368C91.178 26.9071 90.856 25.8846 90.856 24.769C90.856 22.9629 91.5941 21.502 93.0703 20.3865C94.5465 19.2709 96.573 18.5139 99.1497 18.1155L104.665 17.3187V16.482C104.665 15.3134 104.37 14.4369 103.78 13.8525C103.189 13.2682 102.236 12.976 100.921 12.976C100.035 12.976 99.3107 13.1487 98.747 13.4939C98.2102 13.8127 97.7808 14.1314 97.4587 14.4501C97.1366 14.7954 96.7457 15.4993 96.6383 15.6055H92.2248C92.2248 15.2977 92.2056 15.1513 92.2248 14.6761C92.2517 14.0121 92.5737 13.308 93.1911 12.4581C93.8352 11.6081 94.8149 10.8777 96.1301 10.2668C97.4453 9.65591 99.0557 9.35046 100.961 9.35046C104.129 9.35046 106.782 10.0543 108.231 11.462C109.68 12.8698 110.405 14.7157 110.405 17V29.5101C110.405 29.7757 110.405 30.4663 110.405 30.4663H104.867C104.867 30.4663 104.867 29.7757 104.867 29.5101V27.9563C104.276 28.8062 103.431 29.5101 102.33 30.0679C101.257 30.5991 99.9146 30.8647 98.3042 30.8647ZM99.673 27.0798C101.149 27.0798 102.357 26.6017 103.297 25.6455C104.236 24.6893 104.706 23.2949 104.706 21.4622V20.6255L100.68 21.263C99.1228 21.502 97.9418 21.8872 97.1366 22.4184C96.3583 22.9496 95.9691 23.6003 95.9691 24.3706C95.9691 25.2205 96.3314 25.8845 97.0561 26.3626C97.7808 26.8407 98.6531 27.0798 99.673 27.0798Z" fill="white"/>
<path d="M28.2745 0.000244141H15.7638L0.00958845 30.4819H12.1728L28.2745 0.000244141Z" fill="url(#paint0_linear_142_1409)"/>
<path d="M27.8894 30.4819L22.0974 19.5956H5.62374L7.25737e-05 30.4819H27.8894Z" fill="url(#paint1_linear_142_1409)"/>
<path d="M12.1717 30.4819L17.9221 19.5956H5.63307L0.00940337 30.4819H12.1717Z" fill="url(#paint2_linear_142_1409)"/>
<path d="M15.7396 0H28.2503L44.0046 30.4817H31.8414L15.7396 0Z" fill="url(#paint3_linear_142_1409)"/>
<defs>
<linearGradient id="paint0_linear_142_1409" x1="7.04929" y1="36.355" x2="-5.35667" y2="6.50252" gradientUnits="userSpaceOnUse">
<stop stop-color="#1970E3"/>
<stop offset="1" stop-color="#115FC6"/>
</linearGradient>
<linearGradient id="paint1_linear_142_1409" x1="32.7086" y1="22.442" x2="29.8958" y2="35.7088" gradientUnits="userSpaceOnUse">
<stop stop-color="#62BBFF"/>
<stop offset="1" stop-color="#009DFF"/>
</linearGradient>
<linearGradient id="paint2_linear_142_1409" x1="3.47985" y1="31.9511" x2="1.60686" y2="20.5802" gradientUnits="userSpaceOnUse">
<stop stop-color="#32BEFF"/>
<stop offset="1" stop-color="#5ECCFF"/>
</linearGradient>
<linearGradient id="paint3_linear_142_1409" x1="9.57257" y1="7.96984" x2="26.181" y2="37.4207" gradientUnits="userSpaceOnUse">
<stop stop-color="#62BBFF"/>
<stop offset="1" stop-color="#009DFF"/>
</linearGradient>
</defs>
</svg>
