<svg width="20" height="17" viewBox="0 0 20 17" fill="none" xmlns="http://www.w3.org/2000/svg">
<path d="M15.476 6.96638C15.5498 7.04172 15.5867 7.07938 15.5885 7.08115C15.7529 7.24505 15.8556 7.26226 16.0645 7.16094C16.5456 6.92757 17.0214 6.68252 17.4996 6.44338V6.43177L18.7057 5.82874C18.988 5.68758 19.1663 5.39903 19.1663 5.08339C19.1663 4.76774 18.988 4.47919 18.7057 4.33803L10.6492 0.309627C10.5714 0.269953 10.4105 0.187843 10.2302 0.154004C10.0778 0.125423 9.92151 0.125423 9.76918 0.154004C9.58881 0.187843 9.42791 0.269951 9.35016 0.309626L1.29366 4.33803C1.01134 4.47919 0.833008 4.76774 0.833008 5.08339C0.833008 5.39903 1.01134 5.68758 1.29366 5.82874L9.40339 9.89522C9.62203 10.0045 9.73135 10.0592 9.84601 10.0807C9.94757 10.0998 10.0518 10.0998 10.1533 10.0807C10.268 10.0592 10.3773 10.0045 10.596 9.89522L12.9774 8.70448C13.3603 8.51307 13.5517 8.41737 13.6133 8.28772C13.6669 8.17488 13.667 8.04395 13.6137 7.93099C13.5524 7.80118 13.3613 7.705 12.9789 7.51265L10.4603 6.24554C10.0487 6.03971 9.88181 5.53915 10.0876 5.1275C10.2935 4.71586 10.794 4.549 11.2057 4.75483L15.03 6.66675C15.125 6.71309 15.3221 6.80921 15.476 6.96638Z" fill="url(#paint0_linear_2303_3170)"/>
<path d="M13.6952 10.209C13.9116 10.1008 14.1663 10.2582 14.1663 10.5002C14.1663 10.9604 14.5394 11.3335 14.9997 11.3335C15.4599 11.3335 15.833 10.9604 15.833 10.5002V9.55212C15.833 9.40255 15.833 9.32777 15.8558 9.26174C15.8759 9.20336 15.9088 9.15018 15.952 9.10606C16.0008 9.05616 16.0677 9.02272 16.2015 8.95583L16.5349 8.78913C16.8544 8.6294 17.0141 8.54954 17.1439 8.56872C17.2573 8.58547 17.3588 8.64818 17.4245 8.74209C17.4997 8.84965 17.4997 9.02823 17.4997 9.38539L17.4998 11.6543C17.5007 11.8923 17.5019 12.1914 17.4029 12.4691C17.3174 12.709 17.1781 12.9261 16.9957 13.1038C16.7844 13.3095 16.5121 13.433 16.2953 13.5314L10.8597 16.0226C10.7015 16.0957 10.5024 16.1876 10.2847 16.2254C10.0961 16.2582 9.90318 16.2582 9.71453 16.2254C9.49685 16.1876 9.29775 16.0957 9.13961 16.0226L3.70398 13.5314C3.48721 13.4331 3.21485 13.3095 3.00359 13.1038C2.82113 12.9261 2.68181 12.709 2.59632 12.4691C2.49735 12.1914 2.49852 11.8923 2.49945 11.6543L2.49953 9.38534C2.49954 9.02818 2.49955 8.8496 2.57477 8.74205C2.64046 8.64813 2.74194 8.58542 2.85531 8.56867C2.98515 8.54949 3.14488 8.62935 3.46434 8.78908L9.32885 11.7213L9.35016 11.7321C9.42791 11.7718 9.58881 11.8539 9.76918 11.8878C9.92151 11.9164 10.0778 11.9164 10.2302 11.8878C10.4105 11.8539 10.5714 11.7718 10.6492 11.7321L10.6705 11.7213L13.6952 10.209Z" fill="url(#paint1_linear_2303_3170)"/>
<defs>
<linearGradient id="paint0_linear_2303_3170" x1="9.99966" y1="0.132566" x2="9.99966" y2="16.25" gradientUnits="userSpaceOnUse">
<stop stop-color="#5B22FF"/>
<stop offset="1" stop-color="#2D68FF"/>
</linearGradient>
<linearGradient id="paint1_linear_2303_3170" x1="9.99966" y1="0.132566" x2="9.99966" y2="16.25" gradientUnits="userSpaceOnUse">
<stop stop-color="#5B22FF"/>
<stop offset="1" stop-color="#2D68FF"/>
</linearGradient>
</defs>
</svg>
