<svg width="15" height="15" viewBox="0 0 15 15" fill="none" xmlns="http://www.w3.org/2000/svg">
<path d="M14.5312 12.1875C14.25 12.1875 14.0625 12 14.0625 11.7188V5.625C14.0625 5.34375 14.25 5.15625 14.5312 5.15625C14.8125 5.15625 15 5.34375 15 5.625V11.7188C15 12 14.8125 12.1875 14.5312 12.1875Z" fill="#9246FF"/>
<path d="M7.5 9.84375C7.40625 9.84375 7.35938 9.84375 7.26562 9.79687L0.234375 6.04687C0.09375 5.95312 0 5.8125 0 5.625C0 5.4375 0.09375 5.29688 0.234375 5.20313L7.26562 1.45312C7.40625 1.35938 7.54687 1.35938 7.6875 1.45312L14.7187 5.20313C14.8594 5.29688 14.9531 5.4375 14.9531 5.625C14.9531 5.8125 14.8594 5.95312 14.7187 6.04687L7.6875 9.79687C7.64062 9.84375 7.59375 9.84375 7.5 9.84375Z" fill="#9246FF"/>
<path d="M8.15625 10.5937C7.96875 10.7344 7.73438 10.7812 7.5 10.7812C7.26562 10.7812 7.03125 10.7344 6.84375 10.5937L2.8125 8.48438V10.3125C2.8125 11.7656 5.10938 13.125 7.5 13.125C9.89062 13.125 12.1875 11.7656 12.1875 10.3125V8.48438L8.15625 10.5937Z" fill="#9246FF"/>
</svg>
