<svg width="15" height="15" viewBox="0 0 15 15" fill="none" xmlns="http://www.w3.org/2000/svg">
<g clip-path="url(#clip0_9_10)">
<path d="M7.5 0C3.35788 0 0 3.35788 0 7.5C0 11.6421 3.35788 15 7.5 15C11.6421 15 15 11.6421 15 7.5C15 3.35788 11.6421 0 7.5 0ZM10.1403 7.83173L6.48784 10.3181C6.36493 10.4018 6.20582 10.4107 6.07438 10.3411C5.94294 10.2716 5.86072 10.1351 5.86072 9.98641V5.0136C5.86072 4.8649 5.94294 4.7284 6.07438 4.65886C6.20582 4.58935 6.36493 4.59817 6.48784 4.68186L10.1403 7.16827C10.25 7.24301 10.3158 7.36719 10.3158 7.5C10.3158 7.63281 10.2501 7.75699 10.1403 7.83173Z" fill="#FE5100"/>
</g>
<defs>
<clipPath id="clip0_9_10">
<rect width="15" height="15" fill="white"/>
</clipPath>
</defs>
</svg>
