<svg width="20" height="18" viewBox="0 0 20 18" fill="none" xmlns="http://www.w3.org/2000/svg">
<path fill-rule="evenodd" clip-rule="evenodd" d="M0.833008 4.13469V12.5344C0.832999 13.2052 0.832991 13.7588 0.869838 14.2098C0.908109 14.6782 0.990246 15.1088 1.19632 15.5133C1.5159 16.1405 2.02583 16.6504 2.65304 16.97C3.05749 17.1761 3.48807 17.2582 3.95649 17.2965C4.40748 17.3333 4.96113 17.3333 5.63193 17.3333H14.3674C15.0382 17.3333 15.5919 17.3333 16.0429 17.2965C16.5113 17.2582 16.9419 17.1761 17.3463 16.97C17.9735 16.6504 18.4835 16.1405 18.803 15.5133C19.0091 15.1088 19.0912 14.6782 19.1295 14.2098C19.1664 13.7588 19.1664 13.2052 19.1663 12.5344V8.79886C19.1664 8.12806 19.1664 7.57443 19.1295 7.12344C19.0912 6.65502 19.0091 6.22444 18.803 5.81999C18.4835 5.19278 17.9735 4.68285 17.3463 4.36327C16.9419 4.1572 16.5113 4.07506 16.0429 4.03679C15.5919 3.99994 15.0382 3.99995 14.3674 3.99996H11.3479L10.6025 2.50882C10.3819 2.06612 10.1878 1.6768 9.88558 1.38076C9.62085 1.12147 9.30178 0.924273 8.95147 0.803442C8.55151 0.665487 8.11652 0.666061 7.62189 0.666715L4.30089 0.666805C3.8616 0.66679 3.48263 0.666777 3.17049 0.69228C2.84103 0.719197 2.51335 0.778627 2.19803 0.939289C1.72763 1.17897 1.34518 1.56142 1.10549 2.03183C0.944833 2.34715 0.885403 2.67483 0.858485 3.00428C0.832983 3.31641 0.832995 3.69542 0.833008 4.13469ZM8.40801 2.37902C8.30749 2.34434 8.17693 2.33347 7.51825 2.33347H4.33301C3.85255 2.33347 3.54232 2.33412 3.30621 2.35341C3.07982 2.37191 2.99589 2.40331 2.95469 2.4243C2.79788 2.50419 2.6704 2.63168 2.59051 2.78848C2.56951 2.82968 2.53811 2.91362 2.51962 3.14C2.50266 3.34759 2.50011 3.61247 2.49974 3.99996L9.48456 3.99996L9.15804 3.34691C8.86347 2.75778 8.79535 2.64586 8.71939 2.57146C8.63114 2.48503 8.52479 2.41929 8.40801 2.37902ZM13.5056 9.17255C13.831 8.84711 13.831 8.31947 13.5056 7.99404C13.1802 7.6686 12.6525 7.6686 12.3271 7.99404L9.16634 11.1548L8.08893 10.0774C7.76349 9.75193 7.23586 9.75193 6.91042 10.0774C6.58498 10.4028 6.58498 10.9304 6.91042 11.2559L8.57709 12.9225C8.90252 13.248 9.43016 13.248 9.7556 12.9225L13.5056 9.17255Z" fill="url(#paint0_linear_2303_3132)"/>
<defs>
<linearGradient id="paint0_linear_2303_3132" x1="9.99966" y1="0.666624" x2="9.99966" y2="17.3333" gradientUnits="userSpaceOnUse">
<stop stop-color="#5B22FF"/>
<stop offset="1" stop-color="#2D68FF"/>
</linearGradient>
</defs>
</svg>
