<svg width="18" height="18" viewBox="0 0 18 18" fill="none" xmlns="http://www.w3.org/2000/svg">
<path fill-rule="evenodd" clip-rule="evenodd" d="M16.1265 0.666626H1.92334C1.24398 0.666626 0.666992 1.20393 0.666992 1.86583V16.1333C0.666992 16.796 1.04556 17.3333 1.72493 17.3333H15.9281C16.6083 17.3333 17.3337 16.796 17.3337 16.1333V1.86583C17.3337 1.20393 16.8067 0.666626 16.1265 0.666626ZM7.0162 7.01583H9.25985V8.15948H9.28445C9.62652 7.54282 10.6368 6.91663 11.886 6.91663C14.2837 6.91663 14.9527 8.18964 14.9527 10.5476V14.9523H12.5718V10.9817C12.5718 9.92615 12.1503 8.99996 11.1646 8.99996C9.96778 8.99996 9.39715 9.81028 9.39715 11.1404V14.9523H7.0162V7.01583ZM3.04794 14.9523H5.4289V7.01583H3.04794V14.9523ZM5.72652 4.23805C5.72652 5.06028 5.06064 5.72615 4.23842 5.72615C3.4162 5.72615 2.75033 5.06028 2.75033 4.23805C2.75033 3.41583 3.4162 2.74996 4.23842 2.74996C5.06064 2.74996 5.72652 3.41583 5.72652 4.23805Z" fill="url(#paint0_linear_2303_3193)"/>
<defs>
<linearGradient id="paint0_linear_2303_3193" x1="9.00031" y1="0.666624" x2="9.00031" y2="17.3333" gradientUnits="userSpaceOnUse">
<stop stop-color="#5B22FF"/>
<stop offset="1" stop-color="#2D68FF"/>
</linearGradient>
</defs>
</svg>
