<svg width="18" height="18" viewBox="0 0 18 18" fill="none" xmlns="http://www.w3.org/2000/svg">
<path fill-rule="evenodd" clip-rule="evenodd" d="M6.75094 0.707764C6.53282 0.707966 6.31687 0.751135 6.11543 0.834805C5.91399 0.918474 5.731 1.04101 5.57692 1.1954C5.42284 1.3498 5.30068 1.53303 5.21743 1.73464C5.13417 1.93626 5.09144 2.15229 5.09168 2.37042C5.09148 2.58852 5.13424 2.80452 5.21751 3.0061C5.30079 3.20767 5.42295 3.39087 5.57703 3.54523C5.73111 3.6996 5.91408 3.8221 6.1155 3.90575C6.31692 3.9894 6.53284 4.03256 6.75094 4.03276H8.4102V2.37042C8.41045 2.15229 8.36772 1.93626 8.28446 1.73464C8.2012 1.53303 8.07905 1.3498 7.92497 1.1954C7.77089 1.04101 7.5879 0.918474 7.38646 0.834805C7.18502 0.751135 6.96907 0.707966 6.75094 0.707764ZM6.75094 5.14141H2.32625C2.10815 5.14161 1.89223 5.18477 1.69081 5.26842C1.48939 5.35207 1.30642 5.47457 1.15234 5.62893C0.998263 5.7833 0.876099 5.9665 0.792824 6.16807C0.709548 6.36965 0.66679 6.58565 0.666993 6.80375C0.66675 7.02188 0.709477 7.23791 0.792735 7.43953C0.875993 7.64114 0.99815 7.82437 1.15223 7.97877C1.30631 8.13316 1.4893 8.25569 1.69074 8.33936C1.89218 8.42303 2.10813 8.4662 2.32625 8.46641H6.75094C6.96907 8.4662 7.18502 8.42303 7.38646 8.33936C7.5879 8.25569 7.77089 8.13316 7.92497 7.97877C8.07905 7.82437 8.2012 7.64114 8.28446 7.43953C8.36772 7.23791 8.41045 7.02188 8.4102 6.80375C8.41041 6.58565 8.36765 6.36965 8.28437 6.16807C8.2011 5.9665 8.07893 5.7833 7.92486 5.62893C7.77078 5.47457 7.58781 5.35207 7.38639 5.26842C7.18497 5.18477 6.96904 5.14161 6.75094 5.14141Z" fill="url(#paint0_linear_2303_3179)"/>
<path fill-rule="evenodd" clip-rule="evenodd" d="M17.2596 6.80375C17.2598 6.58565 17.217 6.36965 17.1338 6.16807C17.0505 5.9665 16.9283 5.7833 16.7742 5.62893C16.6202 5.47457 16.4372 5.35207 16.2358 5.26842C16.0343 5.18477 15.8184 5.14161 15.6003 5.14141C15.3822 5.14161 15.1663 5.18477 14.9649 5.26842C14.7635 5.35207 14.5805 5.47457 14.4264 5.62893C14.2723 5.7833 14.1502 5.9665 14.0669 6.16807C13.9836 6.36965 13.9409 6.58565 13.9411 6.80375V8.46641H15.6003C15.8184 8.4662 16.0344 8.42303 16.2358 8.33936C16.4373 8.25569 16.6203 8.13316 16.7743 7.97877C16.9284 7.82437 17.0506 7.64114 17.1338 7.43953C17.2171 7.23791 17.2598 7.02188 17.2596 6.80375ZM12.8349 6.80375V2.37042C12.8351 2.15229 12.7924 1.93626 12.7092 1.73464C12.6259 1.53303 12.5037 1.3498 12.3497 1.1954C12.1956 1.04101 12.0126 0.918474 11.8111 0.834805C11.6097 0.751135 11.3938 0.707966 11.1756 0.707764C10.9575 0.707966 10.7416 0.751135 10.5401 0.834805C10.3387 0.918474 10.1557 1.04101 10.0016 1.1954C9.84753 1.3498 9.72537 1.53303 9.64212 1.73464C9.55886 1.93626 9.51613 2.15229 9.51637 2.37042V6.80375C9.51613 7.02188 9.55886 7.23791 9.64212 7.43953C9.72537 7.64114 9.84753 7.82437 10.0016 7.97877C10.1557 8.13316 10.3387 8.25569 10.5401 8.33936C10.7416 8.42303 10.9575 8.4662 11.1756 8.46641C11.3938 8.4662 11.6097 8.42303 11.8111 8.33936C12.0126 8.25569 12.1956 8.13316 12.3497 7.97877C12.5037 7.82437 12.6259 7.64114 12.7092 7.43953C12.7924 7.23791 12.8351 7.02188 12.8349 6.80375Z" fill="url(#paint1_linear_2303_3179)"/>
<path fill-rule="evenodd" clip-rule="evenodd" d="M11.1756 17.3334C11.3938 17.3332 11.6097 17.29 11.8111 17.2063C12.0126 17.1227 12.1956 17.0001 12.3497 16.8457C12.5037 16.6913 12.6259 16.5081 12.7092 16.3065C12.7924 16.1049 12.8351 15.8889 12.8349 15.6707C12.8351 15.4526 12.7923 15.2366 12.7091 15.035C12.6258 14.8335 12.5036 14.6503 12.3495 14.4959C12.1955 14.3415 12.0125 14.219 11.8111 14.1354C11.6097 14.0517 11.3937 14.0086 11.1756 14.0084H9.51637V15.6707C9.51613 15.8889 9.55886 16.1049 9.64212 16.3065C9.72537 16.5081 9.84753 16.6913 10.0016 16.8457C10.1557 17.0001 10.3387 17.1227 10.5401 17.2063C10.7416 17.29 10.9575 17.3332 11.1756 17.3334ZM11.1756 12.8997H15.6003C15.8184 12.8995 16.0343 12.8564 16.2358 12.7727C16.4372 12.6891 16.6202 12.5666 16.7742 12.4122C16.9283 12.2578 17.0505 12.0746 17.1338 11.8731C17.217 11.6715 17.2598 11.4555 17.2596 11.2374C17.2598 11.0193 17.2171 10.8032 17.1338 10.6016C17.0506 10.4 16.9284 10.2168 16.7743 10.0624C16.6203 9.90798 16.4373 9.78545 16.2358 9.70178C16.0344 9.61811 15.8184 9.57494 15.6003 9.57474H11.1756C10.9575 9.57494 10.7416 9.61811 10.5401 9.70178C10.3387 9.78545 10.1557 9.90798 10.0016 10.0624C9.84753 10.2168 9.72537 10.4 9.64212 10.6016C9.55886 10.8032 9.51613 11.0193 9.51637 11.2374C9.51617 11.4555 9.55893 11.6715 9.6422 11.8731C9.72548 12.0746 9.84764 12.2578 10.0017 12.4122C10.1558 12.5666 10.3388 12.6891 10.5402 12.7727C10.7416 12.8564 10.9575 12.8995 11.1756 12.8997Z" fill="url(#paint2_linear_2303_3179)"/>
<path fill-rule="evenodd" clip-rule="evenodd" d="M0.666994 11.2374C0.666791 11.4555 0.709548 11.6715 0.792824 11.8731C0.8761 12.0746 0.998263 12.2578 1.15234 12.4122C1.30642 12.5666 1.48939 12.6891 1.69081 12.7727C1.89223 12.8564 2.10815 12.8995 2.32625 12.8997C2.54435 12.8995 2.76028 12.8564 2.9617 12.7727C3.16312 12.6891 3.34609 12.5666 3.50017 12.4122C3.65424 12.2578 3.77641 12.0746 3.85968 11.8731C3.94296 11.6715 3.98571 11.4555 3.98551 11.2374V9.57474H2.32625C2.1081 9.57494 1.89213 9.61812 1.69067 9.70181C1.48921 9.7855 1.30621 9.90806 1.15212 10.0625C0.998037 10.2169 0.875886 10.4002 0.792647 10.6018C0.709407 10.8035 0.66671 11.0192 0.666994 11.2374ZM5.09169 11.2374V15.6707C5.09144 15.8889 5.13417 16.1049 5.21743 16.3065C5.30068 16.5081 5.42284 16.6913 5.57692 16.8457C5.731 17.0001 5.91399 17.1227 6.11543 17.2063C6.31687 17.29 6.53282 17.3332 6.75094 17.3334C6.96907 17.3332 7.18502 17.29 7.38646 17.2063C7.5879 17.1227 7.77089 17.0001 7.92497 16.8457C8.07905 16.6913 8.2012 16.5081 8.28446 16.3065C8.36772 16.1049 8.41045 15.8889 8.4102 15.6707V11.2377C8.41045 11.0196 8.36772 10.8035 8.28446 10.6019C8.2012 10.4003 8.07905 10.2171 7.92497 10.0627C7.77089 9.90829 7.5879 9.78576 7.38646 9.70209C7.18502 9.61842 6.96907 9.57525 6.75094 9.57505C6.53282 9.57525 6.31687 9.61842 6.11543 9.70209C5.91399 9.78576 5.731 9.90829 5.57692 10.0627C5.42284 10.2171 5.30068 10.4003 5.21743 10.6019C5.13417 10.8035 5.09144 11.0193 5.09169 11.2374Z" fill="url(#paint3_linear_2303_3179)"/>
<defs>
<linearGradient id="paint0_linear_2303_3179" x1="4.53859" y1="0.707763" x2="4.53859" y2="8.46641" gradientUnits="userSpaceOnUse">
<stop stop-color="#5B22FF"/>
<stop offset="1" stop-color="#2D68FF"/>
</linearGradient>
<linearGradient id="paint1_linear_2303_3179" x1="13.388" y1="0.707763" x2="13.388" y2="8.46641" gradientUnits="userSpaceOnUse">
<stop stop-color="#5B22FF"/>
<stop offset="1" stop-color="#2D68FF"/>
</linearGradient>
<linearGradient id="paint2_linear_2303_3179" x1="13.388" y1="9.57474" x2="13.388" y2="17.3334" gradientUnits="userSpaceOnUse">
<stop stop-color="#5B22FF"/>
<stop offset="1" stop-color="#2D68FF"/>
</linearGradient>
<linearGradient id="paint3_linear_2303_3179" x1="4.53859" y1="9.57474" x2="4.53859" y2="17.3334" gradientUnits="userSpaceOnUse">
<stop stop-color="#5B22FF"/>
<stop offset="1" stop-color="#2D68FF"/>
</linearGradient>
</defs>
</svg>
