<svg width="20" height="20" viewBox="0 0 20 20" fill="none" xmlns="http://www.w3.org/2000/svg">
<path fill-rule="evenodd" clip-rule="evenodd" d="M8.17813 18.7573L6.1302 17.9211C5.81102 17.7902 5.44882 17.7998 5.13728 17.9498L4.41194 18.2967C3.9064 18.5394 3.31867 18.506 2.84275 18.2078C2.36588 17.9068 2.08205 17.3908 2.08301 16.826L2.09161 5.11636C2.09161 2.50838 3.6541 0.88855 6.16843 0.88855H13.1437C15.6829 0.88855 17.1985 2.4692 17.1985 5.11636L17.206 10.1415C17.2063 10.3618 16.9656 10.5036 16.7586 10.4281C16.4003 10.2974 16.015 10.2371 15.6147 10.2554C14.812 10.2859 14.0704 10.629 13.5113 11.232L10.4599 14.6017C9.92573 15.2028 9.59794 15.9415 9.51385 16.7309L9.4221 17.5604C9.38359 17.9263 9.4158 18.2873 9.5127 18.628C9.56994 18.8294 9.43004 19.0473 9.22199 19.024C8.86792 18.9843 8.51719 18.8951 8.17813 18.7573ZM11.1639 7.4354H6.52326C6.12667 7.4354 5.80652 7.1143 5.80652 6.71866C5.80652 6.32302 6.12667 6.00192 6.52326 6.00192H11.1639C11.5595 6.00192 11.8806 6.32302 11.8806 6.71866C11.8806 7.1143 11.5595 7.4354 11.1639 7.4354ZM9.61667 11.0392H6.52326C6.12667 11.0392 5.80652 10.719 5.80652 10.3225C5.80652 9.92681 6.12667 9.60571 6.52326 9.60571H9.61667C10.0123 9.60571 10.3334 9.92681 10.3334 10.3225C10.3334 10.719 10.0123 11.0392 9.61667 11.0392Z" fill="url(#paint0_linear_2303_3154)"/>
<path d="M12.2088 19.1114C11.8925 19.1114 11.5896 18.9919 11.3545 18.7702C11.0659 18.4988 10.9254 18.1175 10.9675 17.7238L11.0573 16.9009C11.107 16.4375 11.3067 15.9864 11.6202 15.6347L14.662 12.2746C14.9286 11.987 15.287 11.8226 15.675 11.8064C16.0639 11.8064 16.4338 11.9296 16.7186 12.1924L17.4506 12.871C17.7354 13.1347 17.9007 13.494 17.915 13.882C17.9313 14.27 17.7937 14.6399 17.5309 14.9246L14.532 18.236C14.1899 18.6173 13.7207 18.8753 13.2151 18.9604L12.4181 19.0942C12.3484 19.1056 12.2786 19.1114 12.2088 19.1114Z" fill="url(#paint1_linear_2303_3154)"/>
<defs>
<linearGradient id="paint0_linear_2303_3154" x1="9.99966" y1="0.888547" x2="9.99966" y2="19.1114" gradientUnits="userSpaceOnUse">
<stop stop-color="#5B22FF"/>
<stop offset="1" stop-color="#2D68FF"/>
</linearGradient>
<linearGradient id="paint1_linear_2303_3154" x1="9.99966" y1="0.888547" x2="9.99966" y2="19.1114" gradientUnits="userSpaceOnUse">
<stop stop-color="#5B22FF"/>
<stop offset="1" stop-color="#2D68FF"/>
</linearGradient>
</defs>
</svg>
