<svg width="55" height="55" viewBox="0 0 55 55" fill="none" xmlns="http://www.w3.org/2000/svg">
<path d="M27.5 55C42.6878 55 55 42.6878 55 27.5C55 12.3122 42.6878 0 27.5 0C12.3122 0 0 12.3122 0 27.5C0 42.6878 12.3122 55 27.5 55Z" fill="#343434"/>
<path d="M27.4872 10.012L38.3322 10L20.1372 28.1857L15.3953 32.9011L10 27.4992L27.4872 10.012ZM27.3863 26.2496C27.5271 26.0637 27.786 26.1553 27.9825 26.1314L38.3229 26.1341L28.8988 35.5489L23.4756 30.159L27.3863 26.2496Z" fill="#44D1FD"/>
<path d="M18.0697 35.5582L23.4756 30.1589L28.8988 35.5489L28.9214 35.5728L23.4769 40.9668L18.0697 35.5582V35.5582Z" fill="#1FBCFD"/>
<path d="M23.4769 40.9668L28.9214 35.5729L38.3269 44.9877C34.7841 44.9957 31.2425 44.9851 27.701 44.9931C27.4992 45.0382 27.3743 44.8536 27.2455 44.7394L23.4769 40.9668V40.9668Z" fill="#08589C"/>
</svg>
