<svg width="55" height="55" viewBox="0 0 55 55" fill="none" xmlns="http://www.w3.org/2000/svg">
<path d="M27.5 55C42.6878 55 55 42.6878 55 27.5C55 12.3122 42.6878 0 27.5 0C12.3122 0 0 12.3122 0 27.5C0 42.6878 12.3122 55 27.5 55Z" fill="#2B2E3A"/>
<path d="M27.5 50C39.9264 50 50 39.9264 50 27.5C50 15.0736 39.9264 5 27.5 5C15.0736 5 5 15.0736 5 27.5C5 39.9264 15.0736 50 27.5 50Z" fill="#2B2E3A"/>
<path d="M22.6663 17.6018C18.0951 16.7693 14.4807 17.6406 13.0402 20.1356C11.9653 21.9975 12.2726 24.466 13.7855 27.1047C13.8154 27.1595 13.8559 27.2078 13.9047 27.2467C13.9535 27.2856 14.0095 27.3144 14.0696 27.3314C14.1297 27.3484 14.1925 27.3532 14.2545 27.3456C14.3164 27.3379 14.3762 27.318 14.4304 27.287C14.4845 27.2559 14.5319 27.2144 14.5698 27.1647C14.6077 27.1151 14.6352 27.0584 14.6509 26.998C14.6666 26.9376 14.6701 26.8747 14.6611 26.8129C14.6521 26.7511 14.6309 26.6918 14.5987 26.6383C13.236 24.2614 12.9708 22.1311 13.8521 20.6045C15.0489 18.5318 18.2727 17.7545 22.4983 18.5241C22.6197 18.5443 22.7442 18.5159 22.8449 18.4451C22.9456 18.3743 23.0144 18.2668 23.0365 18.1457C23.0586 18.0246 23.0321 17.8996 22.9629 17.7979C22.8936 17.6961 22.7871 17.6257 22.6663 17.6018ZM16.1626 30.312C18.0109 32.3431 20.4123 34.2484 23.151 35.8294C29.782 39.6579 36.8413 40.6811 40.3204 38.309C40.3724 38.2748 40.4172 38.2306 40.4519 38.179C40.4867 38.1273 40.5108 38.0693 40.5229 38.0082C40.535 37.9471 40.5348 37.8843 40.5224 37.8233C40.5099 37.7623 40.4854 37.7044 40.4504 37.6529C40.4153 37.6015 40.3703 37.5576 40.3181 37.5237C40.2658 37.4899 40.2074 37.4667 40.1461 37.4557C40.0848 37.4447 40.022 37.446 39.9612 37.4595C39.9005 37.473 39.843 37.4985 39.7922 37.5345C36.6784 39.6576 29.9727 38.6855 23.6198 35.0176C20.963 33.4838 18.6376 31.6388 16.8561 29.6809C16.8147 29.6351 16.7647 29.5979 16.7089 29.5715C16.6532 29.545 16.5927 29.5299 16.5311 29.5269C16.4694 29.5238 16.4078 29.533 16.3497 29.5539C16.2916 29.5747 16.2382 29.6068 16.1926 29.6484C16.1469 29.6899 16.1099 29.74 16.0837 29.7959C16.0575 29.8518 16.0426 29.9123 16.0398 29.9739C16.037 30.0356 16.0464 30.0972 16.0675 30.1552C16.0886 30.2132 16.1209 30.2665 16.1626 30.312Z" fill="#9FEAF9"/>
<path d="M39.2105 29.7417C42.2037 26.2057 43.2488 22.6493 41.8112 20.1596C40.7536 18.3274 38.5174 17.3601 35.5455 17.3214C35.4223 17.3216 35.3042 17.3702 35.2166 17.4568C35.129 17.5434 35.079 17.661 35.0774 17.7841C35.0758 17.9073 35.1228 18.0261 35.2081 18.115C35.2934 18.2038 35.4103 18.2555 35.5334 18.2588C38.2061 18.2936 40.1327 19.127 40.9995 20.6284C42.1934 22.6964 41.2614 25.8679 38.4949 29.136C38.4543 29.1829 38.4235 29.2373 38.4041 29.2962C38.3847 29.3551 38.3771 29.4173 38.3819 29.4791C38.3867 29.5409 38.4037 29.6012 38.432 29.6564C38.4602 29.7116 38.4991 29.7607 38.5464 29.8007C38.5938 29.8408 38.6486 29.8711 38.7077 29.8898C38.7668 29.9085 38.829 29.9153 38.8908 29.9099C38.9526 29.9044 39.0126 29.8867 39.0675 29.8578C39.1224 29.829 39.171 29.7895 39.2105 29.7417ZM31.5182 17.7579C28.8119 18.3378 25.9312 19.4715 23.1647 21.0687C16.3194 25.0208 11.8541 30.8485 12.4742 35.0741C12.4825 35.1356 12.5029 35.1948 12.5342 35.2483C12.5655 35.3019 12.6072 35.3487 12.6568 35.386C12.7063 35.4234 12.7628 35.4505 12.8229 35.4658C12.883 35.4812 12.9456 35.4844 13.007 35.4754C13.0684 35.4664 13.1273 35.4453 13.1805 35.4133C13.2337 35.3813 13.28 35.3391 13.3167 35.2891C13.3534 35.2391 13.3799 35.1823 13.3945 35.122C13.4091 35.0617 13.4116 34.9991 13.4018 34.9378C12.8511 31.186 17.0839 25.662 23.6335 21.8806C26.3172 20.3311 29.1065 19.2334 31.7145 18.6746C31.7756 18.6625 31.8336 18.6385 31.8852 18.6038C31.9369 18.5691 31.9811 18.5245 32.0153 18.4725C32.0496 18.4206 32.0731 18.3623 32.0846 18.3012C32.0961 18.2401 32.0953 18.1772 32.0823 18.1164C32.0692 18.0556 32.0442 17.9979 32.0087 17.9469C31.9732 17.8958 31.9279 17.8523 31.8754 17.8189C31.8228 17.7856 31.7642 17.763 31.7029 17.7525C31.6416 17.742 31.5788 17.7438 31.5182 17.7579Z" fill="#9FEAF9"/>
<path d="M20.4283 38.0035C21.9935 42.3734 24.5537 45.0641 27.4327 45.0641C29.5324 45.0641 31.4749 43.6327 32.9898 41.1129C33.0226 41.0601 33.0446 41.0013 33.0545 40.9399C33.0643 40.8786 33.0619 40.8159 33.0473 40.7555C33.0327 40.6951 33.0063 40.6382 32.9695 40.5881C32.9328 40.538 32.8864 40.4957 32.8331 40.4637C32.7799 40.4317 32.7208 40.4106 32.6593 40.4016C32.5978 40.3926 32.5352 40.396 32.475 40.4114C32.4148 40.4269 32.3583 40.4541 32.3087 40.4916C32.2592 40.5291 32.2176 40.5761 32.1863 40.6298C30.8249 42.8944 29.1527 44.1264 27.4327 44.1264C25.0412 44.1264 22.7576 41.7267 21.3111 37.6876C21.2913 37.6284 21.2599 37.5738 21.2187 37.527C21.1775 37.4801 21.1274 37.442 21.0713 37.4147C21.0152 37.3875 20.9542 37.3717 20.8919 37.3684C20.8296 37.365 20.7673 37.3741 20.7086 37.3951C20.6499 37.4161 20.5959 37.4486 20.5499 37.4908C20.5039 37.5329 20.4668 37.5838 20.4407 37.6404C20.4146 37.6971 20.4001 37.7584 20.398 37.8207C20.3959 37.883 20.4063 37.9452 20.4285 38.0035H20.4283ZM34.7232 37.1486C35.5336 34.5597 35.9686 31.5732 35.9686 28.461C35.9686 20.6952 33.2505 14.0007 29.3791 12.2817C29.266 12.2344 29.1389 12.2332 29.0249 12.2785C28.911 12.3237 28.8193 12.4118 28.7695 12.5239C28.7198 12.636 28.7159 12.7631 28.7587 12.878C28.8016 12.9928 28.8877 13.0864 28.9987 13.1385C32.4516 14.6718 35.031 21.0251 35.031 28.461C35.031 31.4804 34.6097 34.3725 33.8287 36.8686C33.8093 36.9276 33.8018 36.9899 33.8067 37.0519C33.8115 37.1138 33.8287 37.1741 33.8571 37.2294C33.8855 37.2846 33.9246 37.3337 33.9722 37.3737C34.0197 37.4137 34.0747 37.4439 34.134 37.4624C34.1933 37.481 34.2557 37.4876 34.3175 37.4818C34.3794 37.476 34.4395 37.458 34.4943 37.4288C34.5492 37.3996 34.5977 37.3598 34.637 37.3117C34.6763 37.2636 34.7057 37.2082 34.7234 37.1486H34.7232ZM43.5516 36.6895C43.5516 35.4504 42.5472 34.446 41.3082 34.446C40.0691 34.446 39.0647 35.4504 39.0647 36.6895C39.0647 37.9286 40.0691 38.933 41.3082 38.933C42.5472 38.933 43.5516 37.9286 43.5516 36.6895ZM42.6142 36.6895C42.6142 36.861 42.5804 37.0308 42.5148 37.1893C42.4492 37.3478 42.353 37.4917 42.2317 37.613C42.1104 37.7343 41.9664 37.8305 41.808 37.8961C41.6495 37.9618 41.4797 37.9955 41.3082 37.9955C41.1366 37.9955 40.9668 37.9618 40.8083 37.8961C40.6499 37.8305 40.5059 37.7343 40.3846 37.613C40.2634 37.4917 40.1671 37.3478 40.1015 37.1893C40.0359 37.0308 40.0021 36.861 40.0021 36.6895C40.0021 36.3431 40.1397 36.0109 40.3846 35.766C40.6296 35.521 40.9618 35.3834 41.3082 35.3834C41.6545 35.3834 41.9867 35.521 42.2317 35.766C42.4766 36.0109 42.6142 36.3431 42.6142 36.6895ZM13.5249 38.933C14.7641 38.933 15.7685 37.9286 15.7685 36.6895C15.7685 35.4504 14.764 34.446 13.5249 34.446C12.286 34.446 11.2814 35.4504 11.2814 36.6895C11.2814 37.9286 12.286 38.933 13.5249 38.933ZM13.5249 37.9955C13.1785 37.9955 12.8463 37.8579 12.6013 37.613C12.3564 37.3681 12.2188 37.0359 12.2188 36.6895C12.2188 36.3431 12.3564 36.0109 12.6013 35.766C12.8463 35.521 13.1785 35.3834 13.5249 35.3834C13.8713 35.3834 14.2035 35.521 14.4484 35.766C14.6933 36.0109 14.8309 36.3431 14.8309 36.6895C14.8309 37.0359 14.6933 37.3681 14.4484 37.613C14.2035 37.8579 13.8713 37.9955 13.5249 37.9955Z" fill="#9FEAF9"/>
<path d="M27.4327 14.5702C28.6718 14.5702 29.6762 13.5658 29.6762 12.3267C29.6762 11.0877 28.6718 10.0832 27.4327 10.0832C26.1936 10.0832 25.1892 11.0877 25.1892 12.3267C25.1892 13.5658 26.1936 14.5702 27.4327 14.5702ZM27.4327 13.6328C27.0863 13.6328 26.7541 13.4952 26.5092 13.2503C26.2643 13.0053 26.1267 12.6731 26.1267 12.3267C26.1267 11.9804 26.2643 11.6482 26.5092 11.4032C26.7541 11.1583 27.0863 11.0207 27.4327 11.0207C27.7791 11.0207 28.1113 11.1583 28.3562 11.4032C28.6012 11.6482 28.7388 11.9804 28.7388 12.3267C28.7388 12.6731 28.6012 13.0053 28.3562 13.2503C28.1113 13.4952 27.7791 13.6328 27.4327 13.6328ZM27.7753 30.0476C26.899 30.2369 26.0358 29.68 25.8461 28.8038C25.7553 28.383 25.8353 27.9434 26.0685 27.5815C26.3018 27.2197 26.6692 26.9654 27.0899 26.8744C27.9662 26.6851 28.8295 27.242 29.0193 28.1182C29.2086 28.9945 28.6517 29.8579 27.7753 30.0476Z" fill="#9FEAF9"/>
</svg>
