<svg width="55" height="55" viewBox="0 0 55 55" fill="none" xmlns="http://www.w3.org/2000/svg">
<path d="M27.5 55C42.6878 55 55 42.6878 55 27.5C55 12.3122 42.6878 0 27.5 0C12.3122 0 0 12.3122 0 27.5C0 42.6878 12.3122 55 27.5 55Z" fill="#F5F5F5"/>
<path d="M41.8077 43.3991H36.1421L36.5352 38.625H33.7551L33.3621 43.3991H21.6283L21.2353 38.625H18.4552L18.8482 43.3991H13.1827L10 22.7212L17.9567 10H37.0433L45 22.7212L41.8077 43.3991ZM35.4519 16.3654H30.3424L30.6875 18.7524H24.3221L24.6672 16.3654H19.5385L16.3558 22.7307L17.9471 35.4519H37.0337L38.625 22.7307L35.4519 16.3654ZM32.6623 31.2243C32.2213 31.2243 31.8666 29.9014 31.8666 28.2621C31.8666 26.6324 32.2213 25.2999 32.6623 25.2999C33.1033 25.2999 33.4579 26.6228 33.4579 28.2621C33.4579 29.9014 33.1033 31.2243 32.6623 31.2243ZM22.6253 31.4736C22.1844 31.4736 21.8296 30.1507 21.8296 28.5113C21.8296 26.8721 22.1844 25.5492 22.6253 25.5492C23.0663 25.5492 23.4209 26.8721 23.4209 28.5113C23.4209 30.1507 23.0663 31.4736 22.6253 31.4736Z" fill="#444444"/>
</svg>
