<svg width="178" height="31" viewBox="0 0 178 31" fill="none" xmlns="http://www.w3.org/2000/svg">
<path d="M49.6938 30.482L61.6293 1.72534H67.75L79.7238 30.482H73.2205L63.4273 5.09397H65.8756L56.0441 30.482H49.6938ZM55.6616 24.3198L57.3065 19.2669H71.0782L72.7614 24.3198H55.6616Z" fill="#0D1940"/>
<path d="M82.1367 30.482V0H88.1044V30.482H82.1367Z" fill="#0D1940"/>
<path d="M138.939 30.4929L150.875 1.73633H156.995L168.969 30.4929H162.466L152.673 5.10495H155.121L145.289 30.4929H138.939ZM144.907 24.3307L146.552 19.2778H160.323L162.007 24.3307H144.907Z" fill="#0D1940"/>
<path d="M171.803 30.4929V1.73633H178V30.4929H171.803Z" fill="#0D1940"/>
<path d="M125.313 9.61182C126.834 9.61182 128.189 9.94367 129.377 10.6074C130.59 11.2456 131.541 12.2411 132.23 13.5941C132.919 14.9215 133.264 16.6318 133.264 18.7251V30.5187H127.702V19.6441C127.702 17.9848 127.357 16.7595 126.668 15.9681C126.002 15.1768 125.051 14.7811 123.815 14.7811C122.935 14.7811 122.139 14.9853 121.426 15.3938C120.737 15.7767 120.19 16.3766 119.786 17.1934C119.405 18.0103 119.215 19.0569 119.215 20.3333V30.5187H113.653V9.91814H118.966V15.6235L117.967 13.9004C118.657 12.5219 119.643 11.4625 120.927 10.7223C122.21 9.98196 123.672 9.61182 125.313 9.61182Z" fill="#0D1940"/>
<path d="M98.3042 30.8648C96.9353 30.8648 95.6738 30.5992 94.5197 30.068C93.3924 29.5102 92.4932 28.7665 91.8222 27.8369C91.178 26.9073 90.856 25.8847 90.856 24.7691C90.856 22.963 91.5941 21.5021 93.0703 20.3866C94.5465 19.271 96.573 18.5141 99.1497 18.1156L104.665 17.3188V16.4822C104.665 15.3135 104.37 14.437 103.78 13.8526C103.189 13.2683 102.236 12.9761 100.921 12.9761C100.035 12.9761 99.3107 13.1488 98.747 13.4941C98.2102 13.8128 97.7808 14.1315 97.4587 14.4503C97.1366 14.7955 96.7457 15.4994 96.6383 15.6057H92.2248C92.2248 15.2978 92.2056 15.1514 92.2248 14.6762C92.2517 14.0122 92.5737 13.3081 93.1911 12.4582C93.8352 11.6083 94.8149 10.8778 96.1301 10.2669C97.4453 9.65604 99.0557 9.35059 100.961 9.35059C104.129 9.35059 106.782 10.0544 108.231 11.4622C109.68 12.8699 110.405 14.7159 110.405 17.0001V29.5102C110.405 29.7758 110.405 30.4664 110.405 30.4664H104.867C104.867 30.4664 104.867 29.7758 104.867 29.5102V27.9564C104.276 28.8064 103.431 29.5102 102.33 30.068C101.257 30.5992 99.9146 30.8648 98.3042 30.8648ZM99.673 27.0799C101.149 27.0799 102.357 26.6018 103.297 25.6456C104.236 24.6894 104.706 23.295 104.706 21.4623V20.6256L100.68 21.2631C99.1228 21.5021 97.9418 21.8873 97.1366 22.4185C96.3583 22.9497 95.9691 23.6005 95.9691 24.3707C95.9691 25.2207 96.3314 25.8847 97.0561 26.3628C97.7808 26.8409 98.6531 27.0799 99.673 27.0799Z" fill="#0D1940"/>
<path d="M28.2746 0.000244141H15.7639L0.00964355 30.4819H12.1729L28.2746 0.000244141Z" fill="url(#paint0_linear_33_17)"/>
<path d="M27.8895 30.4818L22.0975 19.5955H5.62379L0.00012207 30.4818H27.8895Z" fill="url(#paint1_linear_33_17)"/>
<path d="M12.1717 30.4818L17.9221 19.5955H5.63307L0.00939941 30.4818H12.1717Z" fill="url(#paint2_linear_33_17)"/>
<path d="M15.7396 0H28.2503L44.0046 30.4817H31.8414L15.7396 0Z" fill="url(#paint3_linear_33_17)"/>
<defs>
<linearGradient id="paint0_linear_33_17" x1="7.04934" y1="36.355" x2="-5.35661" y2="6.50252" gradientUnits="userSpaceOnUse">
<stop stop-color="#1970E3"/>
<stop offset="1" stop-color="#115FC6"/>
</linearGradient>
<linearGradient id="paint1_linear_33_17" x1="32.7087" y1="22.4418" x2="29.8959" y2="35.7087" gradientUnits="userSpaceOnUse">
<stop stop-color="#62BBFF"/>
<stop offset="1" stop-color="#009DFF"/>
</linearGradient>
<linearGradient id="paint2_linear_33_17" x1="3.47985" y1="31.951" x2="1.60686" y2="20.58" gradientUnits="userSpaceOnUse">
<stop stop-color="#32BEFF"/>
<stop offset="1" stop-color="#5ECCFF"/>
</linearGradient>
<linearGradient id="paint3_linear_33_17" x1="9.57259" y1="7.96984" x2="26.181" y2="37.4207" gradientUnits="userSpaceOnUse">
<stop stop-color="#62BBFF"/>
<stop offset="1" stop-color="#009DFF"/>
</linearGradient>
</defs>
</svg>
