<svg width="90" height="93" viewBox="0 0 90 93" fill="none" xmlns="http://www.w3.org/2000/svg">
<circle cx="45" cy="45" r="45" fill="white"/>
<path d="M45.5625 70.75C59.5422 70.75 70.875 59.4172 70.875 45.4375C70.875 31.4578 59.5422 20.125 45.5625 20.125C31.5828 20.125 20.25 31.4578 20.25 45.4375C20.25 59.4172 31.5828 70.75 45.5625 70.75Z" fill="#2B2E3A"/>
<path d="M40.1247 34.3021C34.9821 33.3655 30.9159 34.3457 29.2953 37.1526C28.0861 39.2472 28.4318 42.0243 30.1338 44.9928C30.1674 45.0545 30.213 45.1088 30.2679 45.1526C30.3228 45.1963 30.3858 45.2287 30.4534 45.2479C30.521 45.267 30.5917 45.2724 30.6614 45.2638C30.7311 45.2552 30.7983 45.2328 30.8593 45.1979C30.9202 45.1629 30.9735 45.1162 31.0161 45.0603C31.0588 45.0045 31.0897 44.9407 31.1074 44.8728C31.125 44.8048 31.129 44.7341 31.1188 44.6645C31.1087 44.595 31.0849 44.5283 31.0486 44.4681C29.5156 41.7941 29.2173 39.3975 30.2087 37.6801C31.5551 35.3483 35.1819 34.4738 39.9357 35.3396C40.0723 35.3624 40.2123 35.3304 40.3256 35.2508C40.4389 35.1711 40.5163 35.0502 40.5412 34.9139C40.566 34.7777 40.5362 34.6371 40.4584 34.5227C40.3804 34.4081 40.2606 34.3289 40.1247 34.3021ZM32.808 48.601C34.8874 50.886 37.5889 53.0295 40.67 54.8081C48.1299 59.1152 56.0716 60.2663 59.9856 57.5977C60.0441 57.5592 60.0945 57.5095 60.1335 57.4514C60.1726 57.3932 60.1998 57.328 60.2134 57.2593C60.227 57.1905 60.2268 57.1199 60.2128 57.0512C60.1987 56.9826 60.1712 56.9175 60.1318 56.8595C60.0923 56.8017 60.0417 56.7523 59.983 56.7142C59.9241 56.6762 59.8584 56.6501 59.7895 56.6377C59.7205 56.6253 59.6499 56.6268 59.5815 56.642C59.5132 56.6572 59.4485 56.6858 59.3913 56.7263C55.8883 59.1148 48.3444 58.0212 41.1974 53.8948C38.2085 52.1693 35.5924 50.0937 33.5882 47.891C33.5416 47.8395 33.4854 47.7977 33.4226 47.768C33.36 47.7382 33.2919 47.7212 33.2226 47.7178C33.1532 47.7143 33.0839 47.7247 33.0185 47.7482C32.9532 47.7716 32.8931 47.8077 32.8418 47.8545C32.7904 47.9012 32.7487 47.9575 32.7193 48.0204C32.6898 48.0833 32.673 48.1514 32.6699 48.2207C32.6667 48.2901 32.6773 48.3594 32.701 48.4246C32.7248 48.4899 32.7611 48.5498 32.808 48.601Z" fill="#9FEAF9"/>
<path d="M58.7368 47.9594C62.1042 43.9814 63.2799 39.9805 61.6626 37.1795C60.4728 35.1183 57.9571 34.0301 54.6137 33.9866C54.4751 33.9868 54.3422 34.0415 54.2437 34.1389C54.1451 34.2363 54.0889 34.3686 54.0871 34.5071C54.0853 34.6457 54.1382 34.7794 54.2341 34.8794C54.3301 34.9793 54.4616 35.0374 54.6001 35.0411C57.6069 35.0803 59.7743 36.0179 60.7495 37.7069C62.0926 40.0334 61.0441 43.6014 57.9318 47.278C57.8861 47.3308 57.8515 47.392 57.8296 47.4582C57.8078 47.5245 57.7993 47.5945 57.8047 47.664C57.8101 47.7335 57.8292 47.8013 57.861 47.8634C57.8928 47.9255 57.9365 47.9808 57.9897 48.0258C58.043 48.0709 58.1047 48.105 58.1712 48.126C58.2377 48.1471 58.3077 48.1547 58.3772 48.1486C58.4467 48.1424 58.5142 48.1225 58.576 48.09C58.6377 48.0576 58.6924 48.0132 58.7368 47.9594ZM50.083 34.4776C47.0384 35.13 43.7976 36.4054 40.6853 38.2023C32.9844 42.6484 27.9609 49.2046 28.6585 53.9584C28.6678 54.0275 28.6908 54.0941 28.726 54.1543C28.7612 54.2146 28.8081 54.2673 28.8639 54.3092C28.9196 54.3513 28.9832 54.3818 29.0508 54.399C29.1184 54.4163 29.1888 54.4199 29.2579 54.4098C29.327 54.3997 29.3932 54.376 29.4531 54.34C29.5129 54.304 29.565 54.2565 29.6063 54.2002C29.6476 54.144 29.6774 54.0801 29.6938 54.0122C29.7103 53.9444 29.7131 53.874 29.7021 53.805C29.0825 49.5842 33.8444 43.3697 41.2127 39.1157C44.2319 37.3725 47.3698 36.1376 50.3038 35.5089C50.3726 35.4953 50.4378 35.4683 50.4959 35.4293C50.554 35.3902 50.6038 35.3401 50.6422 35.2816C50.6808 35.2232 50.7073 35.1576 50.7202 35.0888C50.7331 35.0201 50.7322 34.9493 50.7176 34.8809C50.7029 34.8125 50.6748 34.7476 50.6348 34.6903C50.5949 34.6328 50.5439 34.5838 50.4849 34.5463C50.4257 34.5088 50.3598 34.4834 50.2908 34.4716C50.2218 34.4597 50.1512 34.4618 50.083 34.4776Z" fill="#9FEAF9"/>
<path d="M37.6069 57.254C39.3678 62.1702 42.248 65.1972 45.4869 65.1972C47.849 65.1972 50.0343 63.5869 51.7386 60.7521C51.7755 60.6927 51.8003 60.6266 51.8114 60.5575C51.8224 60.4885 51.8197 60.418 51.8033 60.35C51.7869 60.2821 51.7572 60.2181 51.7158 60.1617C51.6745 60.1053 51.6223 60.0578 51.5623 60.0218C51.5025 59.9858 51.436 59.962 51.3668 59.9519C51.2976 59.9418 51.2272 59.9456 51.1594 59.9629C51.0917 59.9804 51.0282 60.011 50.9724 60.0531C50.9167 60.0953 50.8699 60.1482 50.8347 60.2086C49.3031 62.7563 47.4219 64.1423 45.4869 64.1423C42.7964 64.1423 40.2274 61.4426 38.6001 56.8986C38.5778 56.832 38.5425 56.7706 38.4961 56.718C38.4498 56.6652 38.3934 56.6223 38.3303 56.5916C38.2672 56.561 38.1985 56.5433 38.1285 56.5395C38.0584 56.5357 37.9883 56.546 37.9222 56.5696C37.8562 56.5932 37.7955 56.6298 37.7437 56.6772C37.692 56.7246 37.6502 56.7819 37.6209 56.8455C37.5915 56.9093 37.5752 56.9783 37.5728 57.0484C37.5705 57.1185 37.5822 57.1885 37.6071 57.254H37.6069ZM53.6887 56.2923C54.6004 53.3798 55.0898 50.0199 55.0898 46.5187C55.0898 37.7822 52.0319 30.2509 47.6766 28.317C47.5493 28.2638 47.4063 28.2624 47.2781 28.3134C47.1499 28.3643 47.0468 28.4634 46.9908 28.5895C46.9349 28.7156 46.9305 28.8586 46.9786 28.9878C47.0269 29.117 47.1237 29.2223 47.2486 29.2809C51.1331 31.0059 54.0349 38.1533 54.0349 46.5187C54.0349 49.9155 53.561 53.1692 52.6824 55.9773C52.6605 56.0436 52.6521 56.1137 52.6576 56.1835C52.663 56.2531 52.6824 56.321 52.7143 56.3832C52.7463 56.4453 52.7902 56.5005 52.8438 56.5455C52.8972 56.5905 52.9591 56.6245 53.0258 56.6453C53.0925 56.6662 53.1627 56.6736 53.2323 56.6671C53.3019 56.6606 53.3695 56.6403 53.4312 56.6075C53.4929 56.5746 53.5475 56.5299 53.5917 56.4758C53.6359 56.4216 53.669 56.3593 53.6889 56.2923H53.6887ZM63.6206 55.7758C63.6206 54.3818 62.4907 53.2518 61.0968 53.2518C59.7028 53.2518 58.5729 54.3818 58.5729 55.7758C58.5729 57.1698 59.7028 58.2997 61.0968 58.2997C62.4907 58.2997 63.6206 57.1698 63.6206 55.7758ZM62.5661 55.7758C62.5661 55.9687 62.528 56.1597 62.4542 56.3381C62.3804 56.5164 62.2722 56.6783 62.1357 56.8147C61.9993 56.9512 61.8373 57.0594 61.6591 57.1332C61.4808 57.2071 61.2897 57.245 61.0968 57.245C60.9038 57.245 60.7127 57.2071 60.5344 57.1332C60.3562 57.0594 60.1942 56.9512 60.0578 56.8147C59.9214 56.6783 59.8131 56.5164 59.7393 56.3381C59.6655 56.1597 59.6274 55.9687 59.6274 55.7758C59.6274 55.3861 59.7822 55.0124 60.0578 54.7368C60.3334 54.4612 60.7071 54.3064 61.0968 54.3064C61.4864 54.3064 61.8601 54.4612 62.1357 54.7368C62.4113 55.0124 62.5661 55.3861 62.5661 55.7758ZM29.8406 58.2997C31.2347 58.2997 32.3646 57.1698 32.3646 55.7758C32.3646 54.3818 31.2346 53.2518 29.8406 53.2518C28.4468 53.2518 27.3167 54.3818 27.3167 55.7758C27.3167 57.1698 28.4468 58.2997 29.8406 58.2997ZM29.8406 57.245C29.4509 57.245 29.0772 57.0902 28.8015 56.8147C28.526 56.5392 28.3712 56.1655 28.3712 55.7758C28.3712 55.3861 28.526 55.0124 28.8015 54.7368C29.0772 54.4612 29.4509 54.3064 29.8406 54.3064C30.2303 54.3064 30.604 54.4612 30.8795 54.7368C31.155 55.0124 31.3098 55.3861 31.3098 55.7758C31.3098 56.1655 31.155 56.5392 30.8795 56.8147C30.604 57.0902 30.2303 57.245 29.8406 57.245Z" fill="#9FEAF9"/>
<path d="M45.4868 30.8914C46.8808 30.8914 48.0108 29.7614 48.0108 28.3674C48.0108 26.9736 46.8808 25.8435 45.4868 25.8435C44.0928 25.8435 42.9629 26.9736 42.9629 28.3674C42.9629 29.7614 44.0928 30.8914 45.4868 30.8914ZM45.4868 29.8368C45.0971 29.8368 44.7234 29.682 44.4479 29.4065C44.1724 29.1309 44.0176 28.7571 44.0176 28.3674C44.0176 27.9779 44.1724 27.6041 44.4479 27.3285C44.7234 27.053 45.0971 26.8982 45.4868 26.8982C45.8765 26.8982 46.2503 27.053 46.5258 27.3285C46.8014 27.6041 46.9562 27.9779 46.9562 28.3674C46.9562 28.7571 46.8014 29.1309 46.5258 29.4065C46.2503 29.682 45.8765 29.8368 45.4868 29.8368ZM45.8723 48.3035C44.8864 48.5164 43.9153 47.8899 43.7019 46.9042C43.5998 46.4308 43.6898 45.9362 43.9521 45.5291C44.2146 45.1221 44.6279 44.836 45.1012 44.7336C46.087 44.5206 47.0582 45.1472 47.2717 46.1329C47.4847 47.1187 46.8582 48.09 45.8723 48.3035Z" fill="#9FEAF9"/>
</svg>
