<svg width="90" height="93" viewBox="0 0 90 93" fill="none" xmlns="http://www.w3.org/2000/svg">
<circle cx="45" cy="45" r="45" fill="white"/>
<path d="M25.5768 54.4232L17 45.8464L44.8487 18H62L25.5768 54.4232ZM62 43.6966H44.8487L38.424 50.1213L47.0007 58.6981" fill="#42A5F5" fill-opacity="0.8"/>
<path d="M38.4241 67.2725L44.8488 73.6972H62.0001L47.0009 58.698" fill="#0D47A1"/>
<path d="M29.8674 58.7027L38.4307 50.1372L46.994 58.7004L38.4307 67.266L29.8674 58.7027Z" fill="#42A5F5"/>
<path d="M38.4307 67.2659L46.994 58.7026L48.1894 59.8979L39.6261 68.4612L38.4307 67.2659Z" fill="url(#paint0_linear_955_407)"/>
<path d="M38.4241 67.2726L51.1497 62.8762L47.0008 58.6958" fill="url(#paint1_linear_955_407)"/>
<defs>
<linearGradient id="paint0_linear_955_407" x1="42.714" y1="62.9827" x2="43.9094" y2="64.1781" gradientUnits="userSpaceOnUse">
<stop offset="0.2" stop-opacity="0.15"/>
<stop offset="0.85" stop-color="#616161" stop-opacity="0.01"/>
</linearGradient>
<linearGradient id="paint1_linear_955_407" x1="38.4271" y1="62.9845" x2="51.1525" y2="62.9845" gradientUnits="userSpaceOnUse">
<stop offset="0.2" stop-opacity="0.55"/>
<stop offset="0.85" stop-color="#616161" stop-opacity="0.01"/>
</linearGradient>
</defs>
</svg>
