<svg width="45" height="45" viewBox="0 0 45 45" fill="none" xmlns="http://www.w3.org/2000/svg">
<path d="M22.5 45C34.9264 45 45 34.9264 45 22.5C45 10.0736 34.9264 0 22.5 0C10.0736 0 0 10.0736 0 22.5C0 34.9264 10.0736 45 22.5 45Z" fill="#5536B3" fill-opacity="0.101961"/>
<mask id="mask0_11_25" style="mask-type:alpha" maskUnits="userSpaceOnUse" x="10" y="11" width="24" height="23">
<path d="M21.999 11C15.373 11 10 16.279 10 22.791C10 28.001 13.438 32.42 18.207 33.979C18.807 34.088 19.026 33.724 19.026 33.411C19.026 33.131 19.016 32.39 19.009 31.406C15.672 32.118 14.967 29.825 14.967 29.825C14.421 28.463 13.635 28.1 13.635 28.1C12.545 27.369 13.717 27.383 13.717 27.383C14.922 27.467 15.555 28.599 15.555 28.599C16.625 30.4 18.365 29.88 19.048 29.579C19.157 28.817 19.467 28.297 19.81 28.002C17.145 27.705 14.343 26.692 14.343 22.175C14.343 20.888 14.811 19.835 15.579 19.011C15.455 18.713 15.043 17.513 15.697 15.891C15.697 15.891 16.704 15.573 18.997 17.099C19.953 16.837 20.98 16.707 22 16.702C23.02 16.707 24.046 16.837 25.005 17.099C27.295 15.573 28.3 15.89 28.3 15.89C28.955 17.513 28.543 18.713 28.42 19.01C29.19 19.834 29.653 20.888 29.653 22.175C29.653 26.705 26.847 27.701 24.175 27.993C24.605 28.357 24.989 29.077 24.989 30.177C24.989 31.753 24.974 33.024 24.974 33.411C24.974 33.726 25.191 34.093 25.799 33.978C30.565 32.416 34 28 34 22.791C34 16.28 28.627 11 21.999 11Z" fill="white"/>
</mask>
<g mask="url(#mask0_11_25)">
<path d="M21.999 11C15.373 11 10 16.279 10 22.791C10 28.001 13.438 32.42 18.207 33.979C18.807 34.088 19.026 33.724 19.026 33.411C19.026 33.131 19.016 32.39 19.009 31.406C15.672 32.118 14.967 29.825 14.967 29.825C14.421 28.463 13.635 28.1 13.635 28.1C12.545 27.369 13.717 27.383 13.717 27.383C14.922 27.467 15.555 28.599 15.555 28.599C16.625 30.4 18.365 29.88 19.048 29.579C19.157 28.817 19.467 28.297 19.81 28.002C17.145 27.705 14.343 26.692 14.343 22.175C14.343 20.888 14.811 19.835 15.579 19.011C15.455 18.713 15.043 17.513 15.697 15.891C15.697 15.891 16.704 15.573 18.997 17.099C19.953 16.837 20.98 16.707 22 16.702C23.02 16.707 24.046 16.837 25.005 17.099C27.295 15.573 28.3 15.89 28.3 15.89C28.955 17.513 28.543 18.713 28.42 19.01C29.19 19.834 29.653 20.888 29.653 22.175C29.653 26.705 26.847 27.701 24.175 27.993C24.605 28.357 24.989 29.077 24.989 30.177C24.989 31.753 24.974 33.024 24.974 33.411C24.974 33.726 25.191 34.093 25.799 33.978C30.565 32.416 34 28 34 22.791C34 16.28 28.627 11 21.999 11Z" fill="#5536B3"/>
<path fill-rule="evenodd" clip-rule="evenodd" d="M10 11H34V35H10V11Z" fill="#5536B3"/>
</g>
</svg>
