<svg width="55" height="55" viewBox="0 0 55 55" fill="none" xmlns="http://www.w3.org/2000/svg">
<path d="M27.5 55C42.6878 55 55 42.6878 55 27.5C55 12.3122 42.6878 0 27.5 0C12.3122 0 0 12.3122 0 27.5C0 42.6878 12.3122 55 27.5 55Z" fill="#F7DF1E"/>
<path d="M30.3217 31.0401C31.1266 32.3498 32.1739 33.3125 34.026 33.3125C35.5819 33.3125 36.5759 32.5376 36.5759 31.4668C36.5759 30.1837 35.5547 29.7292 33.8421 28.9827L32.9033 28.5813C30.1936 27.4309 28.3934 25.9897 28.3934 22.943C28.3934 20.1365 30.5393 18 33.8928 18C36.2803 18 37.9967 18.8281 39.2336 20.9961L36.3095 22.8672C35.6657 21.7167 34.9711 21.2635 33.8928 21.2635C32.7929 21.2635 32.0958 21.9588 32.0958 22.8672C32.0958 23.9898 32.7936 24.4442 34.4047 25.1395L35.3434 25.5403C38.534 26.9037 40.3354 28.2937 40.3354 31.4188C40.3354 34.7878 37.6796 36.6336 34.1129 36.6336C30.6255 36.6336 28.3725 34.9775 27.2701 32.8069L30.3217 31.0401ZM17.0566 31.3644C17.6465 32.4074 18.1832 33.2891 19.4733 33.2891C20.707 33.2891 21.4853 32.8081 21.4853 30.9377V18.2137H25.2403V30.9883C25.2403 34.8631 22.9607 36.6266 19.6332 36.6266C16.6266 36.6266 14.8854 35.0761 14 33.2085L17.0566 31.3644Z" fill="black"/>
</svg>
