<svg width="90" height="90" viewBox="0 0 90 90" fill="none" xmlns="http://www.w3.org/2000/svg">
<circle cx="45" cy="45" r="45" fill="white"/>
<path d="M80 44.6812C80 40.1176 74.193 35.7927 65.2894 33.1108C67.3441 24.1803 66.431 17.0752 62.4073 14.8003C61.4799 14.2668 60.3955 14.0141 59.2112 14.0141V17.1454C59.8676 17.1454 60.3955 17.2717 60.8378 17.5105C62.7782 18.6057 63.6201 22.7761 62.9638 28.14C62.8068 29.46 62.55 30.8501 62.2361 32.2683C59.4395 31.5943 56.3861 31.0747 53.1757 30.7377C51.2495 28.14 49.252 25.781 47.2401 23.7168C51.8915 19.4623 56.2577 17.1313 59.2255 17.1313V14C55.3017 14 50.1651 16.7522 44.9715 21.5264C39.7778 16.7802 34.6412 14.0561 30.7175 14.0561V17.1874C33.671 17.1874 38.0514 19.5043 42.7029 23.7309C40.7053 25.795 38.7078 28.14 36.8101 30.7377C33.5854 31.0747 30.5321 31.5943 27.7355 32.2824C27.4072 30.8782 27.1647 29.5161 26.9935 28.2102C26.3228 22.8463 27.1505 18.6758 29.0767 17.5666C29.5047 17.3139 30.0611 17.2015 30.7175 17.2015V14.0702C29.519 14.0702 28.4346 14.3229 27.4928 14.8566C23.4835 17.1313 22.5846 24.2223 24.6535 33.1249C15.7786 35.8209 10 40.1317 10 44.6812C10 49.2448 15.8072 53.5696 24.7106 56.2516C22.656 65.1822 23.5691 72.2873 27.5928 74.562C28.5203 75.0957 29.6046 75.3484 30.8031 75.3484C34.7269 75.3484 39.8634 72.5962 45.0571 67.822C50.2507 72.5681 55.3873 75.2922 59.3111 75.2922C60.5097 75.2922 61.594 75.0394 62.5357 74.5059C66.545 72.2311 67.444 65.14 65.3751 56.2376C74.2215 53.5555 80 49.2308 80 44.6812ZM61.4228 35.3154C60.8949 37.1267 60.2385 38.9944 59.4966 40.8619C58.9116 39.7386 58.2981 38.6152 57.6274 37.4919C56.971 36.3684 56.2719 35.2733 55.5729 34.2061C57.5989 34.501 59.5537 34.8661 61.4228 35.3154ZM54.8879 50.2698C53.775 52.1654 52.6336 53.9627 51.4493 55.6337C49.3233 55.8163 47.1689 55.9146 45 55.9146C42.8455 55.9146 40.6911 55.8163 38.5793 55.6478C37.3951 53.9768 36.2393 52.1936 35.1264 50.312C34.042 48.4725 33.0575 46.6049 32.1586 44.7233C33.0433 42.8417 34.042 40.9602 35.1121 39.1207C36.2251 37.225 37.3666 35.4277 38.5507 33.7567C40.6767 33.5742 42.8313 33.4759 45 33.4759C47.1545 33.4759 49.3091 33.5742 51.4207 33.7427C52.605 35.4137 53.7607 37.1969 54.8737 39.0786C55.9581 40.918 56.9425 42.7856 57.8414 44.6672C56.9425 46.5487 55.9581 48.4303 54.8879 50.2698ZM59.4966 48.4444C60.267 50.3259 60.9234 52.2076 61.4655 54.0331C59.5964 54.4823 57.6275 54.8615 55.5871 55.1563C56.2862 54.0751 56.9854 52.9659 57.6417 51.8284C58.2981 50.7051 58.9116 49.5678 59.4966 48.4444ZM45.0285 63.4269C43.7017 62.0789 42.3746 60.5764 41.062 58.9335C42.3461 58.9898 43.6588 59.0319 44.9858 59.0319C46.327 59.0319 47.6539 59.0037 48.9524 58.9335C47.6682 60.5764 46.3412 62.0789 45.0285 63.4269ZM34.4129 55.1563C32.3869 54.8615 30.4321 54.4964 28.563 54.047C29.0909 52.2356 29.7473 50.3681 30.4892 48.5006C31.0742 49.6239 31.6877 50.7472 32.3583 51.8706C33.029 52.9939 33.7139 54.0892 34.4129 55.1563ZM44.9573 25.9355C46.2841 27.2835 47.6112 28.7859 48.9238 30.4288C47.6397 30.3727 46.327 30.3305 45 30.3305C43.6588 30.3305 42.3319 30.3586 41.0334 30.4288C42.3176 28.7859 43.6446 27.2835 44.9573 25.9355ZM34.3987 34.2061C33.6996 35.2872 33.0004 36.3966 32.3441 37.5339C31.6877 38.6573 31.0742 39.7806 30.4892 40.9039C29.7188 39.0224 29.0624 37.1408 28.5203 35.3154C30.3894 34.88 32.3583 34.501 34.3987 34.2061ZM21.486 51.7864C16.4349 49.666 13.1676 46.8858 13.1676 44.6812C13.1676 42.4766 16.4349 39.6823 21.486 37.5761C22.7131 37.0565 24.0543 36.5932 25.4383 36.1579C26.2516 38.9101 27.3217 41.7746 28.6486 44.7092C27.3359 47.63 26.2801 50.4805 25.481 53.2185C24.0685 52.7833 22.7273 52.3059 21.486 51.7864ZM29.1623 71.852C27.2218 70.7567 26.3799 66.5864 27.0363 61.2224C27.1932 59.9025 27.4501 58.5123 27.764 57.0942C30.5605 57.7681 33.614 58.2876 36.8243 58.6247C38.7505 61.2224 40.7482 63.5814 42.76 65.6455C38.1085 69.9002 33.7424 72.2311 30.7746 72.2311C30.1325 72.2171 29.5903 72.0907 29.1623 71.852ZM63.0065 61.1521C63.6772 66.5162 62.8496 70.6865 60.9234 71.7959C60.4953 72.0486 59.9389 72.1609 59.2826 72.1609C56.329 72.1609 51.9486 69.844 47.2972 65.6174C49.2947 63.5533 51.2924 61.2084 53.19 58.6106C56.4146 58.2736 59.468 57.7541 62.2646 57.066C62.5928 58.4843 62.8496 59.8463 63.0065 61.1521ZM64.5048 36.1438C65.9173 36.5792 67.2585 37.0565 68.5141 37.5761C73.5651 39.6964 76.8325 42.4766 76.8325 44.6812C76.8182 46.8858 73.5509 49.68 68.4998 51.7864C67.2727 52.3059 65.9315 52.7693 64.5475 53.2046C63.7342 50.4524 62.6642 47.5879 61.3372 44.6531C62.6499 41.7324 63.7057 38.882 64.5048 36.1438ZM45 38.3821C48.6923 38.3821 51.6855 41.1991 51.6855 44.6741C51.6855 48.1493 48.6923 50.9664 45 50.9664C41.3077 50.9664 38.3146 48.1493 38.3146 44.6741C38.3146 41.1991 41.3077 38.3821 45 38.3821Z" fill="#61DAFB"/>
</svg>
