<svg width="55" height="55" viewBox="0 0 55 55" fill="none" xmlns="http://www.w3.org/2000/svg">
<circle cx="27.5" cy="27.5" r="27.5" fill="#1A2A3A"/>
<path d="M43 27.1491C43 25.1933 40.5113 23.3397 36.6955 22.1904C37.5761 18.363 37.1847 15.3179 35.4603 14.343C35.0628 14.1144 34.5981 14.006 34.0905 14.006V15.348C34.3718 15.348 34.5981 15.4021 34.7876 15.5045C35.6192 15.9739 35.98 17.7612 35.6988 20.06C35.6315 20.6257 35.5214 21.2215 35.3869 21.8293C34.1884 21.5404 32.8797 21.3177 31.5039 21.1733C30.6783 20.06 29.8223 19.049 28.9601 18.1644C30.9535 16.341 32.8247 15.342 34.0967 15.342V14C32.415 14 30.2136 15.1795 27.9878 17.2256C25.7619 15.1915 23.5605 14.0241 21.8789 14.0241V15.366C23.1447 15.366 25.022 16.359 27.0155 18.1704C26.1594 19.055 25.3033 20.06 24.49 21.1733C23.108 21.3177 21.7995 21.5404 20.6009 21.8353C20.4602 21.2335 20.3563 20.6498 20.2829 20.0901C19.9955 17.7913 20.3502 16.0039 21.1757 15.5286C21.3591 15.4202 21.5976 15.3721 21.8789 15.3721V14.0301C21.3653 14.0301 20.9006 14.1384 20.4969 14.3671C18.7786 15.342 18.3934 18.381 19.2801 22.1964C15.4766 23.3518 13 25.1993 13 27.1491C13 29.1049 15.4888 30.9584 19.3045 32.1078C18.424 35.9352 18.8153 38.9803 20.5398 39.9552C20.9373 40.1839 21.402 40.2922 21.9156 40.2922C23.5972 40.2922 25.7986 39.1127 28.0245 37.0666C30.2503 39.1006 32.4517 40.2681 34.1333 40.2681C34.647 40.2681 35.1117 40.1597 35.5153 39.9311C37.2336 38.9562 37.6188 35.9171 36.7322 32.1018C40.5235 30.9524 43 29.0989 43 27.1491ZM35.0383 23.1352C34.8121 23.9115 34.5308 24.7119 34.2128 25.5122C33.9621 25.0308 33.6992 24.5494 33.4118 24.0679C33.1304 23.5865 32.8308 23.1171 32.5312 22.6598C33.3995 22.7861 34.2373 22.9426 35.0383 23.1352ZM32.2377 29.5442C31.7607 30.3566 31.2715 31.1269 30.764 31.843C29.8528 31.9213 28.9295 31.9634 28 31.9634C27.0766 31.9634 26.1533 31.9213 25.2483 31.8491C24.7408 31.1329 24.2454 30.3687 23.7685 29.5623C23.3037 28.7739 22.8818 27.9735 22.4965 27.1671C22.8757 26.3607 23.3037 25.5544 23.7623 24.766C24.2393 23.9536 24.7285 23.1833 25.236 22.4672C26.1472 22.3889 27.0705 22.3468 28 22.3468C28.9234 22.3468 29.8467 22.3889 30.7517 22.4611C31.2593 23.1773 31.7546 23.9415 32.2316 24.748C32.6963 25.5363 33.1182 26.3367 33.5035 27.1431C33.1182 27.9495 32.6963 28.7558 32.2377 29.5442ZM34.2128 28.7619C34.543 29.5683 34.8243 30.3747 35.0567 31.157C34.2556 31.3496 33.4118 31.5121 32.5373 31.6384C32.837 31.1751 33.1366 30.6997 33.4179 30.2122C33.6992 29.7308 33.9621 29.2433 34.2128 28.7619ZM28.0122 35.183C27.4436 34.6052 26.8748 33.9613 26.3123 33.2572C26.8626 33.2813 27.4252 33.2994 27.9939 33.2994C28.5687 33.2994 29.1374 33.2873 29.6939 33.2572C29.1435 33.9613 28.5748 34.6052 28.0122 35.183ZM23.4627 31.6384C22.5944 31.5121 21.7566 31.3556 20.9556 31.163C21.1818 30.3867 21.4631 29.5863 21.7811 28.786C22.0318 29.2674 22.2947 29.7488 22.5821 30.2303C22.8696 30.7117 23.1631 31.1811 23.4627 31.6384ZM27.9817 19.1152C28.5503 19.6929 29.1191 20.3368 29.6816 21.0409C29.1313 21.0169 28.5687 20.9988 28 20.9988C27.4252 20.9988 26.8565 21.0108 26.3 21.0409C26.8504 20.3368 27.4191 19.6929 27.9817 19.1152ZM23.4566 22.6598C23.157 23.1231 22.8573 23.5985 22.5761 24.086C22.2947 24.5674 22.0318 25.0488 21.7811 25.5303C21.4509 24.7239 21.1696 23.9175 20.9373 23.1352C21.7383 22.9486 22.5821 22.7861 23.4566 22.6598ZM17.9226 30.1942C15.7578 29.2854 14.3576 28.0939 14.3576 27.1491C14.3576 26.2043 15.7578 25.0067 17.9226 24.1041C18.4485 23.8814 19.0233 23.6828 19.6164 23.4962C19.965 24.6758 20.4236 25.9034 20.9923 27.1611C20.4297 28.4128 19.9772 29.6345 19.6347 30.8079C19.0294 30.6214 18.4545 30.4168 17.9226 30.1942ZM21.2124 38.7937C20.3808 38.3243 20.02 36.537 20.3013 34.2382C20.3685 33.6725 20.4786 33.0767 20.6132 32.4689C21.8116 32.7577 23.1203 32.9804 24.4961 33.1249C25.3217 34.2382 26.1778 35.2492 27.04 36.1338C25.0465 37.9572 23.1753 38.9562 21.9034 38.9562C21.6282 38.9502 21.3958 38.896 21.2124 38.7937ZM35.7171 34.208C36.0045 36.5069 35.6498 38.2942 34.8243 38.7697C34.6409 38.878 34.4024 38.9261 34.1211 38.9261C32.8553 38.9261 30.978 37.9331 28.9845 36.1217C29.8406 35.2371 30.6967 34.2322 31.51 33.1188C32.892 32.9744 34.2006 32.7518 35.3991 32.4569C35.5398 33.0647 35.6498 33.6484 35.7171 34.208ZM36.3592 23.4902C36.9646 23.6768 37.5394 23.8814 38.0775 24.1041C40.2422 25.0127 41.6425 26.2043 41.6425 27.1491C41.6364 28.0939 40.2361 29.2914 38.0713 30.1942C37.5455 30.4168 36.9706 30.6154 36.3775 30.802C36.029 29.6224 35.5704 28.3948 35.0017 27.137C35.5642 25.8853 36.0167 24.6637 36.3592 23.4902ZM28 24.4495C29.5824 24.4495 30.8652 25.6568 30.8652 27.1461C30.8652 28.6354 29.5824 29.8427 28 29.8427C26.4176 29.8427 25.1348 28.6354 25.1348 27.1461C25.1348 25.6568 26.4176 24.4495 28 24.4495Z" fill="#61DAFB"/>
</svg>
