<svg width="90" height="93" viewBox="0 0 90 93" fill="none" xmlns="http://www.w3.org/2000/svg">
<circle cx="45" cy="45" r="45" fill="white"/>
<path d="M29.2523 19.125H57.2938C58.6583 19.125 59.9834 19.3426 61.2688 19.7974C63.1276 20.4697 64.8085 21.6562 66.0741 23.1987C67.3595 24.7412 68.2099 26.6397 68.5066 28.6172C68.6252 29.3489 68.645 30.0806 68.645 30.8123V58.1616C68.645 59.0318 68.6055 59.9217 68.4274 60.7719C68.0319 62.7298 67.1025 64.5688 65.7578 66.052C64.4328 67.5352 62.6926 68.6425 60.8139 69.2359C59.6669 69.5918 58.4804 69.75 57.2741 69.75C56.7402 69.75 29.1732 69.75 28.7579 69.7302C26.7408 69.6313 24.7435 68.9788 23.0625 67.8516C21.4212 66.7441 20.0765 65.2016 19.2064 63.4219C18.4549 61.8992 18.0791 60.1985 18.0791 58.4978V30.3773C18.0396 28.6963 18.3956 27.0352 19.1273 25.5322C19.9776 23.7525 21.3026 22.1902 22.944 21.0827C24.6248 19.9358 26.6024 19.2634 28.6195 19.1646C28.8173 19.125 29.0347 19.125 29.2523 19.125Z" fill="url(#paint0_linear_958_390)"/>
<path d="M60.7149 60.5347C60.5369 60.2578 60.3391 59.9809 60.1216 59.7239C59.6272 59.1306 59.0537 58.6164 58.4209 58.1814C57.6299 57.6475 56.7004 57.3113 55.7512 57.2717C55.0789 57.2321 54.4065 57.3508 53.7737 57.5882C53.1408 57.8056 52.5278 58.1221 51.9346 58.4385C51.2424 58.7944 50.5503 59.1504 49.8186 59.447C48.9485 59.803 48.0389 60.0798 47.1094 60.2776C45.9426 60.4951 44.7561 60.5743 43.5894 60.5545C41.4734 60.5149 39.3574 60.1985 37.3403 59.6052C35.5606 59.0713 33.8599 58.3396 32.258 57.4102C30.854 56.5993 29.5488 55.67 28.3228 54.6218C27.3142 53.7517 26.3847 52.8222 25.5147 51.8335C24.9213 51.1414 24.3479 50.4097 23.814 49.6582C23.5964 49.3616 23.3987 49.0452 23.2207 48.7288L18 43.0928V30.3377C18 24.1479 23.0032 19.125 29.1928 19.125H39.1795L46.5754 26.6397C63.2658 37.9907 57.8672 50.5086 57.8672 50.5086C57.8672 50.5086 62.6133 55.8479 60.7149 60.5347Z" fill="url(#paint1_linear_958_390)"/>
<path d="M46.615 26.6396C63.3054 37.9907 57.9066 50.5085 57.9066 50.5085C57.9066 50.5085 62.6527 55.8677 60.7345 60.5545C60.7345 60.5545 58.7768 57.2717 55.494 57.2717C52.33 57.2717 50.4711 60.5545 44.1035 60.5545C29.9246 60.5545 23.2207 48.709 23.2207 48.709C35.9956 57.1135 44.7165 51.1612 44.7165 51.1612C38.9619 47.8191 26.7209 31.8405 26.7209 31.8405C37.3798 40.9175 41.9875 43.3102 41.9875 43.3102C39.2388 41.0362 31.5264 29.9224 31.5264 29.9224C37.6963 36.1713 49.957 44.8923 49.957 44.8923C53.4374 35.242 46.615 26.6396 46.615 26.6396Z" fill="white"/>
<defs>
<linearGradient id="paint0_linear_958_390" x1="48.1163" y1="17.3185" x2="38.5515" y2="71.5626" gradientUnits="userSpaceOnUse">
<stop stop-color="#FAAE42"/>
<stop offset="1" stop-color="#EF3E31"/>
</linearGradient>
<linearGradient id="paint1_linear_958_390" x1="43.829" y1="19.9429" x2="36.8288" y2="59.6433" gradientUnits="userSpaceOnUse">
<stop stop-color="#E39F3A"/>
<stop offset="1" stop-color="#D33929"/>
</linearGradient>
</defs>
</svg>
